Amiamie-Black.ufo
<glyph name="exclam" format="2">
	<advance width="280"/>
	<unicode hex="0021"/>
	<note>
		exclam
	</note>
	<outline>
		<contour>
			<point x="71" y="210" type="line"/>
			<point x="209" y="210" type="line"/>
			<point x="221" y="690" type="line"/>
			<point x="59" y="690" type="line"/>
		</contour>
		<contour>
			<point x="66" y="164" type="line"/>
			<point x="66" y="-14" type="line"/>
			<point x="219" y="-14" type="line"/>
			<point x="219" y="164" type="line"/>
		</contour>
	</outline>
</glyph>
<glyph name="dollar" format="2">
	<advance width="662"/>
	<unicode hex="0024"/>
	<note>
		dollar
	</note>
	<outline>
		<contour>
			<point x="619" y="188" type="curve" smooth="yes"/>
			<point x="619" y="307"/>
			<point x="549" y="368"/>
			<point x="386" y="419" type="curve"/>
			<point x="386" y="573" type="line"/>
			<point x="424" y="558"/>
			<point x="441" y="527"/>
			<point x="447" y="487" type="curve"/>
			<point x="617" y="487" type="line"/>
			<point x="604" y="602"/>
			<point x="533" y="686"/>
			<point x="386" y="701" type="curve"/>
			<point x="386" y="780" type="line"/>
			<point x="286" y="780" type="line"/>
			<point x="286" y="701" type="line"/>
			<point x="173" y="687"/>
			<point x="71" y="622"/>
			<point x="71" y="491" type="curve" smooth="yes"/>
			<point x="71" y="378"/>
			<point x="149" y="323"/>
			<point x="286" y="275" type="curve"/>
			<point x="286" y="115" type="line"/>
			<point x="248" y="128"/>
			<point x="220" y="155"/>
			<point x="212" y="201" type="curve"/>
			<point x="42" y="201" type="line"/>
			<point x="56" y="63"/>
			<point x="150" y="0"/>
			<point x="286" y="-12" type="curve"/>
			<point x="286" y="-90" type="line"/>
			<point x="386" y="-90" type="line"/>
			<point x="386" y="-12" type="line"/>
			<point x="521" y="1"/>
			<point x="619" y="69"/>
		</contour>
		<contour>
			<point x="234" y="509" type="curve" smooth="yes"/>
			<point x="234" y="543"/>
			<point x="254" y="566"/>
			<point x="286" y="576" type="curve"/>
			<point x="286" y="440" type="line"/>
			<point x="252" y="453"/>
			<point x="234" y="472"/>
		</contour>
		<contour>
			<point x="386" y="112" type="curve"/>
			<point x="386" y="251" type="line"/>
			<point x="433" y="232"/>
			<point x="447" y="209"/>
			<point x="447" y="179" type="curve" smooth="yes"/>
			<point x="447" y="140"/>
			<point x="426" y="120"/>
		</contour>
	</outline>
</glyph>
<glyph name="percent" format="2">
	<advance width="782"/>
	<unicode hex="0025"/>
	<note>
		percent
	</note>
	<outline>
		<contour>
			<point x="191" y="704" type="curve" smooth="yes"/>
			<point x="91" y="704"/>
			<point x="31" y="643"/>
			<point x="31" y="535" type="curve" smooth="yes"/>
			<point x="31" y="428"/>
			<point x="91" y="366"/>
			<point x="191" y="366" type="curve" smooth="yes"/>
			<point x="291" y="366"/>
			<point x="351" y="428"/>
			<point x="351" y="535" type="curve" smooth="yes"/>
			<point x="351" y="643"/>
			<point x="291" y="704"/>
		</contour>
		<contour>
			<point x="111" y="0" type="line"/>
			<point x="234" y="0" type="line"/>
			<point x="681" y="690" type="line"/>
			<point x="558" y="690" type="line"/>
		</contour>
		<contour>
			<point x="191" y="620" type="curve" smooth="yes"/>
			<point x="227" y="620"/>
			<point x="243" y="590"/>
			<point x="243" y="535" type="curve" smooth="yes"/>
			<point x="243" y="481"/>
			<point x="227" y="450"/>
			<point x="191" y="450" type="curve" smooth="yes"/>
			<point x="155" y="450"/>
			<point x="139" y="481"/>
			<point x="139" y="535" type="curve" smooth="yes"/>
			<point x="139" y="590"/>
			<point x="155" y="620"/>
		</contour>
		<contour>
			<point x="591" y="324" type="curve" smooth="yes"/>
			<point x="491" y="324"/>
			<point x="431" y="263"/>
			<point x="431" y="155" type="curve" smooth="yes"/>
			<point x="431" y="48"/>
			<point x="491" y="-14"/>
			<point x="591" y="-14" type="curve" smooth="yes"/>
			<point x="691" y="-14"/>
			<point x="751" y="48"/>
			<point x="751" y="155" type="curve" smooth="yes"/>
			<point x="751" y="263"/>
			<point x="691" y="324"/>
		</contour>
		<contour>
			<point x="591" y="240" type="curve" smooth="yes"/>
			<point x="627" y="240"/>
			<point x="643" y="210"/>
			<point x="643" y="155" type="curve" smooth="yes"/>
			<point x="643" y="101"/>
			<point x="627" y="70"/>
			<point x="591" y="70" type="curve" smooth="yes"/>
			<point x="555" y="70"/>
			<point x="539" y="101"/>
			<point x="539" y="155" type="curve" smooth="yes"/>
			<point x="539" y="210"/>
			<point x="555" y="240"/>
		</contour>
	</outline>
</glyph>
<glyph name="ampersand" format="2">
	<advance width="688"/>
	<unicode hex="0026"/>
	<note>
		ampersand
	</note>
	<outline>
		<contour>
			<point x="692" y="280" type="line"/>
			<point x="692" y="420" type="line"/>
			<point x="600" y="420" type="line"/>
			<point x="600" y="497" type="line"/>
			<point x="420" y="497" type="line"/>
			<point x="420" y="420" type="line"/>
			<point x="403" y="420" type="line" smooth="yes"/>
			<point x="387" y="420"/>
			<point x="365" y="420"/>
			<point x="347" y="421" type="curve" smooth="yes"/>
			<point x="306" y="423"/>
			<point x="274" y="447"/>
			<point x="274" y="498" type="curve" smooth="yes"/>
			<point x="274" y="549"/>
			<point x="302" y="572"/>
			<point x="361" y="572" type="curve" smooth="yes"/>
			<point x="392" y="572"/>
			<point x="415" y="571"/>
			<point x="456" y="565" type="curve"/>
			<point x="456" y="694" type="line"/>
			<point x="428" y="701"/>
			<point x="395" y="704"/>
			<point x="356" y="704" type="curve" smooth="yes"/>
			<point x="183" y="704"/>
			<point x="86" y="636"/>
			<point x="86" y="508" type="curve" smooth="yes"/>
			<point x="86" y="435"/>
			<point x="137" y="375"/>
			<point x="212" y="353" type="curve"/>
			<point x="111" y="337"/>
			<point x="44" y="278"/>
			<point x="44" y="178" type="curve" smooth="yes"/>
			<point x="44" y="32"/>
			<point x="166" y="-14"/>
			<point x="327" y="-14" type="curve" smooth="yes"/>
			<point x="434" y="-14"/>
			<point x="524" y="-3"/>
			<point x="600" y="13" type="curve"/>
			<point x="600" y="280" type="line"/>
		</contour>
		<contour>
			<point x="232" y="200" type="curve" smooth="yes"/>
			<point x="232" y="250"/>
			<point x="270" y="276"/>
			<point x="336" y="279" type="curve" smooth="yes"/>
			<point x="356" y="280"/>
			<point x="365" y="280"/>
			<point x="387" y="280" type="curve" smooth="yes"/>
			<point x="420" y="280" type="line"/>
			<point x="420" y="125" type="line"/>
			<point x="382" y="119"/>
			<point x="361" y="118"/>
			<point x="332" y="118" type="curve" smooth="yes"/>
			<point x="274" y="118"/>
			<point x="232" y="135"/>
		</contour>
	</outline>
</glyph>
<glyph name="quotesingle" format="2">
	<advance width="220"/>
	<unicode hex="0027"/>
	<note>
		quotesingle
	</note>
	<outline>
		<contour>
			<point x="45" y="439" type="line"/>
			<point x="163" y="439" type="line"/>
			<point x="179" y="735" type="line"/>
			<point x="29" y="735" type="line"/>
		</contour>
	</outline>
</glyph>
<glyph name="parenleft" format="2">
	<advance width="403"/>
	<unicode hex="0028"/>
	<note>
		parenleft
	</note>
	<outline>
		<contour>
			<point x="364" y="780" type="curve"/>
			<point x="275" y="780" type="line"/>
			<point x="174" y="674"/>
			<point x="119" y="538"/>
			<point x="119" y="350" type="curve" smooth="yes"/>
			<point x="119" y="162"/>
			<point x="174" y="26"/>
			<point x="275" y="-80" type="curve"/>
			<point x="364" y="-80" type="line"/>
			<point x="274" y="48"/>
			<point x="227" y="180"/>
			<point x="227" y="350" type="curve" smooth="yes"/>
			<point x="227" y="520"/>
			<point x="274" y="652"/>
		</contour>
	</outline>
</glyph>
<glyph name="plus" format="2">
	<advance width="662"/>
	<unicode hex="002B"/>
	<note>
		plus
	</note>
	<outline>
		<contour>
			<point x="381" y="273" type="line"/>
			<point x="556" y="273" type="line"/>
			<point x="556" y="361" type="line"/>
			<point x="381" y="361" type="line"/>
			<point x="381" y="558" type="line"/>
			<point x="281" y="558" type="line"/>
			<point x="281" y="361" type="line"/>
			<point x="106" y="361" type="line"/>
			<point x="106" y="273" type="line"/>
			<point x="281" y="273" type="line"/>
			<point x="281" y="76" type="line"/>
			<point x="381" y="76" type="line"/>
		</contour>
	</outline>
</glyph>
<glyph name="comma" format="2">
	<advance width="266"/>
	<unicode hex="002C"/>
	<note>
		comma
	</note>
	<outline>
		<contour>
			<point x="112" y="-124" type="line"/>
			<point x="221" y="162" type="line"/>
			<point x="221" y="172" type="line"/>
			<point x="54" y="172" type="line"/>
			<point x="-26" y="-124" type="line"/>
		</contour>
	</outline>
</glyph>
<glyph name="hyphen" format="2">
	<advance width="314"/>
	<unicode hex="002D"/>
	<note>
		hyphen
	</note>
	<outline>
		<contour>
			<point x="32" y="235" type="line"/>
			<point x="282" y="235" type="line"/>
			<point x="282" y="331" type="line"/>
			<point x="32" y="331" type="line"/>
		</contour>
	</outline>
</glyph>
<glyph name="one" format="2">
	<advance width="662"/>
	<unicode hex="0031"/>
	<note>
		one
	</note>
	<outline>
		<contour>
			<point x="508" y="0" type="line"/>
			<point x="508" y="690" type="line"/>
			<point x="430" y="690" type="line" smooth="yes"/>
			<point x="379" y="690"/>
			<point x="333" y="676"/>
			<point x="289" y="651" type="curve" smooth="yes"/>
			<point x="118" y="553" type="line"/>
			<point x="118" y="392" type="line"/>
			<point x="328" y="502" type="line"/>
			<point x="328" y="0" type="line"/>
		</contour>
	</outline>
</glyph>
<glyph name="two" format="2">
	<advance width="662"/>
	<unicode hex="0032"/>
	<note>
		two
	</note>
	<outline>
		<contour>
			<point x="593" y="140" type="line"/>
			<point x="339" y="140" type="line"/>
			<point x="431" y="229" type="line" smooth="yes"/>
			<point x="564" y="357"/>
			<point x="601" y="419"/>
			<point x="601" y="500" type="curve" smooth="yes"/>
			<point x="601" y="629"/>
			<point x="511" y="706"/>
			<point x="350" y="706" type="curve" smooth="yes"/>
			<point x="181" y="706"/>
			<point x="85" y="621"/>
			<point x="70" y="469" type="curve" smooth="yes"/>
			<point x="69" y="459" type="line"/>
			<point x="249" y="459" type="line"/>
			<point x="250" y="469" type="line" smooth="yes"/>
			<point x="257" y="541"/>
			<point x="283" y="574"/>
			<point x="335" y="574" type="curve" smooth="yes"/>
			<point x="384" y="574"/>
			<point x="413" y="545"/>
			<point x="413" y="493" type="curve" smooth="yes"/>
			<point x="413" y="427"/>
			<point x="378" y="379"/>
			<point x="275" y="282" type="curve" smooth="yes"/>
			<point x="58" y="78" type="line"/>
			<point x="58" y="0" type="line"/>
			<point x="593" y="0" type="line"/>
		</contour>
	</outline>
</glyph>
<glyph name="three" format="2">
	<advance width="662"/>
	<unicode hex="0033"/>
	<note>
		three
	</note>
	<outline>
		<contour>
			<point x="460" y="363" type="curve"/>
			<point x="550" y="385"/>
			<point x="591" y="439"/>
			<point x="591" y="520" type="curve" smooth="yes"/>
			<point x="591" y="618"/>
			<point x="513" y="704"/>
			<point x="344" y="704" type="curve" smooth="yes"/>
			<point x="165" y="704"/>
			<point x="79" y="600"/>
			<point x="67" y="484" type="curve" smooth="yes"/>
			<point x="66" y="474" type="line"/>
			<point x="246" y="474" type="line"/>
			<point x="247" y="484" type="line" smooth="yes"/>
			<point x="251" y="529"/>
			<point x="273" y="572"/>
			<point x="326" y="572" type="curve" smooth="yes"/>
			<point x="376" y="572"/>
			<point x="403" y="544"/>
			<point x="403" y="499" type="curve" smooth="yes"/>
			<point x="403" y="452"/>
			<point x="370" y="416"/>
			<point x="304" y="411" type="curve" smooth="yes"/>
			<point x="277" y="409" type="line"/>
			<point x="277" y="293" type="line"/>
			<point x="304" y="292" type="line" smooth="yes"/>
			<point x="376" y="289"/>
			<point x="419" y="259"/>
			<point x="419" y="200" type="curve" smooth="yes"/>
			<point x="419" y="153"/>
			<point x="380" y="118"/>
			<point x="318" y="118" type="curve" smooth="yes"/>
			<point x="259" y="118"/>
			<point x="225" y="161"/>
			<point x="215" y="209" type="curve" smooth="yes"/>
			<point x="213" y="219" type="line"/>
			<point x="33" y="219" type="line"/>
			<point x="34" y="209" type="line" smooth="yes"/>
			<point x="48" y="71"/>
			<point x="150" y="-14"/>
			<point x="325" y="-14" type="curve" smooth="yes"/>
			<point x="499" y="-14"/>
			<point x="607" y="73"/>
			<point x="607" y="205" type="curve" smooth="yes"/>
			<point x="607" y="294"/>
			<point x="558" y="344"/>
		</contour>
	</outline>
</glyph>
<glyph name="four" format="2">
	<advance width="662"/>
	<unicode hex="0034"/>
	<note>
		four
	</note>
	<outline>
		<contour>
			<point x="542" y="154" type="line"/>
			<point x="626" y="154" type="line"/>
			<point x="626" y="294" type="line"/>
			<point x="542" y="294" type="line"/>
			<point x="542" y="690" type="line"/>
			<point x="346" y="690" type="line"/>
			<point x="38" y="253" type="line"/>
			<point x="38" y="154" type="line"/>
			<point x="362" y="154" type="line"/>
			<point x="362" y="0" type="line"/>
			<point x="542" y="0" type="line"/>
		</contour>
		<contour>
			<point x="362" y="500" type="curve"/>
			<point x="362" y="294" type="line"/>
			<point x="223" y="294" type="line"/>
			<point x="325" y="439" type="line" smooth="yes"/>
			<point x="336" y="454"/>
			<point x="348" y="475"/>
		</contour>
	</outline>
</glyph>
<glyph name="five" format="2">
	<advance width="662"/>
	<unicode hex="0035"/>
	<note>
		five
	</note>
	<outline>
		<contour>
			<point x="379" y="470" type="curve" smooth="yes"/>
			<point x="341" y="470"/>
			<point x="304" y="463"/>
			<point x="272" y="445" type="curve"/>
			<point x="246" y="399" type="line"/>
			<point x="268" y="550" type="line"/>
			<point x="580" y="550" type="line"/>
			<point x="580" y="690" type="line"/>
			<point x="120" y="690" type="line"/>
			<point x="69" y="276" type="line"/>
			<point x="235" y="276" type="line"/>
			<point x="251" y="318"/>
			<point x="277" y="338"/>
			<point x="323" y="338" type="curve" smooth="yes"/>
			<point x="385" y="338"/>
			<point x="419" y="291"/>
			<point x="419" y="228" type="curve" smooth="yes"/>
			<point x="419" y="166"/>
			<point x="387" y="118"/>
			<point x="320" y="118" type="curve" smooth="yes"/>
			<point x="271" y="118"/>
			<point x="243" y="147"/>
			<point x="238" y="194" type="curve" smooth="yes"/>
			<point x="237" y="204" type="line"/>
			<point x="57" y="204" type="line"/>
			<point x="58" y="194" type="line" smooth="yes"/>
			<point x="73" y="47"/>
			<point x="166" y="-14"/>
			<point x="332" y="-14" type="curve" smooth="yes"/>
			<point x="474" y="-14"/>
			<point x="607" y="71"/>
			<point x="607" y="233" type="curve" smooth="yes"/>
			<point x="607" y="384"/>
			<point x="517" y="470"/>
		</contour>
	</outline>
</glyph>
<glyph name="six" format="2">
	<advance width="662"/>
	<unicode hex="0036"/>
	<note>
		six
	</note>
	<outline>
		<contour>
			<point x="388" y="462" type="curve" smooth="yes"/>
			<point x="340" y="462"/>
			<point x="304" y="455"/>
			<point x="267" y="426" type="curve"/>
			<point x="235" y="364" type="line"/>
			<point x="240" y="508"/>
			<point x="276" y="572"/>
			<point x="343" y="572" type="curve" smooth="yes"/>
			<point x="385" y="572"/>
			<point x="410" y="552"/>
			<point x="424" y="504" type="curve" smooth="yes"/>
			<point x="426" y="494" type="line"/>
			<point x="606" y="494" type="line"/>
			<point x="605" y="504" type="line" smooth="yes"/>
			<point x="589" y="627"/>
			<point x="507" y="704"/>
			<point x="353" y="704" type="curve" smooth="yes"/>
			<point x="173" y="704"/>
			<point x="54" y="570"/>
			<point x="54" y="332" type="curve" smooth="yes"/>
			<point x="54" y="93"/>
			<point x="148" y="-14"/>
			<point x="336" y="-14" type="curve" smooth="yes"/>
			<point x="480" y="-14"/>
			<point x="613" y="73"/>
			<point x="613" y="243" type="curve" smooth="yes"/>
			<point x="613" y="361"/>
			<point x="545" y="462"/>
		</contour>
		<contour>
			<point x="334" y="118" type="curve" smooth="yes"/>
			<point x="277" y="118"/>
			<point x="242" y="160"/>
			<point x="242" y="225" type="curve" smooth="yes"/>
			<point x="242" y="292"/>
			<point x="283" y="330"/>
			<point x="332" y="330" type="curve" smooth="yes"/>
			<point x="391" y="330"/>
			<point x="425" y="288"/>
			<point x="425" y="221" type="curve" smooth="yes"/>
			<point x="425" y="167"/>
			<point x="395" y="118"/>
		</contour>
	</outline>
</glyph>
<glyph name="nine" format="2">
	<advance width="662"/>
	<unicode hex="0039"/>
	<note>
		nine
	</note>
	<outline>
		<contour>
			<point x="326" y="704" type="curve" smooth="yes"/>
			<point x="182" y="704"/>
			<point x="49" y="617"/>
			<point x="49" y="447" type="curve" smooth="yes"/>
			<point x="49" y="329"/>
			<point x="117" y="228"/>
			<point x="274" y="228" type="curve" smooth="yes"/>
			<point x="322" y="228"/>
			<point x="358" y="235"/>
			<point x="395" y="264" type="curve"/>
			<point x="427" y="326" type="line"/>
			<point x="422" y="182"/>
			<point x="386" y="118"/>
			<point x="319" y="118" type="curve" smooth="yes"/>
			<point x="273" y="118"/>
			<point x="248" y="138"/>
			<point x="238" y="186" type="curve" smooth="yes"/>
			<point x="236" y="196" type="line"/>
			<point x="56" y="196" type="line"/>
			<point x="57" y="186" type="line" smooth="yes"/>
			<point x="69" y="63"/>
			<point x="151" y="-14"/>
			<point x="309" y="-14" type="curve" smooth="yes"/>
			<point x="493" y="-14"/>
			<point x="608" y="120"/>
			<point x="608" y="358" type="curve" smooth="yes"/>
			<point x="608" y="597"/>
			<point x="514" y="704"/>
		</contour>
		<contour>
			<point x="330" y="360" type="curve" smooth="yes"/>
			<point x="271" y="360"/>
			<point x="237" y="402"/>
			<point x="237" y="469" type="curve" smooth="yes"/>
			<point x="237" y="523"/>
			<point x="267" y="572"/>
			<point x="328" y="572" type="curve" smooth="yes"/>
			<point x="385" y="572"/>
			<point x="420" y="530"/>
			<point x="420" y="465" type="curve" smooth="yes"/>
			<point x="420" y="398"/>
			<point x="379" y="360"/>
		</contour>
	</outline>
</glyph>
<glyph name="semicolon" format="2">
	<advance width="266"/>
	<unicode hex="003B"/>
	<note>
		semicolon
	</note>
	<outline>
		<contour>
			<point x="112" y="-124" type="line"/>
			<point x="221" y="152" type="line"/>
			<point x="221" y="172" type="line"/>
			<point x="54" y="172" type="line"/>
			<point x="-26" y="-124" type="line"/>
		</contour>
		<contour>
			<point x="41" y="547" type="line"/>
			<point x="41" y="345" type="line"/>
			<point x="241" y="345" type="line"/>
			<point x="241" y="547" type="line"/>
		</contour>
	</outline>
</glyph>
<glyph name="less" format="2">
	<advance width="662"/>
	<unicode hex="003C"/>
	<note>
		less
	</note>
	<outline>
		<contour>
			<point x="223" y="266" type="line"/>
			<point x="578" y="392" type="line"/>
			<point x="578" y="510" type="line"/>
			<point x="107" y="333" type="line"/>
			<point x="107" y="197" type="line"/>
			<point x="578" y="20" type="line"/>
			<point x="578" y="139" type="line"/>
		</contour>
	</outline>
</glyph>
<glyph name="question" format="2">
	<advance width="589"/>
	<unicode hex="003F"/>
	<note>
		question
	</note>
	<outline>
		<contour>
			<point x="296" y="704" type="curve" smooth="yes"/>
			<point x="135" y="704"/>
			<point x="34" y="618"/>
			<point x="30" y="474" type="curve"/>
			<point x="210" y="474" type="line"/>
			<point x="213" y="541"/>
			<point x="239" y="572"/>
			<point x="283" y="572" type="curve" smooth="yes"/>
			<point x="331" y="572"/>
			<point x="353" y="546"/>
			<point x="353" y="496" type="curve" smooth="yes"/>
			<point x="353" y="461"/>
			<point x="333" y="430"/>
			<point x="279" y="373" type="curve" smooth="yes"/>
			<point x="236" y="327"/>
			<point x="216" y="291"/>
			<point x="214" y="210" type="curve"/>
			<point x="360" y="210" type="line"/>
			<point x="366" y="263"/>
			<point x="385" y="287"/>
			<point x="435" y="328" type="curve" smooth="yes"/>
			<point x="507" y="386"/>
			<point x="541" y="431"/>
			<point x="541" y="511" type="curve" smooth="yes"/>
			<point x="541" y="634"/>
			<point x="450" y="704"/>
		</contour>
		<contour>
			<point x="213" y="164" type="line"/>
			<point x="213" y="-14" type="line"/>
			<point x="366" y="-14" type="line"/>
			<point x="366" y="164" type="line"/>
		</contour>
	</outline>
</glyph>
<glyph name="at" format="2">
	<advance width="930"/>
	<unicode hex="0040"/>
	<note>
		at
	</note>
	<outline>
		<contour>
			<point x="670" y="339" type="curve" smooth="yes"/>
			<point x="702" y="472" type="line"/>
			<point x="551" y="472" type="line"/>
			<point x="531" y="409" type="line"/>
			<point x="514" y="462" type="line"/>
			<point x="503" y="477"/>
			<point x="476" y="490"/>
			<point x="437" y="490" type="curve" smooth="yes"/>
			<point x="325" y="490"/>
			<point x="247" y="386"/>
			<point x="247" y="243" type="curve" smooth="yes"/>
			<point x="247" y="113"/>
			<point x="312" y="74"/>
			<point x="382" y="74" type="curve" smooth="yes"/>
			<point x="411" y="74"/>
			<point x="441" y="81"/>
			<point x="470" y="104" type="curve"/>
			<point x="501" y="167" type="line"/>
			<point x="523" y="101"/>
			<point x="575" y="68"/>
			<point x="653" y="68" type="curve" smooth="yes"/>
			<point x="783" y="68"/>
			<point x="891" y="144"/>
			<point x="891" y="352" type="curve" smooth="yes"/>
			<point x="891" y="530"/>
			<point x="759" y="702"/>
			<point x="504" y="702" type="curve" smooth="yes"/>
			<point x="244" y="702"/>
			<point x="44" y="512"/>
			<point x="44" y="251" type="curve" smooth="yes"/>
			<point x="44" y="-31"/>
			<point x="260" y="-134"/>
			<point x="439" y="-134" type="curve" smooth="yes"/>
			<point x="526" y="-134"/>
			<point x="628" y="-112"/>
			<point x="713" y="-57" type="curve"/>
			<point x="676" y="27" type="line"/>
			<point x="615" y="-17"/>
			<point x="539" y="-38"/>
			<point x="453" y="-38" type="curve" smooth="yes"/>
			<point x="254" y="-38"/>
			<point x="152" y="79"/>
			<point x="152" y="258" type="curve" smooth="yes"/>
			<point x="152" y="478"/>
			<point x="324" y="606"/>
			<point x="500" y="606" type="curve" smooth="yes"/>
			<point x="676" y="606"/>
			<point x="783" y="507"/>
			<point x="783" y="342" type="curve" smooth="yes"/>
			<point x="783" y="226"/>
			<point x="742" y="164"/>
			<point x="692" y="164" type="curve" smooth="yes"/>
			<point x="664" y="164"/>
			<point x="651" y="189"/>
			<point x="651" y="229" type="curve" smooth="yes"/>
			<point x="651" y="248"/>
			<point x="653" y="267"/>
		</contour>
		<contour>
			<point x="445" y="196" type="curve" smooth="yes"/>
			<point x="424" y="196"/>
			<point x="411" y="212"/>
			<point x="411" y="255" type="curve" smooth="yes"/>
			<point x="411" y="322"/>
			<point x="442" y="368"/>
			<point x="479" y="368" type="curve" smooth="yes"/>
			<point x="504" y="368"/>
			<point x="512" y="347"/>
			<point x="506" y="319" type="curve" smooth="yes"/>
			<point x="490" y="248" type="line" smooth="yes"/>
			<point x="483" y="219"/>
			<point x="470" y="196"/>
		</contour>
	</outline>
</glyph>
<glyph name="C" format="2">
	<advance width="734"/>
	<unicode hex="0043"/>
	<note>
		C
	</note>
	<outline>
		<contour>
			<point x="395" y="704" type="curve" smooth="yes"/>
			<point x="208" y="704"/>
			<point x="54" y="580"/>
			<point x="54" y="340" type="curve" smooth="yes"/>
			<point x="54" y="106"/>
			<point x="203" y="-14"/>
			<point x="388" y="-14" type="curve" smooth="yes"/>
			<point x="561" y="-14"/>
			<point x="688" y="71"/>
			<point x="705" y="237" type="curve" smooth="yes"/>
			<point x="706" y="247" type="line"/>
			<point x="526" y="247" type="line"/>
			<point x="524" y="237" type="line" smooth="yes"/>
			<point x="509" y="161"/>
			<point x="464" y="118"/>
			<point x="394" y="118" type="curve" smooth="yes"/>
			<point x="314" y="118"/>
			<point x="242" y="177"/>
			<point x="242" y="351" type="curve" smooth="yes"/>
			<point x="242" y="500"/>
			<point x="307" y="572"/>
			<point x="393" y="572" type="curve" smooth="yes"/>
			<point x="466" y="572"/>
			<point x="511" y="537"/>
			<point x="526" y="463" type="curve" smooth="yes"/>
			<point x="528" y="453" type="line"/>
			<point x="708" y="453" type="line"/>
			<point x="707" y="463" type="line" smooth="yes"/>
			<point x="693" y="599"/>
			<point x="592" y="704"/>
		</contour>
	</outline>
</glyph>
<glyph name="F" format="2">
	<advance width="615"/>
	<unicode hex="0046"/>
	<note>
		F
	</note>
	<outline>
		<contour>
			<point x="260" y="416" type="line"/>
			<point x="260" y="550" type="line"/>
			<point x="599" y="550" type="line"/>
			<point x="599" y="690" type="line"/>
			<point x="80" y="690" type="line"/>
			<point x="80" y="0" type="line"/>
			<point x="260" y="0" type="line"/>
			<point x="260" y="276" type="line"/>
			<point x="569" y="276" type="line"/>
			<point x="569" y="416" type="line"/>
		</contour>
	</outline>
</glyph>
<glyph name="P" format="2">
	<advance width="644"/>
	<unicode hex="0050"/>
	<note>
		P
	</note>
	<outline>
		<contour>
			<point x="448" y="685" type="curve" smooth="yes"/>
			<point x="411" y="689"/>
			<point x="383" y="690"/>
			<point x="340" y="690" type="curve" smooth="yes"/>
			<point x="80" y="690" type="line"/>
			<point x="80" y="0" type="line"/>
			<point x="260" y="0" type="line"/>
			<point x="260" y="242" type="line"/>
			<point x="340" y="242" type="line" smooth="yes"/>
			<point x="383" y="242"/>
			<point x="411" y="243"/>
			<point x="448" y="247" type="curve" smooth="yes"/>
			<point x="548" y="259"/>
			<point x="639" y="330"/>
			<point x="639" y="466" type="curve" smooth="yes"/>
			<point x="639" y="602"/>
			<point x="548" y="673"/>
		</contour>
		<contour>
			<point x="378" y="383" type="curve" smooth="yes"/>
			<point x="365" y="382"/>
			<point x="349" y="382"/>
			<point x="330" y="382" type="curve" smooth="yes"/>
			<point x="260" y="382" type="line"/>
			<point x="260" y="550" type="line"/>
			<point x="330" y="550" type="line" smooth="yes"/>
			<point x="349" y="550"/>
			<point x="365" y="550"/>
			<point x="378" y="549" type="curve" smooth="yes"/>
			<point x="424" y="545"/>
			<point x="451" y="518"/>
			<point x="451" y="466" type="curve" smooth="yes"/>
			<point x="451" y="414"/>
			<point x="424" y="387"/>
		</contour>
	</outline>
</glyph>
<glyph name="W" format="2">
	<advance width="1016"/>
	<unicode hex="0057"/>
	<note>
		W
	</note>
	<outline>
		<contour>
			<point x="853" y="0" type="line"/>
			<point x="1029" y="690" type="line"/>
			<point x="845" y="690" type="line"/>
			<point x="745" y="138" type="line"/>
			<point x="658" y="680" type="line"/>
			<point x="400" y="680" type="line"/>
			<point x="309" y="140" type="line"/>
			<point x="217" y="690" type="line"/>
			<point x="26" y="690" type="line"/>
			<point x="192" y="0" type="line"/>
			<point x="433" y="0" type="line"/>
			<point x="526" y="537" type="line"/>
			<point x="613" y="0" type="line"/>
		</contour>
	</outline>
</glyph>
<glyph name="X" format="2">
	<advance width="717"/>
	<unicode hex="0058"/>
	<note>
		X
	</note>
	<outline>
		<contour>
			<point x="365" y="233" type="line"/>
			<point x="510" y="0" type="line"/>
			<point x="720" y="0" type="line"/>
			<point x="477" y="351" type="line"/>
			<point x="718" y="690" type="line"/>
			<point x="511" y="690" type="line"/>
			<point x="371" y="460" type="line"/>
			<point x="241" y="690" type="line"/>
			<point x="31" y="690" type="line"/>
			<point x="261" y="348" type="line"/>
			<point x="14" y="0" type="line"/>
			<point x="231" y="0" type="line"/>
		</contour>
	</outline>
</glyph>
<glyph name="Y" format="2">
	<advance width="663"/>
	<unicode hex="0059"/>
	<note>
		Y
	</note>
	<outline>
		<contour>
			<point x="437" y="0" type="line"/>
			<point x="437" y="264" type="line"/>
			<point x="680" y="690" type="line"/>
			<point x="483" y="690" type="line"/>
			<point x="352" y="417" type="line"/>
			<point x="216" y="690" type="line"/>
			<point x="14" y="690" type="line"/>
			<point x="257" y="264" type="line"/>
			<point x="257" y="0" type="line"/>
		</contour>
	</outline>
</glyph>
<glyph name="Z" format="2">
	<advance width="648"/>
	<unicode hex="005A"/>
	<note>
		Z
	</note>
	<outline>
		<contour>
			<point x="618" y="0" type="line"/>
			<point x="618" y="140" type="line"/>
			<point x="276" y="140" type="line"/>
			<point x="614" y="551" type="line"/>
			<point x="614" y="690" type="line"/>
			<point x="81" y="690" type="line"/>
			<point x="81" y="550" type="line"/>
			<point x="394" y="550" type="line"/>
			<point x="53" y="136" type="line"/>
			<point x="53" y="0" type="line"/>
		</contour>
	</outline>
</glyph>
<glyph name="asciicircum" format="2">
	<advance width="662"/>
	<unicode hex="005E"/>
	<note>
		asciicircum
	</note>
	<outline>
		<contour>
			<point x="329" y="518" type="line"/>
			<point x="445" y="215" type="line"/>
			<point x="557" y="215" type="line"/>
			<point x="388" y="616" type="line"/>
			<point x="273" y="616" type="line"/>
			<point x="104" y="215" type="line"/>
			<point x="213" y="215" type="line"/>
		</contour>
	</outline>
</glyph>
<glyph name="c" format="2">
	<advance width="587"/>
	<unicode hex="0063"/>
	<note>
		c
	</note>
	<outline>
		<contour>
			<point x="305" y="548" type="curve" smooth="yes"/>
			<point x="148" y="548"/>
			<point x="24" y="445"/>
			<point x="24" y="261" type="curve" smooth="yes"/>
			<point x="24" y="85"/>
			<point x="140" y="-14"/>
			<point x="293" y="-14" type="curve" smooth="yes"/>
			<point x="438" y="-14"/>
			<point x="545" y="58"/>
			<point x="565" y="196" type="curve"/>
			<point x="388" y="196" type="line"/>
			<point x="378" y="138"/>
			<point x="344" y="108"/>
			<point x="303" y="108" type="curve" smooth="yes"/>
			<point x="242" y="108"/>
			<point x="208" y="158"/>
			<point x="208" y="272" type="curve" smooth="yes"/>
			<point x="208" y="375"/>
			<point x="241" y="426"/>
			<point x="301" y="426" type="curve" smooth="yes"/>
			<point x="346" y="426"/>
			<point x="381" y="400"/>
			<point x="389" y="330" type="curve"/>
			<point x="563" y="330" type="line"/>
			<point x="558" y="450"/>
			<point x="462" y="548"/>
		</contour>
	</outline>
</glyph>
<glyph name="d" format="2">
	<advance width="669"/>
	<unicode hex="0064"/>
	<note>
		d
	</note>
	<outline>
		<contour>
			<point x="615" y="0" type="line"/>
			<point x="615" y="735" type="line"/>
			<point x="435" y="735" type="line"/>
			<point x="435" y="465" type="line"/>
			<point x="400" y="522" type="line"/>
			<point x="373" y="538"/>
			<point x="321" y="548"/>
			<point x="277" y="548" type="curve" smooth="yes"/>
			<point x="140" y="548"/>
			<point x="24" y="445"/>
			<point x="24" y="255" type="curve" smooth="yes"/>
			<point x="24" y="97"/>
			<point x="114" y="-14"/>
			<point x="259" y="-14" type="curve" smooth="yes"/>
			<point x="313" y="-14"/>
			<point x="365" y="-3"/>
			<point x="395" y="19" type="curve"/>
			<point x="435" y="78" type="line"/>
			<point x="435" y="0" type="line"/>
		</contour>
		<contour>
			<point x="321" y="108" type="curve" smooth="yes"/>
			<point x="258" y="108"/>
			<point x="208" y="164"/>
			<point x="208" y="264" type="curve" smooth="yes"/>
			<point x="208" y="373"/>
			<point x="256" y="426"/>
			<point x="326" y="426" type="curve" smooth="yes"/>
			<point x="380" y="426"/>
			<point x="435" y="390"/>
			<point x="435" y="283" type="curve" smooth="yes"/>
			<point x="435" y="260" type="line" smooth="yes"/>
			<point x="435" y="148"/>
			<point x="387" y="108"/>
		</contour>
	</outline>
</glyph>
<glyph name="i" format="2">
	<advance width="288"/>
	<unicode hex="0069"/>
	<note>
		i
	</note>
	<outline>
		<contour>
			<point x="54" y="0" type="line"/>
			<point x="234" y="0" type="line"/>
			<point x="234" y="534" type="line"/>
			<point x="54" y="534" type="line"/>
		</contour>
		<contour>
			<point x="53" y="748" type="line"/>
			<point x="53" y="572" type="line"/>
			<point x="236" y="572" type="line"/>
			<point x="236" y="748" type="line"/>
		</contour>
	</outline>
</glyph>
<glyph name="j" format="2">
	<advance width="282"/>
	<unicode hex="006A"/>
	<note>
		j
	</note>
	<outline>
		<contour>
			<point x="232" y="16" type="curve" smooth="yes"/>
			<point x="232" y="534" type="line"/>
			<point x="52" y="534" type="line"/>
			<point x="52" y="15" type="line" smooth="yes"/>
			<point x="52" y="0"/>
			<point x="51" y="-19"/>
			<point x="50" y="-33" type="curve" smooth="yes"/>
			<point x="45" y="-80"/>
			<point x="15" y="-91"/>
			<point x="-50" y="-85" type="curve"/>
			<point x="-50" y="-206" type="line"/>
			<point x="-32" y="-209"/>
			<point x="-11" y="-210"/>
			<point x="10" y="-210" type="curve" smooth="yes"/>
			<point x="165" y="-210"/>
			<point x="223" y="-148"/>
			<point x="230" y="-48" type="curve" smooth="yes"/>
			<point x="231" y="-30"/>
			<point x="232" y="-4"/>
		</contour>
		<contour>
			<point x="52" y="750" type="line"/>
			<point x="52" y="575" type="line"/>
			<point x="232" y="575" type="line"/>
			<point x="232" y="750" type="line"/>
		</contour>
	</outline>
</glyph>
<glyph name="t" format="2">
	<advance width="400"/>
	<unicode hex="0074"/>
	<note>
		t
	</note>
	<outline>
		<contour>
			<point x="270" y="221" type="curve" smooth="yes"/>
			<point x="270" y="418" type="line"/>
			<point x="388" y="418" type="line"/>
			<point x="388" y="530" type="line"/>
			<point x="270" y="530" type="line"/>
			<point x="270" y="668" type="line"/>
			<point x="90" y="668" type="line"/>
			<point x="90" y="530" type="line"/>
			<point x="5" y="530" type="line"/>
			<point x="5" y="418" type="line"/>
			<point x="90" y="418" type="line"/>
			<point x="90" y="195" type="line" smooth="yes"/>
			<point x="90" y="165"/>
			<point x="90" y="140"/>
			<point x="92" y="109" type="curve" smooth="yes"/>
			<point x="98" y="27"/>
			<point x="138" y="-14"/>
			<point x="271" y="-14" type="curve" smooth="yes"/>
			<point x="309" y="-14"/>
			<point x="342" y="-11"/>
			<point x="377" y="-5" type="curve"/>
			<point x="377" y="107" type="line"/>
			<point x="292" y="103"/>
			<point x="275" y="115"/>
			<point x="271" y="169" type="curve" smooth="yes"/>
			<point x="270" y="183"/>
			<point x="270" y="203"/>
		</contour>
	</outline>
</glyph>
<glyph name="x" format="2">
	<advance width="590"/>
	<unicode hex="0078"/>
	<note>
		x
	</note>
	<outline>
		<contour>
			<point x="591" y="0" type="line"/>
			<point x="407" y="269" type="line"/>
			<point x="589" y="534" type="line"/>
			<point x="382" y="534" type="line"/>
			<point x="300" y="380" type="line"/>
			<point x="216" y="534" type="line"/>
			<point x="6" y="534" type="line"/>
			<point x="185" y="271" type="line"/>
			<point x="-1" y="0" type="line"/>
			<point x="206" y="0" type="line"/>
			<point x="296" y="161" type="line"/>
			<point x="381" y="0" type="line"/>
		</contour>
	</outline>
</glyph>
<glyph name="asciitilde" format="2">
	<advance width="662"/>
	<unicode hex="007E"/>
	<note>
		asciitilde
	</note>
	<outline>
		<contour>
			<point x="576" y="406" type="curve"/>
			<point x="480" y="406" type="line"/>
			<point x="480" y="349"/>
			<point x="465" y="330"/>
			<point x="435" y="330" type="curve" smooth="yes"/>
			<point x="412" y="330"/>
			<point x="390" y="341"/>
			<point x="345" y="365" type="curve" smooth="yes"/>
			<point x="297" y="390"/>
			<point x="264" y="406"/>
			<point x="219" y="406" type="curve" smooth="yes"/>
			<point x="134" y="406"/>
			<point x="87" y="349"/>
			<point x="87" y="223" type="curve"/>
			<point x="183" y="223" type="line"/>
			<point x="183" y="273"/>
			<point x="194" y="299"/>
			<point x="228" y="299" type="curve" smooth="yes"/>
			<point x="248" y="299"/>
			<point x="268" y="290"/>
			<point x="318" y="264" type="curve" smooth="yes"/>
			<point x="369" y="238"/>
			<point x="401" y="223"/>
			<point x="444" y="223" type="curve" smooth="yes"/>
			<point x="529" y="223"/>
			<point x="576" y="281"/>
		</contour>
	</outline>
</glyph>
<glyph name="exclamdown" format="2">
	<advance width="280"/>
	<unicode hex="00A1"/>
	<note>
		exclamdown
	</note>
	<outline>
		<contour>
			<point x="209" y="320" type="line"/>
			<point x="71" y="320" type="line"/>
			<point x="59" y="-160" type="line"/>
			<point x="221" y="-160" type="line"/>
		</contour>
		<contour>
			<point x="63" y="541" type="line"/>
			<point x="63" y="363" type="line"/>
			<point x="216" y="363" type="line"/>
			<point x="216" y="541" type="line"/>
		</contour>
	</outline>
</glyph>
<glyph name="cent" format="2">
	<advance width="662"/>
	<unicode hex="00A2"/>
	<note>
		cent
	</note>
	<outline>
		<contour>
			<point x="604" y="196" type="curve"/>
			<point x="447" y="196" type="line"/>
			<point x="441" y="159"/>
			<point x="416" y="133"/>
			<point x="388" y="119" type="curve"/>
			<point x="388" y="412" type="line"/>
			<point x="417" y="399"/>
			<point x="443" y="372"/>
			<point x="448" y="326" type="curve"/>
			<point x="602" y="326" type="line"/>
			<point x="597" y="434"/>
			<point x="519" y="525"/>
			<point x="388" y="541" type="curve"/>
			<point x="388" y="620" type="line"/>
			<point x="288" y="620" type="line"/>
			<point x="288" y="539" type="line"/>
			<point x="159" y="518"/>
			<point x="63" y="420"/>
			<point x="63" y="259" type="curve" smooth="yes"/>
			<point x="63" y="108"/>
			<point x="157" y="7"/>
			<point x="288" y="-11" type="curve"/>
			<point x="288" y="-90" type="line"/>
			<point x="388" y="-90" type="line"/>
			<point x="388" y="-10" type="line"/>
			<point x="504" y="6"/>
			<point x="587" y="76"/>
		</contour>
		<contour>
			<point x="227" y="270" type="curve" smooth="yes"/>
			<point x="227" y="341"/>
			<point x="252" y="387"/>
			<point x="288" y="408" type="curve"/>
			<point x="288" y="123" type="line"/>
			<point x="252" y="145"/>
			<point x="227" y="192"/>
		</contour>
	</outline>
</glyph>
<glyph name="yen" format="2">
	<advance width="662"/>
	<unicode hex="00A5"/>
	<note>
		yen
	</note>
	<outline>
		<contour>
			<point x="571" y="380" type="line"/>
			<point x="466" y="380" type="line"/>
			<point x="638" y="690" type="line"/>
			<point x="457" y="690" type="line"/>
			<point x="335" y="390" type="line"/>
			<point x="210" y="690" type="line"/>
			<point x="24" y="690" type="line"/>
			<point x="196" y="380" type="line"/>
			<point x="91" y="380" type="line"/>
			<point x="91" y="284" type="line"/>
			<point x="241" y="284" type="line"/>
			<point x="241" y="227" type="line"/>
			<point x="91" y="227" type="line"/>
			<point x="91" y="131" type="line"/>
			<point x="241" y="131" type="line"/>
			<point x="241" y="0" type="line"/>
			<point x="421" y="0" type="line"/>
			<point x="421" y="131" type="line"/>
			<point x="571" y="131" type="line"/>
			<point x="571" y="227" type="line"/>
			<point x="421" y="227" type="line"/>
			<point x="421" y="284" type="line"/>
			<point x="571" y="284" type="line"/>
		</contour>
	</outline>
</glyph>
<glyph name="section" format="2">
	<advance width="630"/>
	<unicode hex="00A7"/>
	<note>
		section
	</note>
	<outline>
		<contour>
			<point x="607" y="234" type="curve" smooth="yes"/>
			<point x="607" y="341"/>
			<point x="537" y="398"/>
			<point x="386" y="438" type="curve" smooth="yes"/>
			<point x="284" y="465"/>
			<point x="263" y="485"/>
			<point x="263" y="536" type="curve" smooth="yes"/>
			<point x="263" y="572"/>
			<point x="283" y="592"/>
			<point x="308" y="592" type="curve" smooth="yes"/>
			<point x="340" y="592"/>
			<point x="356" y="571"/>
			<point x="364" y="526" type="curve"/>
			<point x="541" y="526" type="line"/>
			<point x="527" y="631"/>
			<point x="451" y="704"/>
			<point x="318" y="704" type="curve" smooth="yes"/>
			<point x="176" y="704"/>
			<point x="83" y="621"/>
			<point x="83" y="505" type="curve" smooth="yes"/>
			<point x="83" y="481"/>
			<point x="88" y="460"/>
			<point x="98" y="441" type="curve"/>
			<point x="50" y="408"/>
			<point x="22" y="358"/>
			<point x="22" y="296" type="curve" smooth="yes"/>
			<point x="22" y="183"/>
			<point x="91" y="139"/>
			<point x="211" y="102" type="curve" smooth="yes"/>
			<point x="337" y="63"/>
			<point x="365" y="33"/>
			<point x="365" y="-9" type="curve" smooth="yes"/>
			<point x="365" y="-44"/>
			<point x="340" y="-62"/>
			<point x="308" y="-62" type="curve" smooth="yes"/>
			<point x="270" y="-62"/>
			<point x="238" y="-35"/>
			<point x="228" y="6" type="curve"/>
			<point x="51" y="6" type="line"/>
			<point x="65" y="-114"/>
			<point x="167" y="-174"/>
			<point x="306" y="-174" type="curve" smooth="yes"/>
			<point x="441" y="-174"/>
			<point x="545" y="-107"/>
			<point x="545" y="8" type="curve" smooth="yes"/>
			<point x="545" y="39"/>
			<point x="538" y="65"/>
			<point x="523" y="87" type="curve"/>
			<point x="574" y="117"/>
			<point x="607" y="166"/>
		</contour>
		<contour>
			<point x="303" y="214" type="curve" smooth="yes"/>
			<point x="235" y="237"/>
			<point x="202" y="259"/>
			<point x="202" y="302" type="curve" smooth="yes"/>
			<point x="202" y="322"/>
			<point x="207" y="337"/>
			<point x="217" y="347" type="curve"/>
			<point x="245" y="335"/>
			<point x="276" y="324"/>
			<point x="313" y="314" type="curve" smooth="yes"/>
			<point x="398" y="290"/>
			<point x="427" y="262"/>
			<point x="427" y="218" type="curve" smooth="yes"/>
			<point x="427" y="198"/>
			<point x="419" y="184"/>
			<point x="407" y="174" type="curve"/>
			<point x="377" y="188"/>
			<point x="342" y="201"/>
		</contour>
	</outline>
</glyph>
<glyph name="dieresis" format="2">
	<advance width="300"/>
	<unicode hex="00A8"/>
	<note>
		dieresis
	</note>
	<outline>
		<contour>
			<point x="-25" y="716" type="line"/>
			<point x="-25" y="569" type="line"/>
			<point x="125" y="569" type="line"/>
			<point x="125" y="716" type="line"/>
		</contour>
		<contour>
			<point x="176" y="569" type="line"/>
			<point x="326" y="569" type="line"/>
			<point x="326" y="716" type="line"/>
			<point x="176" y="716" type="line"/>
		</contour>
	</outline>
</glyph>
<glyph name="copyright" format="2">
	<advance width="860"/>
	<unicode hex="00A9"/>
	<note>
		copyright
	</note>
	<outline>
		<contour>
			<point x="430" y="759" type="curve" smooth="yes"/>
			<point x="188" y="759"/>
			<point x="16" y="592"/>
			<point x="16" y="355" type="curve" smooth="yes"/>
			<point x="16" y="118"/>
			<point x="188" y="-49"/>
			<point x="430" y="-49" type="curve" smooth="yes"/>
			<point x="672" y="-49"/>
			<point x="844" y="118"/>
			<point x="844" y="355" type="curve" smooth="yes"/>
			<point x="844" y="592"/>
			<point x="672" y="759"/>
		</contour>
		<contour>
			<point x="430" y="663" type="curve" smooth="yes"/>
			<point x="609" y="663"/>
			<point x="736" y="535"/>
			<point x="736" y="355" type="curve" smooth="yes"/>
			<point x="736" y="176"/>
			<point x="609" y="49"/>
			<point x="430" y="49" type="curve" smooth="yes"/>
			<point x="251" y="49"/>
			<point x="124" y="176"/>
			<point x="124" y="355" type="curve" smooth="yes"/>
			<point x="124" y="535"/>
			<point x="251" y="663"/>
		</contour>
		<contour>
			<point x="439" y="582" type="curve" smooth="yes"/>
			<point x="300" y="582"/>
			<point x="209" y="491"/>
			<point x="209" y="355" type="curve" smooth="yes"/>
			<point x="209" y="211"/>
			<point x="300" y="126"/>
			<point x="432" y="126" type="curve" smooth="yes"/>
			<point x="562" y="126"/>
			<point x="633" y="200"/>
			<point x="649" y="314" type="curve"/>
			<point x="502" y="314" type="line"/>
			<point x="499" y="251"/>
			<point x="470" y="228"/>
			<point x="437" y="228" type="curve" smooth="yes"/>
			<point x="390" y="228"/>
			<point x="363" y="266"/>
			<point x="363" y="356" type="curve" smooth="yes"/>
			<point x="363" y="434"/>
			<point x="381" y="480"/>
			<point x="433" y="480" type="curve" smooth="yes"/>
			<point x="477" y="480"/>
			<point x="499" y="448"/>
			<point x="503" y="394" type="curve"/>
			<point x="650" y="394" type="line"/>
			<point x="641" y="507"/>
			<point x="568" y="582"/>
		</contour>
	</outline>
</glyph>
<glyph name="guillemotleft" format="2">
	<advance width="697"/>
	<unicode hex="00AB"/>
	<note>
		guillemotleft
	</note>
	<outline>
		<contour>
			<point x="276" y="248" type="line"/>
			<point x="413" y="414" type="line"/>
			<point x="284" y="414" type="line"/>
			<point x="147" y="248" type="line"/>
			<point x="284" y="82" type="line"/>
			<point x="413" y="82" type="line"/>
		</contour>
		<contour>
			<point x="516" y="248" type="line"/>
			<point x="653" y="414" type="line"/>
			<point x="524" y="414" type="line"/>
			<point x="387" y="248" type="line"/>
			<point x="524" y="82" type="line"/>
			<point x="653" y="82" type="line"/>
		</contour>
	</outline>
</glyph>
<glyph name="logicalnot" format="2">
	<advance width="662"/>
	<unicode hex="00AC"/>
	<note>
		logicalnot
	</note>
	<outline>
		<contour>
			<point x="432" y="172" type="line"/>
			<point x="532" y="172" type="line"/>
			<point x="532" y="398" type="line"/>
			<point x="120" y="398" type="line"/>
			<point x="120" y="302" type="line"/>
			<point x="432" y="302" type="line"/>
		</contour>
	</outline>
</glyph>
<glyph name="plusminus" format="2">
	<advance width="662"/>
	<unicode hex="00B1"/>
	<note>
		plusminus
	</note>
	<outline>
		<contour>
			<point x="531" y="366" type="line"/>
			<point x="381" y="366" type="line"/>
			<point x="381" y="508" type="line"/>
			<point x="281" y="508" type="line"/>
			<point x="281" y="366" type="line"/>
			<point x="131" y="366" type="line"/>
			<point x="131" y="270" type="line"/>
			<point x="281" y="270" type="line"/>
			<point x="281" y="126" type="line"/>
			<point x="381" y="126" type="line"/>
			<point x="381" y="270" type="line"/>
			<point x="531" y="270" type="line"/>
		</contour>
		<contour>
			<point x="131" y="0" type="line"/>
			<point x="531" y="0" type="line"/>
			<point x="531" y="88" type="line"/>
			<point x="131" y="88" type="line"/>
		</contour>
	</outline>
</glyph>
<glyph name="acute" format="2">
	<advance width="300"/>
	<unicode hex="00B4"/>
	<note>
		acute
	</note>
	<outline>
		<contour>
			<point x="96" y="571" type="line"/>
			<point x="192" y="571" type="line"/>
			<point x="347" y="696" type="line"/>
			<point x="187" y="696" type="line"/>
		</contour>
	</outline>
</glyph>
<glyph name="periodcentered" format="2">
	<advance width="280"/>
	<unicode hex="00B7"/>
	<note>
		periodcentered
	</note>
	<outline>
		<contour>
			<point x="42" y="405" type="line"/>
			<point x="42" y="203" type="line"/>
			<point x="242" y="203" type="line"/>
			<point x="242" y="405" type="line"/>
		</contour>
	</outline>
</glyph>
<glyph name="cedilla" format="2">
	<advance width="300"/>
	<unicode hex="00B8"/>
	<note>
		cedilla
	</note>
	<outline>
		<contour>
			<point x="169" y="-42" type="curve"/>
			<point x="194" y="9" type="line"/>
			<point x="106" y="9" type="line"/>
			<point x="59" y="-88" type="line"/>
			<point x="134" y="-83"/>
			<point x="156" y="-94"/>
			<point x="156" y="-114" type="curve" smooth="yes"/>
			<point x="156" y="-132"/>
			<point x="139" y="-141"/>
			<point x="96" y="-141" type="curve" smooth="yes"/>
			<point x="83" y="-141"/>
			<point x="63" y="-140"/>
			<point x="38" y="-134" type="curve"/>
			<point x="38" y="-204" type="line"/>
			<point x="57" y="-209"/>
			<point x="75" y="-210"/>
			<point x="95" y="-210" type="curve" smooth="yes"/>
			<point x="187" y="-210"/>
			<point x="264" y="-188"/>
			<point x="264" y="-119" type="curve" smooth="yes"/>
			<point x="264" y="-74"/>
			<point x="232" y="-49"/>
		</contour>
	</outline>
</glyph>
<glyph name="Aacute" format="2">
	<advance width="707"/>
	<unicode hex="00C1"/>
	<note>
		Aacute
	</note>
	<outline>
		<contour>
			<point x="309" y="735" type="line"/>
			<point x="405" y="735" type="line"/>
			<point x="560" y="860" type="line"/>
			<point x="400" y="860" type="line"/>
		</contour>
		<contour>
			<point x="253" y="179" type="line"/>
			<point x="468" y="179" type="line"/>
			<point x="526" y="0" type="line"/>
			<point x="722" y="0" type="line"/>
			<point x="473" y="690" type="line"/>
			<point x="253" y="690" type="line"/>
			<point x="4" y="0" type="line"/>
			<point x="195" y="0" type="line"/>
		</contour>
		<contour>
			<point x="297" y="319" type="line"/>
			<point x="361" y="531" type="line"/>
			<point x="425" y="319" type="line"/>
		</contour>
	</outline>
</glyph>
<glyph name="Atilde" format="2">
	<advance width="707"/>
	<unicode hex="00C3"/>
	<note>
		Atilde
	</note>
	<outline>
		<contour>
			<point x="310" y="773" type="curve" smooth="yes"/>
			<point x="318" y="773"/>
			<point x="331" y="768"/>
			<point x="355" y="758" type="curve" smooth="yes"/>
			<point x="392" y="742"/>
			<point x="408" y="739"/>
			<point x="437" y="739" type="curve" smooth="yes"/>
			<point x="499" y="739"/>
			<point x="527" y="780"/>
			<point x="527" y="873" type="curve"/>
			<point x="431" y="873" type="line"/>
			<point x="431" y="851"/>
			<point x="427" y="842"/>
			<point x="416" y="842" type="curve" smooth="yes"/>
			<point x="408" y="842"/>
			<point x="395" y="846"/>
			<point x="371" y="857" type="curve" smooth="yes"/>
			<point x="335" y="873"/>
			<point x="318" y="876"/>
			<point x="289" y="876" type="curve" smooth="yes"/>
			<point x="227" y="876"/>
			<point x="199" y="835"/>
			<point x="199" y="742" type="curve"/>
			<point x="295" y="742" type="line"/>
			<point x="295" y="764"/>
			<point x="299" y="773"/>
		</contour>
		<contour>
			<point x="253" y="179" type="line"/>
			<point x="468" y="179" type="line"/>
			<point x="526" y="0" type="line"/>
			<point x="722" y="0" type="line"/>
			<point x="473" y="690" type="line"/>
			<point x="253" y="690" type="line"/>
			<point x="4" y="0" type="line"/>
			<point x="195" y="0" type="line"/>
		</contour>
		<contour>
			<point x="297" y="319" type="line"/>
			<point x="361" y="531" type="line"/>
			<point x="425" y="319" type="line"/>
		</contour>
	</outline>
</glyph>
<glyph name="Ccedilla" format="2">
	<advance width="734"/>
	<unicode hex="00C7"/>
	<note>
		Ccedilla
	</note>
	<outline>
		<contour>
			<point x="706" y="247" type="line"/>
			<point x="526" y="247" type="line"/>
			<point x="524" y="237" type="line" smooth="yes"/>
			<point x="509" y="161"/>
			<point x="464" y="118"/>
			<point x="394" y="118" type="curve" smooth="yes"/>
			<point x="314" y="118"/>
			<point x="242" y="177"/>
			<point x="242" y="351" type="curve" smooth="yes"/>
			<point x="242" y="500"/>
			<point x="307" y="572"/>
			<point x="393" y="572" type="curve" smooth="yes"/>
			<point x="466" y="572"/>
			<point x="511" y="537"/>
			<point x="526" y="463" type="curve" smooth="yes"/>
			<point x="528" y="453" type="line"/>
			<point x="708" y="453" type="line"/>
			<point x="707" y="463" type="line" smooth="yes"/>
			<point x="693" y="599"/>
			<point x="592" y="704"/>
			<point x="395" y="704" type="curve" smooth="yes"/>
			<point x="208" y="704"/>
			<point x="54" y="580"/>
			<point x="54" y="340" type="curve" smooth="yes"/>
			<point x="54" y="133"/>
			<point x="170" y="15"/>
			<point x="325" y="-9" type="curve"/>
			<point x="287" y="-88" type="line"/>
			<point x="362" y="-83"/>
			<point x="384" y="-94"/>
			<point x="384" y="-114" type="curve" smooth="yes"/>
			<point x="384" y="-132"/>
			<point x="367" y="-141"/>
			<point x="324" y="-141" type="curve" smooth="yes"/>
			<point x="311" y="-141"/>
			<point x="291" y="-140"/>
			<point x="266" y="-134" type="curve"/>
			<point x="266" y="-204" type="line"/>
			<point x="285" y="-209"/>
			<point x="303" y="-210"/>
			<point x="323" y="-210" type="curve" smooth="yes"/>
			<point x="415" y="-210"/>
			<point x="492" y="-188"/>
			<point x="492" y="-119" type="curve" smooth="yes"/>
			<point x="492" y="-74"/>
			<point x="460" y="-49"/>
			<point x="397" y="-42" type="curve"/>
			<point x="411" y="-13" type="line"/>
			<point x="572" y="-6"/>
			<point x="689" y="78"/>
			<point x="705" y="237" type="curve" smooth="yes"/>
		</contour>
	</outline>
</glyph>
<glyph name="Egrave" format="2">
	<advance width="639"/>
	<unicode hex="00C8"/>
	<note>
		Egrave
	</note>
	<outline>
		<contour>
			<point x="150" y="860" type="line"/>
			<point x="305" y="735" type="line"/>
			<point x="401" y="735" type="line"/>
			<point x="310" y="860" type="line"/>
		</contour>
		<contour>
			<point x="609" y="0" type="line"/>
			<point x="609" y="140" type="line"/>
			<point x="260" y="140" type="line"/>
			<point x="260" y="276" type="line"/>
			<point x="579" y="276" type="line"/>
			<point x="579" y="416" type="line"/>
			<point x="260" y="416" type="line"/>
			<point x="260" y="550" type="line"/>
			<point x="599" y="550" type="line"/>
			<point x="599" y="690" type="line"/>
			<point x="80" y="690" type="line"/>
			<point x="80" y="0" type="line"/>
		</contour>
	</outline>
</glyph>
<glyph name="Ecircumflex" format="2">
	<advance width="639"/>
	<unicode hex="00CA"/>
	<note>
		Ecircumflex
	</note>
	<outline>
		<contour>
			<point x="204" y="735" type="line"/>
			<point x="307" y="735" type="line"/>
			<point x="339" y="811" type="line"/>
			<point x="373" y="735" type="line"/>
			<point x="477" y="735" type="line"/>
			<point x="415" y="860" type="line"/>
			<point x="266" y="860" type="line"/>
		</contour>
		<contour>
			<point x="609" y="0" type="line"/>
			<point x="609" y="140" type="line"/>
			<point x="260" y="140" type="line"/>
			<point x="260" y="276" type="line"/>
			<point x="579" y="276" type="line"/>
			<point x="579" y="416" type="line"/>
			<point x="260" y="416" type="line"/>
			<point x="260" y="550" type="line"/>
			<point x="599" y="550" type="line"/>
			<point x="599" y="690" type="line"/>
			<point x="80" y="690" type="line"/>
			<point x="80" y="0" type="line"/>
		</contour>
	</outline>
</glyph>
<glyph name="Edieresis" format="2">
	<advance width="639"/>
	<unicode hex="00CB"/>
	<note>
		Edieresis
	</note>
	<outline>
		<contour>
			<point x="609" y="0" type="line"/>
			<point x="609" y="140" type="line"/>
			<point x="260" y="140" type="line"/>
			<point x="260" y="276" type="line"/>
			<point x="579" y="276" type="line"/>
			<point x="579" y="416" type="line"/>
			<point x="260" y="416" type="line"/>
			<point x="260" y="550" type="line"/>
			<point x="599" y="550" type="line"/>
			<point x="599" y="690" type="line"/>
			<point x="80" y="690" type="line"/>
			<point x="80" y="0" type="line"/>
		</contour>
		<contour>
			<point x="164" y="869" type="line"/>
			<point x="164" y="722" type="line"/>
			<point x="314" y="722" type="line"/>
			<point x="314" y="869" type="line"/>
		</contour>
		<contour>
			<point x="365" y="869" type="line"/>
			<point x="365" y="722" type="line"/>
			<point x="515" y="722" type="line"/>
			<point x="515" y="869" type="line"/>
		</contour>
	</outline>
</glyph>
<glyph name="Igrave" format="2">
	<advance width="314"/>
	<unicode hex="00CC"/>
	<note>
		Igrave
	</note>
	<outline>
		<contour>
			<point x="135" y="735" type="line"/>
			<point x="231" y="735" type="line"/>
			<point x="140" y="860" type="line"/>
			<point x="-20" y="860" type="line"/>
		</contour>
		<contour>
			<point x="80" y="0" type="line"/>
			<point x="260" y="0" type="line"/>
			<point x="260" y="690" type="line"/>
			<point x="80" y="690" type="line"/>
		</contour>
	</outline>
</glyph>
<glyph name="Ntilde" format="2">
	<advance width="794"/>
	<unicode hex="00D1"/>
	<note>
		Ntilde
	</note>
	<outline>
		<contour>
			<point x="331" y="876" type="curve" smooth="yes"/>
			<point x="269" y="876"/>
			<point x="241" y="835"/>
			<point x="241" y="742" type="curve"/>
			<point x="337" y="742" type="line"/>
			<point x="337" y="764"/>
			<point x="341" y="773"/>
			<point x="352" y="773" type="curve" smooth="yes"/>
			<point x="360" y="773"/>
			<point x="373" y="768"/>
			<point x="397" y="758" type="curve" smooth="yes"/>
			<point x="434" y="742"/>
			<point x="450" y="739"/>
			<point x="479" y="739" type="curve" smooth="yes"/>
			<point x="541" y="739"/>
			<point x="569" y="780"/>
			<point x="569" y="873" type="curve"/>
			<point x="473" y="873" type="line"/>
			<point x="473" y="851"/>
			<point x="469" y="842"/>
			<point x="458" y="842" type="curve" smooth="yes"/>
			<point x="450" y="842"/>
			<point x="437" y="846"/>
			<point x="413" y="857" type="curve" smooth="yes"/>
			<point x="377" y="873"/>
			<point x="360" y="876"/>
		</contour>
		<contour>
			<point x="505" y="0" type="line"/>
			<point x="740" y="0" type="line"/>
			<point x="740" y="690" type="line"/>
			<point x="560" y="690" type="line"/>
			<point x="560" y="395" type="line" smooth="yes"/>
			<point x="560" y="355"/>
			<point x="561" y="284"/>
			<point x="566" y="214" type="curve"/>
			<point x="304" y="690" type="line"/>
			<point x="80" y="690" type="line"/>
			<point x="80" y="0" type="line"/>
			<point x="260" y="0" type="line"/>
			<point x="260" y="285" type="line" smooth="yes"/>
			<point x="260" y="325"/>
			<point x="260" y="386"/>
			<point x="254" y="456" type="curve"/>
		</contour>
	</outline>
</glyph>
<glyph name="Otilde" format="2">
	<advance width="788"/>
	<unicode hex="00D5"/>
	<note>
		Otilde
	</note>
	<outline>
		<contour>
			<point x="354" y="773" type="curve" smooth="yes"/>
			<point x="362" y="773"/>
			<point x="375" y="768"/>
			<point x="399" y="758" type="curve" smooth="yes"/>
			<point x="436" y="742"/>
			<point x="452" y="739"/>
			<point x="481" y="739" type="curve" smooth="yes"/>
			<point x="543" y="739"/>
			<point x="571" y="780"/>
			<point x="571" y="873" type="curve"/>
			<point x="475" y="873" type="line"/>
			<point x="475" y="851"/>
			<point x="471" y="842"/>
			<point x="460" y="842" type="curve" smooth="yes"/>
			<point x="452" y="842"/>
			<point x="439" y="846"/>
			<point x="415" y="857" type="curve" smooth="yes"/>
			<point x="379" y="873"/>
			<point x="362" y="876"/>
			<point x="333" y="876" type="curve" smooth="yes"/>
			<point x="271" y="876"/>
			<point x="243" y="835"/>
			<point x="243" y="742" type="curve"/>
			<point x="339" y="742" type="line"/>
			<point x="339" y="764"/>
			<point x="343" y="773"/>
		</contour>
		<contour>
			<point x="407" y="704" type="curve" smooth="yes"/>
			<point x="192" y="704"/>
			<point x="54" y="567"/>
			<point x="54" y="345" type="curve" smooth="yes"/>
			<point x="54" y="124"/>
			<point x="192" y="-14"/>
			<point x="407" y="-14" type="curve" smooth="yes"/>
			<point x="622" y="-14"/>
			<point x="760" y="124"/>
			<point x="760" y="345" type="curve" smooth="yes"/>
			<point x="760" y="567"/>
			<point x="622" y="704"/>
		</contour>
		<contour>
			<point x="407" y="118" type="curve" smooth="yes"/>
			<point x="303" y="118"/>
			<point x="238" y="199"/>
			<point x="238" y="345" type="curve" smooth="yes"/>
			<point x="238" y="492"/>
			<point x="303" y="572"/>
			<point x="407" y="572" type="curve" smooth="yes"/>
			<point x="511" y="572"/>
			<point x="576" y="492"/>
			<point x="576" y="345" type="curve" smooth="yes"/>
			<point x="576" y="199"/>
			<point x="511" y="118"/>
		</contour>
	</outline>
</glyph>
<glyph name="multiply" format="2">
	<advance width="662"/>
	<unicode hex="00D7"/>
	<note>
		multiply
	</note>
	<outline>
		<contour>
			<point x="555" y="175" type="line"/>
			<point x="401" y="329" type="line"/>
			<point x="555" y="483" type="line"/>
			<point x="485" y="553" type="line"/>
			<point x="331" y="399" type="line"/>
			<point x="177" y="553" type="line"/>
			<point x="107" y="483" type="line"/>
			<point x="261" y="329" type="line"/>
			<point x="107" y="175" type="line"/>
			<point x="177" y="105" type="line"/>
			<point x="331" y="259" type="line"/>
			<point x="485" y="105" type="line"/>
		</contour>
	</outline>
</glyph>
<glyph name="Oslash" format="2">
	<advance width="790"/>
	<unicode hex="00D8"/>
	<note>
		Oslash
	</note>
	<outline>
		<contour>
			<point x="699" y="566" type="curve"/>
			<point x="766" y="633" type="line"/>
			<point x="696" y="703" type="line"/>
			<point x="631" y="638" type="line"/>
			<point x="572" y="681"/>
			<point x="497" y="704"/>
			<point x="408" y="704" type="curve" smooth="yes"/>
			<point x="193" y="704"/>
			<point x="55" y="567"/>
			<point x="55" y="345" type="curve" smooth="yes"/>
			<point x="55" y="257"/>
			<point x="77" y="182"/>
			<point x="117" y="124" type="curve"/>
			<point x="50" y="57" type="line"/>
			<point x="120" y="-13" type="line"/>
			<point x="186" y="53" type="line"/>
			<point x="244" y="9"/>
			<point x="319" y="-14"/>
			<point x="408" y="-14" type="curve" smooth="yes"/>
			<point x="623" y="-14"/>
			<point x="761" y="124"/>
			<point x="761" y="345" type="curve" smooth="yes"/>
			<point x="761" y="433"/>
			<point x="739" y="508"/>
		</contour>
		<contour>
			<point x="239" y="345" type="curve" smooth="yes"/>
			<point x="239" y="492"/>
			<point x="304" y="572"/>
			<point x="408" y="572" type="curve" smooth="yes"/>
			<point x="454" y="572"/>
			<point x="492" y="557"/>
			<point x="520" y="527" type="curve"/>
			<point x="249" y="256" type="line"/>
			<point x="242" y="282"/>
			<point x="239" y="312"/>
		</contour>
		<contour>
			<point x="577" y="345" type="curve" smooth="yes"/>
			<point x="577" y="199"/>
			<point x="512" y="118"/>
			<point x="408" y="118" type="curve" smooth="yes"/>
			<point x="362" y="118"/>
			<point x="324" y="133"/>
			<point x="296" y="163" type="curve"/>
			<point x="567" y="434" type="line"/>
			<point x="574" y="408"/>
			<point x="577" y="378"/>
		</contour>
	</outline>
</glyph>
<glyph name="Yacute" format="2">
	<advance width="663"/>
	<unicode hex="00DD"/>
	<note>
		Yacute
	</note>
	<outline>
		<contour>
			<point x="293" y="735" type="line"/>
			<point x="389" y="735" type="line"/>
			<point x="544" y="860" type="line"/>
			<point x="384" y="860" type="line"/>
		</contour>
		<contour>
			<point x="437" y="0" type="line"/>
			<point x="437" y="264" type="line"/>
			<point x="680" y="690" type="line"/>
			<point x="483" y="690" type="line"/>
			<point x="352" y="417" type="line"/>
			<point x="216" y="690" type="line"/>
			<point x="14" y="690" type="line"/>
			<point x="257" y="264" type="line"/>
			<point x="257" y="0" type="line"/>
		</contour>
	</outline>
</glyph>
<glyph name="Thorn" format="2">
	<advance width="653"/>
	<unicode hex="00DE"/>
	<note>
		Thorn
	</note>
	<outline>
		<contour>
			<point x="457" y="597" type="curve" smooth="yes"/>
			<point x="420" y="601"/>
			<point x="392" y="602"/>
			<point x="349" y="602" type="curve" smooth="yes"/>
			<point x="260" y="602" type="line"/>
			<point x="260" y="690" type="line"/>
			<point x="80" y="690" type="line"/>
			<point x="80" y="0" type="line"/>
			<point x="260" y="0" type="line"/>
			<point x="260" y="174" type="line"/>
			<point x="349" y="174" type="line" smooth="yes"/>
			<point x="392" y="174"/>
			<point x="420" y="175"/>
			<point x="457" y="179" type="curve" smooth="yes"/>
			<point x="557" y="191"/>
			<point x="639" y="255"/>
			<point x="639" y="388" type="curve" smooth="yes"/>
			<point x="639" y="521"/>
			<point x="557" y="585"/>
		</contour>
		<contour>
			<point x="378" y="315" type="curve" smooth="yes"/>
			<point x="365" y="314"/>
			<point x="349" y="314"/>
			<point x="330" y="314" type="curve" smooth="yes"/>
			<point x="260" y="314" type="line"/>
			<point x="260" y="462" type="line"/>
			<point x="330" y="462" type="line" smooth="yes"/>
			<point x="349" y="462"/>
			<point x="365" y="462"/>
			<point x="378" y="461" type="curve" smooth="yes"/>
			<point x="424" y="457"/>
			<point x="451" y="435"/>
			<point x="451" y="388" type="curve" smooth="yes"/>
			<point x="451" y="341"/>
			<point x="424" y="319"/>
		</contour>
	</outline>
</glyph>
<glyph name="germandbls" format="2">
	<advance width="666"/>
	<unicode hex="00DF"/>
	<note>
		germandbls
	</note>
	<outline>
		<contour>
			<point x="335" y="754" type="curve" smooth="yes"/>
			<point x="166" y="754"/>
			<point x="65" y="671"/>
			<point x="56" y="534" type="curve" smooth="yes"/>
			<point x="55" y="516"/>
			<point x="54" y="490"/>
			<point x="54" y="430" type="curve" smooth="yes"/>
			<point x="54" y="0" type="line"/>
			<point x="234" y="0" type="line"/>
			<point x="234" y="438" type="line" smooth="yes"/>
			<point x="234" y="499"/>
			<point x="235" y="518"/>
			<point x="236" y="532" type="curve" smooth="yes"/>
			<point x="240" y="588"/>
			<point x="270" y="622"/>
			<point x="329" y="622" type="curve" smooth="yes"/>
			<point x="386" y="622"/>
			<point x="413" y="599"/>
			<point x="413" y="558" type="curve" smooth="yes"/>
			<point x="413" y="542"/>
			<point x="410" y="527"/>
			<point x="400" y="514" type="curve"/>
			<point x="353" y="484"/>
			<point x="332" y="448"/>
			<point x="332" y="398" type="curve" smooth="yes"/>
			<point x="332" y="341"/>
			<point x="356" y="311"/>
			<point x="408" y="257" type="curve" smooth="yes"/>
			<point x="438" y="226"/>
			<point x="452" y="202"/>
			<point x="452" y="175" type="curve" smooth="yes"/>
			<point x="452" y="145"/>
			<point x="432" y="128"/>
			<point x="396" y="128" type="curve" smooth="yes"/>
			<point x="374" y="128"/>
			<point x="346" y="130"/>
			<point x="302" y="141" type="curve"/>
			<point x="302" y="6" type="line"/>
			<point x="341" y="-2"/>
			<point x="367" y="-4"/>
			<point x="440" y="-4" type="curve" smooth="yes"/>
			<point x="543" y="-4"/>
			<point x="640" y="46"/>
			<point x="640" y="152" type="curve" smooth="yes"/>
			<point x="640" y="228"/>
			<point x="620" y="257"/>
			<point x="568" y="312" type="curve" smooth="yes"/>
			<point x="535" y="347"/>
			<point x="520" y="371"/>
			<point x="520" y="398" type="curve" smooth="yes"/>
			<point x="520" y="430"/>
			<point x="535" y="453"/>
			<point x="575" y="476" type="curve"/>
			<point x="592" y="501"/>
			<point x="601" y="525"/>
			<point x="601" y="560" type="curve" smooth="yes"/>
			<point x="601" y="675"/>
			<point x="504" y="754"/>
		</contour>
	</outline>
</glyph>
<glyph name="atilde" format="2">
	<advance width="587"/>
	<unicode hex="00E3"/>
	<note>
		atilde
	</note>
	<outline>
		<contour>
			<point x="240" y="605" type="curve" smooth="yes"/>
			<point x="248" y="605"/>
			<point x="261" y="600"/>
			<point x="285" y="590" type="curve" smooth="yes"/>
			<point x="322" y="574"/>
			<point x="338" y="571"/>
			<point x="367" y="571" type="curve" smooth="yes"/>
			<point x="429" y="571"/>
			<point x="457" y="612"/>
			<point x="457" y="705" type="curve"/>
			<point x="361" y="705" type="line"/>
			<point x="361" y="683"/>
			<point x="357" y="674"/>
			<point x="346" y="674" type="curve" smooth="yes"/>
			<point x="338" y="674"/>
			<point x="325" y="678"/>
			<point x="301" y="689" type="curve" smooth="yes"/>
			<point x="265" y="705"/>
			<point x="248" y="708"/>
			<point x="219" y="708" type="curve" smooth="yes"/>
			<point x="157" y="708"/>
			<point x="129" y="667"/>
			<point x="129" y="574" type="curve"/>
			<point x="225" y="574" type="line"/>
			<point x="225" y="596"/>
			<point x="229" y="605"/>
		</contour>
		<contour>
			<point x="355" y="78" type="line"/>
			<point x="367" y="0" type="line"/>
			<point x="543" y="0" type="line"/>
			<point x="535" y="59"/>
			<point x="533" y="95"/>
			<point x="533" y="135" type="curve" smooth="yes"/>
			<point x="533" y="285" type="line" smooth="yes"/>
			<point x="533" y="318"/>
			<point x="532" y="349"/>
			<point x="530" y="376" type="curve" smooth="yes"/>
			<point x="522" y="473"/>
			<point x="464" y="548"/>
			<point x="295" y="548" type="curve" smooth="yes"/>
			<point x="160" y="548"/>
			<point x="49" y="477"/>
			<point x="48" y="352" type="curve"/>
			<point x="218" y="353" type="line"/>
			<point x="221" y="399"/>
			<point x="245" y="426"/>
			<point x="287" y="426" type="curve" smooth="yes"/>
			<point x="326" y="426"/>
			<point x="348" y="402"/>
			<point x="351" y="375" type="curve" smooth="yes"/>
			<point x="353" y="358"/>
			<point x="353" y="347"/>
			<point x="353" y="336" type="curve" smooth="yes"/>
			<point x="353" y="328" type="line"/>
			<point x="319" y="328" type="line" smooth="yes"/>
			<point x="138" y="328"/>
			<point x="30" y="258"/>
			<point x="30" y="144" type="curve" smooth="yes"/>
			<point x="30" y="41"/>
			<point x="113" y="-14"/>
			<point x="201" y="-14" type="curve" smooth="yes"/>
			<point x="250" y="-14"/>
			<point x="295" y="-2"/>
			<point x="333" y="22" type="curve"/>
		</contour>
		<contour>
			<point x="275" y="108" type="curve" smooth="yes"/>
			<point x="239" y="108"/>
			<point x="214" y="126"/>
			<point x="214" y="158" type="curve" smooth="yes"/>
			<point x="214" y="211"/>
			<point x="272" y="232"/>
			<point x="353" y="226" type="curve"/>
			<point x="353" y="191" type="line" smooth="yes"/>
			<point x="353" y="135"/>
			<point x="311" y="108"/>
		</contour>
	</outline>
</glyph>
<glyph name="aring" format="2">
	<advance width="587"/>
	<unicode hex="00E5"/>
	<note>
		aring
	</note>
	<outline>
		<contour>
			<point x="293" y="567" type="curve" smooth="yes"/>
			<point x="363" y="567"/>
			<point x="412" y="610"/>
			<point x="412" y="674" type="curve" smooth="yes"/>
			<point x="412" y="738"/>
			<point x="363" y="781"/>
			<point x="293" y="781" type="curve" smooth="yes"/>
			<point x="223" y="781"/>
			<point x="174" y="738"/>
			<point x="174" y="674" type="curve" smooth="yes"/>
			<point x="174" y="610"/>
			<point x="223" y="567"/>
		</contour>
		<contour>
			<point x="293" y="715" type="curve" smooth="yes"/>
			<point x="314" y="715"/>
			<point x="329" y="700"/>
			<point x="329" y="674" type="curve" smooth="yes"/>
			<point x="329" y="648"/>
			<point x="314" y="633"/>
			<point x="293" y="633" type="curve" smooth="yes"/>
			<point x="272" y="633"/>
			<point x="257" y="648"/>
			<point x="257" y="674" type="curve" smooth="yes"/>
			<point x="257" y="700"/>
			<point x="272" y="715"/>
		</contour>
		<contour>
			<point x="355" y="78" type="line"/>
			<point x="367" y="0" type="line"/>
			<point x="543" y="0" type="line"/>
			<point x="535" y="59"/>
			<point x="533" y="95"/>
			<point x="533" y="135" type="curve" smooth="yes"/>
			<point x="533" y="285" type="line" smooth="yes"/>
			<point x="533" y="318"/>
			<point x="532" y="349"/>
			<point x="530" y="376" type="curve" smooth="yes"/>
			<point x="522" y="473"/>
			<point x="464" y="548"/>
			<point x="295" y="548" type="curve" smooth="yes"/>
			<point x="160" y="548"/>
			<point x="49" y="477"/>
			<point x="48" y="352" type="curve"/>
			<point x="218" y="353" type="line"/>
			<point x="221" y="399"/>
			<point x="245" y="426"/>
			<point x="287" y="426" type="curve" smooth="yes"/>
			<point x="326" y="426"/>
			<point x="348" y="402"/>
			<point x="351" y="375" type="curve" smooth="yes"/>
			<point x="353" y="358"/>
			<point x="353" y="347"/>
			<point x="353" y="336" type="curve" smooth="yes"/>
			<point x="353" y="328" type="line"/>
			<point x="319" y="328" type="line" smooth="yes"/>
			<point x="138" y="328"/>
			<point x="30" y="258"/>
			<point x="30" y="144" type="curve" smooth="yes"/>
			<point x="30" y="41"/>
			<point x="113" y="-14"/>
			<point x="201" y="-14" type="curve" smooth="yes"/>
			<point x="250" y="-14"/>
			<point x="295" y="-2"/>
			<point x="333" y="22" type="curve"/>
		</contour>
		<contour>
			<point x="275" y="108" type="curve" smooth="yes"/>
			<point x="239" y="108"/>
			<point x="214" y="126"/>
			<point x="214" y="158" type="curve" smooth="yes"/>
			<point x="214" y="211"/>
			<point x="272" y="232"/>
			<point x="353" y="226" type="curve"/>
			<point x="353" y="191" type="line" smooth="yes"/>
			<point x="353" y="135"/>
			<point x="311" y="108"/>
		</contour>
	</outline>
</glyph>
<glyph name="ccedilla" format="2">
	<advance width="587"/>
	<unicode hex="00E7"/>
	<note>
		ccedilla
	</note>
	<outline>
		<contour>
			<point x="565" y="196" type="curve"/>
			<point x="388" y="196" type="line"/>
			<point x="378" y="138"/>
			<point x="344" y="108"/>
			<point x="303" y="108" type="curve" smooth="yes"/>
			<point x="242" y="108"/>
			<point x="208" y="158"/>
			<point x="208" y="272" type="curve" smooth="yes"/>
			<point x="208" y="375"/>
			<point x="241" y="426"/>
			<point x="301" y="426" type="curve" smooth="yes"/>
			<point x="346" y="426"/>
			<point x="381" y="400"/>
			<point x="389" y="330" type="curve"/>
			<point x="563" y="330" type="line"/>
			<point x="558" y="450"/>
			<point x="462" y="548"/>
			<point x="305" y="548" type="curve" smooth="yes"/>
			<point x="148" y="548"/>
			<point x="24" y="445"/>
			<point x="24" y="261" type="curve" smooth="yes"/>
			<point x="24" y="106"/>
			<point x="114" y="11"/>
			<point x="240" y="-10" type="curve"/>
			<point x="202" y="-88" type="line"/>
			<point x="277" y="-83"/>
			<point x="299" y="-94"/>
			<point x="299" y="-114" type="curve" smooth="yes"/>
			<point x="299" y="-132"/>
			<point x="282" y="-141"/>
			<point x="239" y="-141" type="curve" smooth="yes"/>
			<point x="226" y="-141"/>
			<point x="206" y="-140"/>
			<point x="181" y="-134" type="curve"/>
			<point x="181" y="-204" type="line"/>
			<point x="200" y="-209"/>
			<point x="218" y="-210"/>
			<point x="238" y="-210" type="curve" smooth="yes"/>
			<point x="330" y="-210"/>
			<point x="407" y="-188"/>
			<point x="407" y="-119" type="curve" smooth="yes"/>
			<point x="407" y="-74"/>
			<point x="375" y="-49"/>
			<point x="312" y="-42" type="curve"/>
			<point x="326" y="-13" type="line"/>
			<point x="454" y="-2"/>
			<point x="547" y="69"/>
		</contour>
	</outline>
</glyph>
<glyph name="igrave" format="2">
	<advance width="288"/>
	<unicode hex="00EC"/>
	<note>
		igrave
	</note>
	<outline>
		<contour>
			<point x="117" y="571" type="line"/>
			<point x="213" y="571" type="line"/>
			<point x="122" y="696" type="line"/>
			<point x="-38" y="696" type="line"/>
		</contour>
		<contour>
			<point x="54" y="0" type="line"/>
			<point x="234" y="0" type="line"/>
			<point x="234" y="534" type="line"/>
			<point x="54" y="534" type="line"/>
		</contour>
	</outline>
</glyph>
<glyph name="iacute" format="2">
	<advance width="288"/>
	<unicode hex="00ED"/>
	<note>
		iacute
	</note>
	<outline>
		<contour>
			<point x="90" y="571" type="line"/>
			<point x="186" y="571" type="line"/>
			<point x="341" y="696" type="line"/>
			<point x="181" y="696" type="line"/>
		</contour>
		<contour>
			<point x="54" y="0" type="line"/>
			<point x="234" y="0" type="line"/>
			<point x="234" y="534" type="line"/>
			<point x="54" y="534" type="line"/>
		</contour>
	</outline>
</glyph>
<glyph name="idieresis" format="2">
	<advance width="288"/>
	<unicode hex="00EF"/>
	<note>
		idieresis
	</note>
	<outline>
		<contour>
			<point x="54" y="0" type="line"/>
			<point x="234" y="0" type="line"/>
			<point x="234" y="534" type="line"/>
			<point x="54" y="534" type="line"/>
		</contour>
		<contour>
			<point x="-29" y="716" type="line"/>
			<point x="-29" y="569" type="line"/>
			<point x="121" y="569" type="line"/>
			<point x="121" y="716" type="line"/>
		</contour>
		<contour>
			<point x="172" y="716" type="line"/>
			<point x="172" y="569" type="line"/>
			<point x="322" y="569" type="line"/>
			<point x="322" y="716" type="line"/>
		</contour>
	</outline>
</glyph>
<glyph name="eth" format="2">
	<advance width="662"/>
	<unicode hex="00F0"/>
	<note>
		eth
	</note>
	<outline>
		<contour>
			<point x="551" y="615" type="curve"/>
			<point x="593" y="623" type="line"/>
			<point x="581" y="696" type="line"/>
			<point x="495" y="680" type="line"/>
			<point x="466" y="705"/>
			<point x="431" y="727"/>
			<point x="391" y="745" type="curve"/>
			<point x="236" y="679" type="line"/>
			<point x="261" y="668"/>
			<point x="283" y="657"/>
			<point x="302" y="644" type="curve"/>
			<point x="237" y="632" type="line"/>
			<point x="249" y="559" type="line"/>
			<point x="373" y="582" type="line"/>
			<point x="402" y="546"/>
			<point x="418" y="506"/>
			<point x="423" y="465" type="curve"/>
			<point x="380" y="519" type="line"/>
			<point x="343" y="541"/>
			<point x="317" y="548"/>
			<point x="288" y="548" type="curve" smooth="yes"/>
			<point x="141" y="548"/>
			<point x="24" y="450"/>
			<point x="24" y="267" type="curve" smooth="yes"/>
			<point x="24" y="102"/>
			<point x="123" y="-14"/>
			<point x="327" y="-14" type="curve" smooth="yes"/>
			<point x="464" y="-14"/>
			<point x="619" y="67"/>
			<point x="619" y="307" type="curve" smooth="yes"/>
			<point x="619" y="447"/>
			<point x="597" y="544"/>
		</contour>
		<contour>
			<point x="435" y="289" type="curve" smooth="yes"/>
			<point x="435" y="260" type="line" smooth="yes"/>
			<point x="435" y="178"/>
			<point x="403" y="118"/>
			<point x="327" y="118" type="curve" smooth="yes"/>
			<point x="256" y="118"/>
			<point x="212" y="163"/>
			<point x="212" y="267" type="curve" smooth="yes"/>
			<point x="212" y="359"/>
			<point x="250" y="416"/>
			<point x="328" y="416" type="curve" smooth="yes"/>
			<point x="394" y="416"/>
			<point x="435" y="364"/>
		</contour>
	</outline>
</glyph>
<glyph name="ntilde" format="2">
	<advance width="644"/>
	<unicode hex="00F1"/>
	<note>
		ntilde
	</note>
	<outline>
		<contour>
			<point x="268" y="605" type="curve" smooth="yes"/>
			<point x="276" y="605"/>
			<point x="289" y="600"/>
			<point x="313" y="590" type="curve" smooth="yes"/>
			<point x="350" y="574"/>
			<point x="366" y="571"/>
			<point x="395" y="571" type="curve" smooth="yes"/>
			<point x="457" y="571"/>
			<point x="485" y="612"/>
			<point x="485" y="705" type="curve"/>
			<point x="389" y="705" type="line"/>
			<point x="389" y="683"/>
			<point x="385" y="674"/>
			<point x="374" y="674" type="curve" smooth="yes"/>
			<point x="366" y="674"/>
			<point x="353" y="678"/>
			<point x="329" y="689" type="curve" smooth="yes"/>
			<point x="293" y="705"/>
			<point x="276" y="708"/>
			<point x="247" y="708" type="curve" smooth="yes"/>
			<point x="185" y="708"/>
			<point x="157" y="667"/>
			<point x="157" y="574" type="curve"/>
			<point x="253" y="574" type="line"/>
			<point x="253" y="596"/>
			<point x="257" y="605"/>
		</contour>
		<contour>
			<point x="591" y="403" type="curve" smooth="yes"/>
			<point x="577" y="496"/>
			<point x="512" y="548"/>
			<point x="402" y="548" type="curve" smooth="yes"/>
			<point x="353" y="548"/>
			<point x="315" y="537"/>
			<point x="282" y="517" type="curve"/>
			<point x="234" y="451" type="line"/>
			<point x="234" y="534" type="line"/>
			<point x="54" y="534" type="line"/>
			<point x="54" y="0" type="line"/>
			<point x="234" y="0" type="line"/>
			<point x="234" y="252" type="line" smooth="yes"/>
			<point x="234" y="373"/>
			<point x="273" y="426"/>
			<point x="328" y="426" type="curve" smooth="yes"/>
			<point x="382" y="426"/>
			<point x="410" y="396"/>
			<point x="414" y="345" type="curve" smooth="yes"/>
			<point x="416" y="318"/>
			<point x="416" y="289"/>
			<point x="416" y="272" type="curve" smooth="yes"/>
			<point x="416" y="0" type="line"/>
			<point x="596" y="0" type="line"/>
			<point x="596" y="302" type="line" smooth="yes"/>
			<point x="596" y="345"/>
			<point x="595" y="376"/>
		</contour>
	</outline>
</glyph>
<glyph name="oacute" format="2">
	<advance width="622"/>
	<unicode hex="00F3"/>
	<note>
		oacute
	</note>
	<outline>
		<contour>
			<point x="257" y="571" type="line"/>
			<point x="353" y="571" type="line"/>
			<point x="508" y="696" type="line"/>
			<point x="348" y="696" type="line"/>
		</contour>
		<contour>
			<point x="311" y="548" type="curve" smooth="yes"/>
			<point x="136" y="548"/>
			<point x="24" y="439"/>
			<point x="24" y="267" type="curve" smooth="yes"/>
			<point x="24" y="96"/>
			<point x="136" y="-14"/>
			<point x="311" y="-14" type="curve" smooth="yes"/>
			<point x="486" y="-14"/>
			<point x="598" y="96"/>
			<point x="598" y="267" type="curve" smooth="yes"/>
			<point x="598" y="439"/>
			<point x="486" y="548"/>
		</contour>
		<contour>
			<point x="311" y="108" type="curve" smooth="yes"/>
			<point x="247" y="108"/>
			<point x="208" y="161"/>
			<point x="208" y="267" type="curve" smooth="yes"/>
			<point x="208" y="374"/>
			<point x="247" y="426"/>
			<point x="311" y="426" type="curve" smooth="yes"/>
			<point x="375" y="426"/>
			<point x="414" y="374"/>
			<point x="414" y="267" type="curve" smooth="yes"/>
			<point x="414" y="161"/>
			<point x="375" y="108"/>
		</contour>
	</outline>
</glyph>
<glyph name="otilde" format="2">
	<advance width="622"/>
	<unicode hex="00F5"/>
	<note>
		otilde
	</note>
	<outline>
		<contour>
			<point x="258" y="605" type="curve" smooth="yes"/>
			<point x="266" y="605"/>
			<point x="279" y="600"/>
			<point x="303" y="590" type="curve" smooth="yes"/>
			<point x="340" y="574"/>
			<point x="356" y="571"/>
			<point x="385" y="571" type="curve" smooth="yes"/>
			<point x="447" y="571"/>
			<point x="475" y="612"/>
			<point x="475" y="705" type="curve"/>
			<point x="379" y="705" type="line"/>
			<point x="379" y="683"/>
			<point x="375" y="674"/>
			<point x="364" y="674" type="curve" smooth="yes"/>
			<point x="356" y="674"/>
			<point x="343" y="678"/>
			<point x="319" y="689" type="curve" smooth="yes"/>
			<point x="283" y="705"/>
			<point x="266" y="708"/>
			<point x="237" y="708" type="curve" smooth="yes"/>
			<point x="175" y="708"/>
			<point x="147" y="667"/>
			<point x="147" y="574" type="curve"/>
			<point x="243" y="574" type="line"/>
			<point x="243" y="596"/>
			<point x="247" y="605"/>
		</contour>
		<contour>
			<point x="311" y="548" type="curve" smooth="yes"/>
			<point x="136" y="548"/>
			<point x="24" y="439"/>
			<point x="24" y="267" type="curve" smooth="yes"/>
			<point x="24" y="96"/>
			<point x="136" y="-14"/>
			<point x="311" y="-14" type="curve" smooth="yes"/>
			<point x="486" y="-14"/>
			<point x="598" y="96"/>
			<point x="598" y="267" type="curve" smooth="yes"/>
			<point x="598" y="439"/>
			<point x="486" y="548"/>
		</contour>
		<contour>
			<point x="311" y="108" type="curve" smooth="yes"/>
			<point x="247" y="108"/>
			<point x="208" y="161"/>
			<point x="208" y="267" type="curve" smooth="yes"/>
			<point x="208" y="374"/>
			<point x="247" y="426"/>
			<point x="311" y="426" type="curve" smooth="yes"/>
			<point x="375" y="426"/>
			<point x="414" y="374"/>
			<point x="414" y="267" type="curve" smooth="yes"/>
			<point x="414" y="161"/>
			<point x="375" y="108"/>
		</contour>
	</outline>
</glyph>
<glyph name="Cdotaccent" format="2">
	<advance width="734"/>
	<unicode hex="010A"/>
	<note>
		Cdotaccent
	</note>
	<outline>
		<contour>
			<point x="384" y="901" type="curve" smooth="yes"/>
			<point x="328" y="901"/>
			<point x="291" y="867"/>
			<point x="291" y="813" type="curve" smooth="yes"/>
			<point x="291" y="759"/>
			<point x="328" y="725"/>
			<point x="384" y="725" type="curve" smooth="yes"/>
			<point x="440" y="725"/>
			<point x="477" y="759"/>
			<point x="477" y="813" type="curve" smooth="yes"/>
			<point x="477" y="867"/>
			<point x="440" y="901"/>
		</contour>
		<contour>
			<point x="395" y="704" type="curve" smooth="yes"/>
			<point x="208" y="704"/>
			<point x="54" y="580"/>
			<point x="54" y="340" type="curve" smooth="yes"/>
			<point x="54" y="106"/>
			<point x="203" y="-14"/>
			<point x="388" y="-14" type="curve" smooth="yes"/>
			<point x="561" y="-14"/>
			<point x="688" y="71"/>
			<point x="705" y="237" type="curve" smooth="yes"/>
			<point x="706" y="247" type="line"/>
			<point x="526" y="247" type="line"/>
			<point x="524" y="237" type="line" smooth="yes"/>
			<point x="509" y="161"/>
			<point x="464" y="118"/>
			<point x="394" y="118" type="curve" smooth="yes"/>
			<point x="314" y="118"/>
			<point x="242" y="177"/>
			<point x="242" y="351" type="curve" smooth="yes"/>
			<point x="242" y="500"/>
			<point x="307" y="572"/>
			<point x="393" y="572" type="curve" smooth="yes"/>
			<point x="466" y="572"/>
			<point x="511" y="537"/>
			<point x="526" y="463" type="curve" smooth="yes"/>
			<point x="528" y="453" type="line"/>
			<point x="708" y="453" type="line"/>
			<point x="707" y="463" type="line" smooth="yes"/>
			<point x="693" y="599"/>
			<point x="592" y="704"/>
		</contour>
	</outline>
</glyph>
<glyph name="Emacron" format="2">
	<advance width="639"/>
	<unicode hex="0112"/>
	<note>
		Emacron
	</note>
	<outline>
		<contour>
			<point x="190" y="760" type="line"/>
			<point x="490" y="760" type="line"/>
			<point x="490" y="856" type="line"/>
			<point x="190" y="856" type="line"/>
		</contour>
		<contour>
			<point x="609" y="0" type="line"/>
			<point x="609" y="140" type="line"/>
			<point x="260" y="140" type="line"/>
			<point x="260" y="276" type="line"/>
			<point x="579" y="276" type="line"/>
			<point x="579" y="416" type="line"/>
			<point x="260" y="416" type="line"/>
			<point x="260" y="550" type="line"/>
			<point x="599" y="550" type="line"/>
			<point x="599" y="690" type="line"/>
			<point x="80" y="690" type="line"/>
			<point x="80" y="0" type="line"/>
		</contour>
	</outline>
</glyph>
<glyph name="Eogonek" format="2">
	<advance width="639"/>
	<unicode hex="0118"/>
	<note>
		Eogonek
	</note>
	<outline>
		<contour>
			<point x="559" y="0" type="curve" smooth="yes"/>
			<point x="609" y="0" type="line"/>
			<point x="609" y="140" type="line"/>
			<point x="260" y="140" type="line"/>
			<point x="260" y="276" type="line"/>
			<point x="579" y="276" type="line"/>
			<point x="579" y="416" type="line"/>
			<point x="260" y="416" type="line"/>
			<point x="260" y="550" type="line"/>
			<point x="599" y="550" type="line"/>
			<point x="599" y="690" type="line"/>
			<point x="80" y="690" type="line"/>
			<point x="80" y="0" type="line"/>
			<point x="428" y="0" type="line"/>
			<point x="386" y="-27"/>
			<point x="350" y="-81"/>
			<point x="350" y="-137" type="curve" smooth="yes"/>
			<point x="350" y="-201"/>
			<point x="398" y="-223"/>
			<point x="464" y="-223" type="curve" smooth="yes"/>
			<point x="528" y="-223"/>
			<point x="570" y="-202"/>
			<point x="599" y="-173" type="curve"/>
			<point x="599" y="-100" type="line"/>
			<point x="583" y="-115"/>
			<point x="569" y="-121"/>
			<point x="555" y="-121" type="curve" smooth="yes"/>
			<point x="535" y="-121"/>
			<point x="514" y="-108"/>
			<point x="514" y="-70" type="curve" smooth="yes"/>
			<point x="514" y="-32"/>
			<point x="534" y="0"/>
		</contour>
	</outline>
</glyph>
<glyph name="uni0122" format="2">
	<advance width="759"/>
	<unicode hex="0122"/>
	<note>
		Gcommaaccent
	</note>
	<outline>
		<contour>
			<point x="713" y="368" type="line"/>
			<point x="409" y="368" type="line"/>
			<point x="409" y="228" type="line"/>
			<point x="543" y="228" type="line"/>
			<point x="518" y="152"/>
			<point x="472" y="118"/>
			<point x="402" y="118" type="curve" smooth="yes"/>
			<point x="317" y="118"/>
			<point x="242" y="177"/>
			<point x="242" y="351" type="curve" smooth="yes"/>
			<point x="242" y="500"/>
			<point x="315" y="572"/>
			<point x="403" y="572" type="curve" smooth="yes"/>
			<point x="476" y="572"/>
			<point x="521" y="537"/>
			<point x="536" y="463" type="curve" smooth="yes"/>
			<point x="538" y="453" type="line"/>
			<point x="718" y="453" type="line"/>
			<point x="717" y="463" type="line" smooth="yes"/>
			<point x="703" y="599"/>
			<point x="602" y="704"/>
			<point x="405" y="704" type="curve" smooth="yes"/>
			<point x="216" y="704"/>
			<point x="54" y="580"/>
			<point x="54" y="340" type="curve" smooth="yes"/>
			<point x="54" y="108"/>
			<point x="183" y="-14"/>
			<point x="367" y="-14" type="curve" smooth="yes"/>
			<point x="440" y="-14"/>
			<point x="487" y="-3"/>
			<point x="526" y="30" type="curve"/>
			<point x="556" y="106" type="line"/>
			<point x="573" y="0" type="line"/>
			<point x="713" y="0" type="line"/>
		</contour>
		<contour>
			<point x="472" y="-37" type="line"/>
			<point x="358" y="-37" type="line"/>
			<point x="274" y="-216" type="line"/>
			<point x="371" y="-216" type="line"/>
			<point x="472" y="-47" type="line"/>
		</contour>
	</outline>
</glyph>
<glyph name="imacron" format="2">
	<advance width="288"/>
	<unicode hex="012B"/>
	<note>
		imacron
	</note>
	<outline>
		<contour>
			<point x="-6" y="586" type="line"/>
			<point x="294" y="586" type="line"/>
			<point x="294" y="682" type="line"/>
			<point x="-6" y="682" type="line"/>
		</contour>
		<contour>
			<point x="54" y="0" type="line"/>
			<point x="234" y="0" type="line"/>
			<point x="234" y="534" type="line"/>
			<point x="54" y="534" type="line"/>
		</contour>
	</outline>
</glyph>
<glyph name="iogonek" format="2">
	<advance width="288"/>
	<unicode hex="012F"/>
	<note>
		iogonek
	</note>
	<outline>
		<contour>
			<point x="144" y="575" type="curve" smooth="yes"/>
			<point x="200" y="575"/>
			<point x="237" y="609"/>
			<point x="237" y="663" type="curve" smooth="yes"/>
			<point x="237" y="717"/>
			<point x="200" y="751"/>
			<point x="144" y="751" type="curve" smooth="yes"/>
			<point x="88" y="751"/>
			<point x="51" y="717"/>
			<point x="51" y="663" type="curve" smooth="yes"/>
			<point x="51" y="609"/>
			<point x="88" y="575"/>
		</contour>
		<contour>
			<point x="234" y="534" type="line"/>
			<point x="54" y="534" type="line"/>
			<point x="54" y="5" type="line"/>
			<point x="9" y="-20"/>
			<point x="-32" y="-77"/>
			<point x="-32" y="-137" type="curve" smooth="yes"/>
			<point x="-32" y="-201"/>
			<point x="16" y="-223"/>
			<point x="82" y="-223" type="curve" smooth="yes"/>
			<point x="146" y="-223"/>
			<point x="188" y="-202"/>
			<point x="217" y="-173" type="curve"/>
			<point x="217" y="-100" type="line"/>
			<point x="201" y="-115"/>
			<point x="187" y="-121"/>
			<point x="173" y="-121" type="curve" smooth="yes"/>
			<point x="153" y="-121"/>
			<point x="132" y="-108"/>
			<point x="132" y="-70" type="curve" smooth="yes"/>
			<point x="132" y="-32"/>
			<point x="152" y="0"/>
			<point x="177" y="0" type="curve" smooth="yes"/>
			<point x="234" y="0" type="line"/>
		</contour>
	</outline>
</glyph>
<glyph name="IJ" format="2">
	<advance width="952"/>
	<unicode hex="0132"/>
	<note>
		IJ
	</note>
	<outline>
		<contour>
			<point x="80" y="0" type="line"/>
			<point x="260" y="0" type="line"/>
			<point x="260" y="690" type="line"/>
			<point x="80" y="690" type="line"/>
		</contour>
		<contour>
			<point x="900" y="299" type="curve" smooth="yes"/>
			<point x="900" y="690" type="line"/>
			<point x="720" y="690" type="line"/>
			<point x="720" y="271" type="line" smooth="yes"/>
			<point x="720" y="250"/>
			<point x="720" y="228"/>
			<point x="718" y="205" type="curve" smooth="yes"/>
			<point x="713" y="150"/>
			<point x="687" y="118"/>
			<point x="637" y="118" type="curve" smooth="yes"/>
			<point x="586" y="118"/>
			<point x="550" y="144"/>
			<point x="544" y="234" type="curve" smooth="yes"/>
			<point x="542" y="264" type="line"/>
			<point x="362" y="264" type="line"/>
			<point x="363" y="234" type="line" smooth="yes"/>
			<point x="368" y="84"/>
			<point x="445" y="-14"/>
			<point x="632" y="-14" type="curve" smooth="yes"/>
			<point x="811" y="-14"/>
			<point x="890" y="73"/>
			<point x="897" y="194" type="curve" smooth="yes"/>
			<point x="900" y="245"/>
			<point x="900" y="267"/>
		</contour>
	</outline>
</glyph>
<glyph name="uni0136" format="2">
	<advance width="743"/>
	<unicode hex="0136"/>
	<note>
		Kcommaaccent
	</note>
	<outline>
		<contour>
			<point x="729" y="0" type="line"/>
			<point x="440" y="365" type="line"/>
			<point x="738" y="690" type="line"/>
			<point x="523" y="690" type="line"/>
			<point x="260" y="385" type="line"/>
			<point x="260" y="690" type="line"/>
			<point x="80" y="690" type="line"/>
			<point x="80" y="0" type="line"/>
			<point x="260" y="0" type="line"/>
			<point x="260" y="212" type="line"/>
			<point x="309" y="266" type="line"/>
			<point x="504" y="0" type="line"/>
		</contour>
		<contour>
			<point x="439" y="-37" type="line"/>
			<point x="325" y="-37" type="line"/>
			<point x="241" y="-216" type="line"/>
			<point x="338" y="-216" type="line"/>
			<point x="439" y="-47" type="line"/>
		</contour>
	</outline>
</glyph>
<glyph name="Lacute" format="2">
	<advance width="628"/>
	<unicode hex="0139"/>
	<note>
		Lacute
	</note>
	<outline>
		<contour>
			<point x="116" y="735" type="line"/>
			<point x="212" y="735" type="line"/>
			<point x="367" y="860" type="line"/>
			<point x="207" y="860" type="line"/>
		</contour>
		<contour>
			<point x="609" y="0" type="line"/>
			<point x="609" y="152" type="line"/>
			<point x="260" y="152" type="line"/>
			<point x="260" y="690" type="line"/>
			<point x="80" y="690" type="line"/>
			<point x="80" y="0" type="line"/>
		</contour>
	</outline>
</glyph>
<glyph name="uni013B" format="2">
	<advance width="628"/>
	<unicode hex="013B"/>
	<note>
		Lcommaaccent
	</note>
	<outline>
		<contour>
			<point x="609" y="0" type="line"/>
			<point x="609" y="152" type="line"/>
			<point x="260" y="152" type="line"/>
			<point x="260" y="690" type="line"/>
			<point x="80" y="690" type="line"/>
			<point x="80" y="0" type="line"/>
		</contour>
		<contour>
			<point x="413" y="-37" type="line"/>
			<point x="299" y="-37" type="line"/>
			<point x="215" y="-216" type="line"/>
			<point x="312" y="-216" type="line"/>
			<point x="413" y="-47" type="line"/>
		</contour>
	</outline>
</glyph>
<glyph name="uni013C" format="2">
	<advance width="305"/>
	<unicode hex="013C"/>
	<note>
		lcommaaccent
	</note>
	<outline>
		<contour>
			<point x="230" y="192" type="curve" smooth="yes"/>
			<point x="230" y="735" type="line"/>
			<point x="50" y="735" type="line"/>
			<point x="50" y="189" type="line" smooth="yes"/>
			<point x="50" y="149"/>
			<point x="50" y="122"/>
			<point x="52" y="94" type="curve" smooth="yes"/>
			<point x="56" y="23"/>
			<point x="103" y="-10"/>
			<point x="186" y="-10" type="curve" smooth="yes"/>
			<point x="226" y="-10"/>
			<point x="258" y="-8"/>
			<point x="291" y="-5" type="curve"/>
			<point x="291" y="117" type="line"/>
			<point x="244" y="115"/>
			<point x="235" y="122"/>
			<point x="232" y="143" type="curve" smooth="yes"/>
			<point x="230" y="156"/>
			<point x="230" y="167"/>
		</contour>
		<contour>
			<point x="135" y="-216" type="line"/>
			<point x="236" y="-47" type="line"/>
			<point x="236" y="-37" type="line"/>
			<point x="122" y="-37" type="line"/>
			<point x="38" y="-216" type="line"/>
		</contour>
	</outline>
</glyph>
<glyph name="Lcaron" format="2">
	<advance width="628"/>
	<unicode hex="013D"/>
	<note>
		Lcaron
	</note>
	<outline>
		<contour>
			<point x="609" y="0" type="line"/>
			<point x="609" y="152" type="line"/>
			<point x="260" y="152" type="line"/>
			<point x="260" y="690" type="line"/>
			<point x="80" y="690" type="line"/>
			<point x="80" y="0" type="line"/>
		</contour>
	</outline>
</glyph>
<glyph name="Ldot" format="2">
	<advance width="628"/>
	<unicode hex="013F"/>
	<note>
		Ldot
	</note>
	<outline>
		<contour>
			<point x="609" y="0" type="line"/>
			<point x="609" y="152" type="line"/>
			<point x="260" y="152" type="line"/>
			<point x="260" y="690" type="line"/>
			<point x="80" y="690" type="line"/>
			<point x="80" y="0" type="line"/>
		</contour>
		<contour>
			<point x="450" y="300" type="curve" smooth="yes"/>
			<point x="507" y="300"/>
			<point x="550" y="343"/>
			<point x="550" y="400" type="curve" smooth="yes"/>
			<point x="550" y="457"/>
			<point x="507" y="500"/>
			<point x="450" y="500" type="curve" smooth="yes"/>
			<point x="393" y="500"/>
			<point x="350" y="457"/>
			<point x="350" y="400" type="curve" smooth="yes"/>
			<point x="350" y="343"/>
			<point x="393" y="300"/>
		</contour>
	</outline>
</glyph>
<glyph name="Lslash" format="2">
	<advance width="668"/>
	<unicode hex="0141"/>
	<note>
		Lslash
	</note>
	<outline>
		<contour>
			<point x="649" y="0" type="line"/>
			<point x="649" y="152" type="line"/>
			<point x="300" y="152" type="line"/>
			<point x="300" y="380" type="line"/>
			<point x="386" y="425" type="line"/>
			<point x="386" y="538" type="line"/>
			<point x="300" y="493" type="line"/>
			<point x="300" y="690" type="line"/>
			<point x="120" y="690" type="line"/>
			<point x="120" y="398" type="line"/>
			<point x="26" y="348" type="line"/>
			<point x="26" y="235" type="line"/>
			<point x="120" y="285" type="line"/>
			<point x="120" y="0" type="line"/>
		</contour>
	</outline>
</glyph>
<glyph name="Nacute" format="2">
	<advance width="794"/>
	<unicode hex="0143"/>
	<note>
		Nacute
	</note>
	<outline>
		<contour>
			<point x="351" y="735" type="line"/>
			<point x="447" y="735" type="line"/>
			<point x="602" y="860" type="line"/>
			<point x="442" y="860" type="line"/>
		</contour>
		<contour>
			<point x="505" y="0" type="line"/>
			<point x="740" y="0" type="line"/>
			<point x="740" y="690" type="line"/>
			<point x="560" y="690" type="line"/>
			<point x="560" y="395" type="line" smooth="yes"/>
			<point x="560" y="355"/>
			<point x="561" y="284"/>
			<point x="566" y="214" type="curve"/>
			<point x="304" y="690" type="line"/>
			<point x="80" y="690" type="line"/>
			<point x="80" y="0" type="line"/>
			<point x="260" y="0" type="line"/>
			<point x="260" y="285" type="line" smooth="yes"/>
			<point x="260" y="325"/>
			<point x="260" y="386"/>
			<point x="254" y="456" type="curve"/>
		</contour>
	</outline>
</glyph>
<glyph name="nacute" format="2">
	<advance width="644"/>
	<unicode hex="0144"/>
	<note>
		nacute
	</note>
	<outline>
		<contour>
			<point x="267" y="571" type="line"/>
			<point x="363" y="571" type="line"/>
			<point x="518" y="696" type="line"/>
			<point x="358" y="696" type="line"/>
		</contour>
		<contour>
			<point x="591" y="403" type="curve" smooth="yes"/>
			<point x="577" y="496"/>
			<point x="512" y="548"/>
			<point x="402" y="548" type="curve" smooth="yes"/>
			<point x="353" y="548"/>
			<point x="315" y="537"/>
			<point x="282" y="517" type="curve"/>
			<point x="234" y="451" type="line"/>
			<point x="234" y="534" type="line"/>
			<point x="54" y="534" type="line"/>
			<point x="54" y="0" type="line"/>
			<point x="234" y="0" type="line"/>
			<point x="234" y="252" type="line" smooth="yes"/>
			<point x="234" y="373"/>
			<point x="273" y="426"/>
			<point x="328" y="426" type="curve" smooth="yes"/>
			<point x="382" y="426"/>
			<point x="410" y="396"/>
			<point x="414" y="345" type="curve" smooth="yes"/>
			<point x="416" y="318"/>
			<point x="416" y="289"/>
			<point x="416" y="272" type="curve" smooth="yes"/>
			<point x="416" y="0" type="line"/>
			<point x="596" y="0" type="line"/>
			<point x="596" y="302" type="line" smooth="yes"/>
			<point x="596" y="345"/>
			<point x="595" y="376"/>
		</contour>
	</outline>
</glyph>
<glyph name="Eng" format="2">
	<advance width="794"/>
	<unicode hex="014A"/>
	<note>
		Eng
	</note>
	<outline>
		<contour>
			<point x="740" y="-57" type="curve" smooth="yes"/>
			<point x="740" y="690" type="line"/>
			<point x="560" y="690" type="line"/>
			<point x="560" y="435" type="line" smooth="yes"/>
			<point x="560" y="395"/>
			<point x="561" y="324"/>
			<point x="566" y="254" type="curve"/>
			<point x="304" y="690" type="line"/>
			<point x="80" y="690" type="line"/>
			<point x="80" y="0" type="line"/>
			<point x="260" y="0" type="line"/>
			<point x="260" y="285" type="line" smooth="yes"/>
			<point x="260" y="325"/>
			<point x="260" y="386"/>
			<point x="254" y="456" type="curve"/>
			<point x="560" y="-20" type="line"/>
			<point x="560" y="-33" type="line" smooth="yes"/>
			<point x="560" y="-66"/>
			<point x="545" y="-85"/>
			<point x="485" y="-91" type="curve"/>
			<point x="485" y="-223" type="line"/>
			<point x="660" y="-223"/>
			<point x="730" y="-186"/>
			<point x="739" y="-98" type="curve" smooth="yes"/>
			<point x="740" y="-84"/>
			<point x="740" y="-75"/>
		</contour>
	</outline>
</glyph>
<glyph name="Ohungarumlaut" format="2">
	<advance width="788"/>
	<unicode hex="0150"/>
	<note>
		Ohungarumlaut
	</note>
	<outline>
		<contour>
			<point x="230" y="736" type="line"/>
			<point x="326" y="736" type="line"/>
			<point x="481" y="861" type="line"/>
			<point x="321" y="861" type="line"/>
		</contour>
		<contour>
			<point x="522" y="861" type="line"/>
			<point x="431" y="736" type="line"/>
			<point x="527" y="736" type="line"/>
			<point x="682" y="861" type="line"/>
		</contour>
		<contour>
			<point x="407" y="704" type="curve" smooth="yes"/>
			<point x="192" y="704"/>
			<point x="54" y="567"/>
			<point x="54" y="345" type="curve" smooth="yes"/>
			<point x="54" y="124"/>
			<point x="192" y="-14"/>
			<point x="407" y="-14" type="curve" smooth="yes"/>
			<point x="622" y="-14"/>
			<point x="760" y="124"/>
			<point x="760" y="345" type="curve" smooth="yes"/>
			<point x="760" y="567"/>
			<point x="622" y="704"/>
		</contour>
		<contour>
			<point x="407" y="118" type="curve" smooth="yes"/>
			<point x="303" y="118"/>
			<point x="238" y="199"/>
			<point x="238" y="345" type="curve" smooth="yes"/>
			<point x="238" y="492"/>
			<point x="303" y="572"/>
			<point x="407" y="572" type="curve" smooth="yes"/>
			<point x="511" y="572"/>
			<point x="576" y="492"/>
			<point x="576" y="345" type="curve" smooth="yes"/>
			<point x="576" y="199"/>
			<point x="511" y="118"/>
		</contour>
	</outline>
</glyph>
<glyph name="OE" format="2">
	<advance width="1135"/>
	<unicode hex="0152"/>
	<note>
		OE
	</note>
	<outline>
		<contour>
			<point x="1105" y="0" type="line"/>
			<point x="1105" y="140" type="line"/>
			<point x="756" y="140" type="line"/>
			<point x="756" y="276" type="line"/>
			<point x="1075" y="276" type="line"/>
			<point x="1075" y="416" type="line"/>
			<point x="756" y="416" type="line"/>
			<point x="756" y="550" type="line"/>
			<point x="1095" y="550" type="line"/>
			<point x="1095" y="690" type="line"/>
			<point x="576" y="690" type="line"/>
			<point x="576" y="588" type="line"/>
			<point x="544" y="656" type="line"/>
			<point x="494" y="694"/>
			<point x="454" y="704"/>
			<point x="367" y="704" type="curve" smooth="yes"/>
			<point x="192" y="704"/>
			<point x="54" y="567"/>
			<point x="54" y="345" type="curve" smooth="yes"/>
			<point x="54" y="124"/>
			<point x="192" y="-14"/>
			<point x="367" y="-14" type="curve" smooth="yes"/>
			<point x="456" y="-14"/>
			<point x="493" y="-4"/>
			<point x="544" y="36" type="curve"/>
			<point x="576" y="103" type="line"/>
			<point x="576" y="0" type="line"/>
		</contour>
		<contour>
			<point x="407" y="118" type="curve" smooth="yes"/>
			<point x="303" y="118"/>
			<point x="238" y="199"/>
			<point x="238" y="345" type="curve" smooth="yes"/>
			<point x="238" y="492"/>
			<point x="303" y="572"/>
			<point x="407" y="572" type="curve" smooth="yes"/>
			<point x="511" y="572"/>
			<point x="576" y="492"/>
			<point x="576" y="345" type="curve" smooth="yes"/>
			<point x="576" y="199"/>
			<point x="511" y="118"/>
		</contour>
	</outline>
</glyph>
<glyph name="oe" format="2">
	<advance width="991"/>
	<unicode hex="0153"/>
	<note>
		oe
	</note>
	<outline>
		<contour>
			<point x="967" y="274" type="curve" smooth="yes"/>
			<point x="967" y="412"/>
			<point x="877" y="548"/>
			<point x="708" y="548" type="curve" smooth="yes"/>
			<point x="625" y="548"/>
			<point x="554" y="517"/>
			<point x="508" y="447" type="curve"/>
			<point x="461" y="518"/>
			<point x="389" y="548"/>
			<point x="311" y="548" type="curve" smooth="yes"/>
			<point x="136" y="548"/>
			<point x="24" y="439"/>
			<point x="24" y="267" type="curve" smooth="yes"/>
			<point x="24" y="96"/>
			<point x="136" y="-14"/>
			<point x="311" y="-14" type="curve" smooth="yes"/>
			<point x="387" y="-14"/>
			<point x="457" y="13"/>
			<point x="503" y="79" type="curve"/>
			<point x="550" y="11"/>
			<point x="620" y="-14"/>
			<point x="694" y="-14" type="curve" smooth="yes"/>
			<point x="826" y="-14"/>
			<point x="926" y="54"/>
			<point x="957" y="175" type="curve"/>
			<point x="780" y="175" type="line"/>
			<point x="773" y="134"/>
			<point x="742" y="108"/>
			<point x="691" y="108" type="curve" smooth="yes"/>
			<point x="640" y="108"/>
			<point x="601" y="133"/>
			<point x="592" y="222" type="curve"/>
			<point x="964" y="222" type="line"/>
			<point x="966" y="240"/>
			<point x="967" y="258"/>
		</contour>
		<contour>
			<point x="311" y="108" type="curve" smooth="yes"/>
			<point x="247" y="108"/>
			<point x="208" y="161"/>
			<point x="208" y="267" type="curve" smooth="yes"/>
			<point x="208" y="374"/>
			<point x="247" y="426"/>
			<point x="311" y="426" type="curve" smooth="yes"/>
			<point x="375" y="426"/>
			<point x="414" y="374"/>
			<point x="414" y="267" type="curve" smooth="yes"/>
			<point x="414" y="161"/>
			<point x="375" y="108"/>
		</contour>
		<contour>
			<point x="779" y="332" type="curve"/>
			<point x="598" y="332" type="line"/>
			<point x="611" y="397"/>
			<point x="644" y="426"/>
			<point x="690" y="426" type="curve" smooth="yes"/>
			<point x="739" y="426"/>
			<point x="770" y="394"/>
		</contour>
	</outline>
</glyph>
<glyph name="uni0156" format="2">
	<advance width="682"/>
	<unicode hex="0156"/>
	<note>
		Rcommaaccent
	</note>
	<outline>
		<contour>
			<point x="618" y="168" type="curve" smooth="yes"/>
			<point x="608" y="251"/>
			<point x="582" y="304"/>
			<point x="510" y="330" type="curve"/>
			<point x="602" y="357"/>
			<point x="649" y="415"/>
			<point x="649" y="502" type="curve" smooth="yes"/>
			<point x="649" y="624"/>
			<point x="562" y="673"/>
			<point x="462" y="685" type="curve" smooth="yes"/>
			<point x="425" y="689"/>
			<point x="397" y="690"/>
			<point x="354" y="690" type="curve" smooth="yes"/>
			<point x="80" y="690" type="line"/>
			<point x="80" y="0" type="line"/>
			<point x="260" y="0" type="line"/>
			<point x="260" y="262" type="line"/>
			<point x="300" y="262" type="line" smooth="yes"/>
			<point x="320" y="262"/>
			<point x="337" y="262"/>
			<point x="357" y="261" type="curve" smooth="yes"/>
			<point x="403" y="258"/>
			<point x="433" y="214"/>
			<point x="442" y="138" type="curve" smooth="yes"/>
			<point x="448" y="89"/>
			<point x="458" y="49"/>
			<point x="474" y="0" type="curve"/>
			<point x="670" y="0" type="line"/>
			<point x="643" y="41"/>
			<point x="627" y="90"/>
		</contour>
		<contour>
			<point x="325" y="392" type="curve" smooth="yes"/>
			<point x="260" y="392" type="line"/>
			<point x="260" y="550" type="line"/>
			<point x="330" y="550" type="line" smooth="yes"/>
			<point x="349" y="550"/>
			<point x="365" y="550"/>
			<point x="378" y="549" type="curve" smooth="yes"/>
			<point x="424" y="545"/>
			<point x="461" y="529"/>
			<point x="461" y="471" type="curve" smooth="yes"/>
			<point x="461" y="413"/>
			<point x="419" y="397"/>
			<point x="373" y="393" type="curve" smooth="yes"/>
			<point x="360" y="392"/>
			<point x="344" y="392"/>
		</contour>
		<contour>
			<point x="427" y="-37" type="line"/>
			<point x="313" y="-37" type="line"/>
			<point x="229" y="-216" type="line"/>
			<point x="326" y="-216" type="line"/>
			<point x="427" y="-47" type="line"/>
		</contour>
	</outline>
</glyph>
<glyph name="Scedilla" format="2">
	<advance width="626"/>
	<unicode hex="015E"/>
	<note>
		Scedilla
	</note>
	<outline>
		<contour>
			<point x="609" y="194" type="curve" smooth="yes"/>
			<point x="609" y="300"/>
			<point x="547" y="376"/>
			<point x="395" y="412" type="curve" smooth="yes"/>
			<point x="281" y="439"/>
			<point x="249" y="466"/>
			<point x="249" y="510" type="curve" smooth="yes"/>
			<point x="249" y="552"/>
			<point x="277" y="572"/>
			<point x="318" y="572" type="curve" smooth="yes"/>
			<point x="377" y="572"/>
			<point x="407" y="534"/>
			<point x="415" y="477" type="curve"/>
			<point x="595" y="477" type="line"/>
			<point x="580" y="605"/>
			<point x="504" y="704"/>
			<point x="322" y="704" type="curve" smooth="yes"/>
			<point x="185" y="704"/>
			<point x="61" y="629"/>
			<point x="61" y="496" type="curve" smooth="yes"/>
			<point x="61" y="358"/>
			<point x="153" y="309"/>
			<point x="310" y="270" type="curve" smooth="yes"/>
			<point x="395" y="249"/>
			<point x="421" y="218"/>
			<point x="421" y="182" type="curve" smooth="yes"/>
			<point x="421" y="144"/>
			<point x="383" y="118"/>
			<point x="333" y="118" type="curve" smooth="yes"/>
			<point x="279" y="118"/>
			<point x="226" y="146"/>
			<point x="214" y="211" type="curve"/>
			<point x="34" y="211" type="line"/>
			<point x="43" y="81"/>
			<point x="128" y="10"/>
			<point x="259" y="-9" type="curve"/>
			<point x="221" y="-88" type="line"/>
			<point x="296" y="-83"/>
			<point x="318" y="-94"/>
			<point x="318" y="-114" type="curve" smooth="yes"/>
			<point x="318" y="-132"/>
			<point x="301" y="-141"/>
			<point x="258" y="-141" type="curve" smooth="yes"/>
			<point x="245" y="-141"/>
			<point x="225" y="-140"/>
			<point x="200" y="-134" type="curve"/>
			<point x="200" y="-204" type="line"/>
			<point x="219" y="-209"/>
			<point x="237" y="-210"/>
			<point x="257" y="-210" type="curve" smooth="yes"/>
			<point x="349" y="-210"/>
			<point x="426" y="-188"/>
			<point x="426" y="-119" type="curve" smooth="yes"/>
			<point x="426" y="-74"/>
			<point x="394" y="-49"/>
			<point x="331" y="-42" type="curve"/>
			<point x="345" y="-14" type="line"/>
			<point x="481" y="-12"/>
			<point x="609" y="58"/>
		</contour>
	</outline>
</glyph>
<glyph name="Tbar" format="2">
	<advance width="632"/>
	<unicode hex="0166"/>
	<note>
		Tbar
	</note>
	<outline>
		<contour>
			<point x="418" y="389" type="line"/>
			<point x="418" y="550" type="line"/>
			<point x="642" y="550" type="line"/>
			<point x="642" y="690" type="line"/>
			<point x="14" y="690" type="line"/>
			<point x="14" y="550" type="line"/>
			<point x="238" y="550" type="line"/>
			<point x="238" y="389" type="line"/>
			<point x="148" y="389" type="line"/>
			<point x="148" y="293" type="line"/>
			<point x="238" y="293" type="line"/>
			<point x="238" y="0" type="line"/>
			<point x="418" y="0" type="line"/>
			<point x="418" y="293" type="line"/>
			<point x="508" y="293" type="line"/>
			<point x="508" y="389" type="line"/>
		</contour>
	</outline>
</glyph>
<glyph name="Uogonek" format="2">
	<advance width="718"/>
	<unicode hex="0172"/>
	<note>
		Uogonek
	</note>
	<outline>
		<contour>
			<point x="680" y="303" type="curve" smooth="yes"/>
			<point x="680" y="690" type="line"/>
			<point x="500" y="690" type="line"/>
			<point x="500" y="270" type="line" smooth="yes"/>
			<point x="500" y="251"/>
			<point x="500" y="241"/>
			<point x="499" y="229" type="curve" smooth="yes"/>
			<point x="494" y="157"/>
			<point x="453" y="118"/>
			<point x="374" y="118" type="curve" smooth="yes"/>
			<point x="295" y="118"/>
			<point x="254" y="157"/>
			<point x="249" y="229" type="curve" smooth="yes"/>
			<point x="248" y="241"/>
			<point x="248" y="251"/>
			<point x="248" y="270" type="curve" smooth="yes"/>
			<point x="248" y="690" type="line"/>
			<point x="68" y="690" type="line"/>
			<point x="68" y="303" type="line" smooth="yes"/>
			<point x="68" y="268"/>
			<point x="68" y="247"/>
			<point x="71" y="206" type="curve" smooth="yes"/>
			<point x="79" y="95"/>
			<point x="154" y="-5"/>
			<point x="347" y="-13" type="curve"/>
			<point x="313" y="-43"/>
			<point x="287" y="-89"/>
			<point x="287" y="-137" type="curve" smooth="yes"/>
			<point x="287" y="-201"/>
			<point x="335" y="-223"/>
			<point x="401" y="-223" type="curve" smooth="yes"/>
			<point x="465" y="-223"/>
			<point x="507" y="-202"/>
			<point x="536" y="-173" type="curve"/>
			<point x="536" y="-100" type="line"/>
			<point x="520" y="-115"/>
			<point x="506" y="-121"/>
			<point x="492" y="-121" type="curve" smooth="yes"/>
			<point x="472" y="-121"/>
			<point x="451" y="-108"/>
			<point x="451" y="-70" type="curve" smooth="yes"/>
			<point x="451" y="-39"/>
			<point x="464" y="-12"/>
			<point x="483" y="-3" type="curve"/>
			<point x="487" y="-2"/>
			<point x="491" y="-1"/>
			<point x="496" y="0" type="curve" smooth="yes"/>
			<point x="619" y="32"/>
			<point x="671" y="115"/>
			<point x="677" y="206" type="curve" smooth="yes"/>
			<point x="680" y="247"/>
			<point x="680" y="268"/>
		</contour>
	</outline>
</glyph>
<glyph name="Ycircumflex" format="2">
	<advance width="663"/>
	<unicode hex="0176"/>
	<note>
		Ycircumflex
	</note>
	<outline>
		<contour>
			<point x="211" y="735" type="line"/>
			<point x="314" y="735" type="line"/>
			<point x="346" y="811" type="line"/>
			<point x="380" y="735" type="line"/>
			<point x="484" y="735" type="line"/>
			<point x="422" y="860" type="line"/>
			<point x="273" y="860" type="line"/>
		</contour>
		<contour>
			<point x="437" y="0" type="line"/>
			<point x="437" y="264" type="line"/>
			<point x="680" y="690" type="line"/>
			<point x="483" y="690" type="line"/>
			<point x="352" y="417" type="line"/>
			<point x="216" y="690" type="line"/>
			<point x="14" y="690" type="line"/>
			<point x="257" y="264" type="line"/>
			<point x="257" y="0" type="line"/>
		</contour>
	</outline>
</glyph>
<glyph name="Zacute" format="2">
	<advance width="648"/>
	<unicode hex="0179"/>
	<note>
		Zacute
	</note>
	<outline>
		<contour>
			<point x="287" y="735" type="line"/>
			<point x="383" y="735" type="line"/>
			<point x="538" y="860" type="line"/>
			<point x="378" y="860" type="line"/>
		</contour>
		<contour>
			<point x="618" y="0" type="line"/>
			<point x="618" y="140" type="line"/>
			<point x="276" y="140" type="line"/>
			<point x="614" y="551" type="line"/>
			<point x="614" y="690" type="line"/>
			<point x="81" y="690" type="line"/>
			<point x="81" y="550" type="line"/>
			<point x="394" y="550" type="line"/>
			<point x="53" y="136" type="line"/>
			<point x="53" y="0" type="line"/>
		</contour>
	</outline>
</glyph>
<glyph name="Zdotaccent" format="2">
	<advance width="648"/>
	<unicode hex="017B"/>
	<note>
		Zdotaccent
	</note>
	<outline>
		<contour>
			<point x="341" y="725" type="curve" smooth="yes"/>
			<point x="397" y="725"/>
			<point x="434" y="759"/>
			<point x="434" y="813" type="curve" smooth="yes"/>
			<point x="434" y="867"/>
			<point x="397" y="901"/>
			<point x="341" y="901" type="curve" smooth="yes"/>
			<point x="285" y="901"/>
			<point x="248" y="867"/>
			<point x="248" y="813" type="curve" smooth="yes"/>
			<point x="248" y="759"/>
			<point x="285" y="725"/>
		</contour>
		<contour>
			<point x="618" y="0" type="line"/>
			<point x="618" y="140" type="line"/>
			<point x="276" y="140" type="line"/>
			<point x="614" y="551" type="line"/>
			<point x="614" y="690" type="line"/>
			<point x="81" y="690" type="line"/>
			<point x="81" y="550" type="line"/>
			<point x="394" y="550" type="line"/>
			<point x="53" y="136" type="line"/>
			<point x="53" y="0" type="line"/>
		</contour>
	</outline>
</glyph>
<glyph name="Zcaron" format="2">
	<advance width="648"/>
	<unicode hex="017D"/>
	<note>
		Zcaron
	</note>
	<outline>
		<contour>
			<point x="205" y="860" type="line"/>
			<point x="267" y="735" type="line"/>
			<point x="416" y="735" type="line"/>
			<point x="478" y="860" type="line"/>
			<point x="375" y="860" type="line"/>
			<point x="343" y="784" type="line"/>
			<point x="309" y="860" type="line"/>
		</contour>
		<contour>
			<point x="618" y="0" type="line"/>
			<point x="618" y="140" type="line"/>
			<point x="276" y="140" type="line"/>
			<point x="614" y="551" type="line"/>
			<point x="614" y="690" type="line"/>
			<point x="81" y="690" type="line"/>
			<point x="81" y="550" type="line"/>
			<point x="394" y="550" type="line"/>
			<point x="53" y="136" type="line"/>
			<point x="53" y="0" type="line"/>
		</contour>
	</outline>
</glyph>
<glyph name="uni0218" format="2">
	<advance width="626"/>
	<unicode hex="0218"/>
	<note>
		Scommaaccent
	</note>
	<outline>
		<contour>
			<point x="322" y="704" type="curve" smooth="yes"/>
			<point x="185" y="704"/>
			<point x="61" y="629"/>
			<point x="61" y="496" type="curve" smooth="yes"/>
			<point x="61" y="358"/>
			<point x="153" y="309"/>
			<point x="310" y="270" type="curve" smooth="yes"/>
			<point x="395" y="249"/>
			<point x="421" y="218"/>
			<point x="421" y="182" type="curve" smooth="yes"/>
			<point x="421" y="144"/>
			<point x="383" y="118"/>
			<point x="333" y="118" type="curve" smooth="yes"/>
			<point x="279" y="118"/>
			<point x="226" y="146"/>
			<point x="214" y="211" type="curve"/>
			<point x="34" y="211" type="line"/>
			<point x="45" y="56"/>
			<point x="163" y="-14"/>
			<point x="338" y="-14" type="curve" smooth="yes"/>
			<point x="477" y="-14"/>
			<point x="609" y="56"/>
			<point x="609" y="194" type="curve" smooth="yes"/>
			<point x="609" y="300"/>
			<point x="547" y="376"/>
			<point x="395" y="412" type="curve" smooth="yes"/>
			<point x="281" y="439"/>
			<point x="249" y="466"/>
			<point x="249" y="510" type="curve" smooth="yes"/>
			<point x="249" y="552"/>
			<point x="277" y="572"/>
			<point x="318" y="572" type="curve" smooth="yes"/>
			<point x="377" y="572"/>
			<point x="407" y="534"/>
			<point x="415" y="477" type="curve"/>
			<point x="595" y="477" type="line"/>
			<point x="580" y="605"/>
			<point x="504" y="704"/>
		</contour>
		<contour>
			<point x="285" y="-216" type="line"/>
			<point x="386" y="-47" type="line"/>
			<point x="386" y="-37" type="line"/>
			<point x="272" y="-37" type="line"/>
			<point x="188" y="-216" type="line"/>
		</contour>
	</outline>
</glyph>
<glyph name="uni0219" format="2">
	<advance width="528"/>
	<unicode hex="0219"/>
	<note>
		scommaaccent
	</note>
	<outline>
		<contour>
			<point x="274" y="548" type="curve" smooth="yes"/>
			<point x="132" y="548"/>
			<point x="40" y="482"/>
			<point x="40" y="376" type="curve" smooth="yes"/>
			<point x="40" y="285"/>
			<point x="101" y="238"/>
			<point x="203" y="214" type="curve" smooth="yes"/>
			<point x="298" y="192"/>
			<point x="332" y="173"/>
			<point x="332" y="139" type="curve" smooth="yes"/>
			<point x="332" y="111"/>
			<point x="307" y="98"/>
			<point x="275" y="98" type="curve" smooth="yes"/>
			<point x="237" y="98"/>
			<point x="205" y="125"/>
			<point x="195" y="166" type="curve"/>
			<point x="18" y="166" type="line"/>
			<point x="32" y="46"/>
			<point x="131" y="-14"/>
			<point x="276" y="-14" type="curve" smooth="yes"/>
			<point x="405" y="-14"/>
			<point x="512" y="39"/>
			<point x="512" y="153" type="curve" smooth="yes"/>
			<point x="512" y="256"/>
			<point x="443" y="298"/>
			<point x="346" y="322" type="curve" smooth="yes"/>
			<point x="244" y="347"/>
			<point x="220" y="367"/>
			<point x="220" y="397" type="curve" smooth="yes"/>
			<point x="220" y="420"/>
			<point x="238" y="436"/>
			<point x="263" y="436" type="curve" smooth="yes"/>
			<point x="295" y="436"/>
			<point x="313" y="415"/>
			<point x="321" y="378" type="curve"/>
			<point x="498" y="378" type="line"/>
			<point x="484" y="475"/>
			<point x="407" y="548"/>
		</contour>
		<contour>
			<point x="242" y="-216" type="line"/>
			<point x="343" y="-47" type="line"/>
			<point x="343" y="-37" type="line"/>
			<point x="229" y="-37" type="line"/>
			<point x="145" y="-216" type="line"/>
		</contour>
	</outline>
</glyph>
<glyph name="uni021A" format="2">
	<advance width="632"/>
	<unicode hex="021A"/>
	<note>
		uni021A
	</note>
	<outline>
		<contour>
			<point x="418" y="550" type="line"/>
			<point x="642" y="550" type="line"/>
			<point x="642" y="690" type="line"/>
			<point x="14" y="690" type="line"/>
			<point x="14" y="550" type="line"/>
			<point x="238" y="550" type="line"/>
			<point x="238" y="0" type="line"/>
			<point x="418" y="0" type="line"/>
		</contour>
		<contour>
			<point x="402" y="-37" type="line"/>
			<point x="288" y="-37" type="line"/>
			<point x="204" y="-216" type="line"/>
			<point x="301" y="-216" type="line"/>
			<point x="402" y="-47" type="line"/>
		</contour>
	</outline>
</glyph>
<glyph name="circumflex" format="2">
	<advance width="300"/>
	<unicode hex="02C6"/>
	<note>
		circumflex
	</note>
	<outline>
		<contour>
			<point x="149" y="647" type="line"/>
			<point x="183" y="571" type="line"/>
			<point x="287" y="571" type="line"/>
			<point x="225" y="696" type="line"/>
			<point x="76" y="696" type="line"/>
			<point x="14" y="571" type="line"/>
			<point x="117" y="571" type="line"/>
		</contour>
	</outline>
</glyph>
<glyph name="caron" format="2">
	<advance width="300"/>
	<unicode hex="02C7"/>
	<note>
		caron
	</note>
	<outline>
		<contour>
			<point x="225" y="571" type="line"/>
			<point x="287" y="696" type="line"/>
			<point x="184" y="696" type="line"/>
			<point x="152" y="620" type="line"/>
			<point x="118" y="696" type="line"/>
			<point x="14" y="696" type="line"/>
			<point x="76" y="571" type="line"/>
		</contour>
	</outline>
</glyph>
<glyph name="dotaccent" format="2">
	<advance width="300"/>
	<unicode hex="02D9"/>
	<note>
		dotaccent
	</note>
	<outline>
		<contour>
			<point x="150" y="751" type="curve" smooth="yes"/>
			<point x="94" y="751"/>
			<point x="57" y="717"/>
			<point x="57" y="663" type="curve" smooth="yes"/>
			<point x="57" y="609"/>
			<point x="94" y="575"/>
			<point x="150" y="575" type="curve" smooth="yes"/>
			<point x="206" y="575"/>
			<point x="243" y="609"/>
			<point x="243" y="663" type="curve" smooth="yes"/>
			<point x="243" y="717"/>
			<point x="206" y="751"/>
		</contour>
	</outline>
</glyph>
<glyph name="hungarumlaut" format="2">
	<advance width="300"/>
	<unicode hex="02DD"/>
	<note>
		hungarumlaut
	</note>
	<outline>
		<contour>
			<point x="-22" y="571" type="line"/>
			<point x="74" y="571" type="line"/>
			<point x="229" y="696" type="line"/>
			<point x="69" y="696" type="line"/>
		</contour>
		<contour>
			<point x="169" y="571" type="line"/>
			<point x="265" y="571" type="line"/>
			<point x="420" y="696" type="line"/>
			<point x="260" y="696" type="line"/>
		</contour>
	</outline>
</glyph>
<glyph name="wdieresis" format="2">
	<advance width="868"/>
	<unicode hex="1E85"/>
	<note>
		wdieresis
	</note>
	<outline>
		<contour>
			<point x="707" y="0" type="line"/>
			<point x="876" y="534" type="line"/>
			<point x="682" y="534" type="line"/>
			<point x="614" y="151" type="line"/>
			<point x="546" y="530" type="line"/>
			<point x="332" y="530" type="line"/>
			<point x="268" y="152" type="line"/>
			<point x="198" y="534" type="line"/>
			<point x="0" y="534" type="line"/>
			<point x="169" y="0" type="line"/>
			<point x="370" y="0" type="line"/>
			<point x="438" y="360" type="line"/>
			<point x="506" y="0" type="line"/>
		</contour>
		<contour>
			<point x="264" y="715" type="line"/>
			<point x="264" y="568" type="line"/>
			<point x="414" y="568" type="line"/>
			<point x="414" y="715" type="line"/>
		</contour>
		<contour>
			<point x="465" y="715" type="line"/>
			<point x="465" y="568" type="line"/>
			<point x="615" y="568" type="line"/>
			<point x="615" y="715" type="line"/>
		</contour>
	</outline>
</glyph>
<glyph name="Ygrave" format="2">
	<advance width="663"/>
	<unicode hex="1EF2"/>
	<note>
		Ygrave
	</note>
	<outline>
		<contour>
			<point x="157" y="860" type="line"/>
			<point x="312" y="735" type="line"/>
			<point x="408" y="735" type="line"/>
			<point x="317" y="860" type="line"/>
		</contour>
		<contour>
			<point x="437" y="0" type="line"/>
			<point x="437" y="264" type="line"/>
			<point x="680" y="690" type="line"/>
			<point x="483" y="690" type="line"/>
			<point x="352" y="417" type="line"/>
			<point x="216" y="690" type="line"/>
			<point x="14" y="690" type="line"/>
			<point x="257" y="264" type="line"/>
			<point x="257" y="0" type="line"/>
		</contour>
	</outline>
</glyph>
<glyph name="quoteright" format="2">
	<advance width="322"/>
	<unicode hex="2019"/>
	<note>
		quoteright
	</note>
	<outline>
		<contour>
			<point x="155" y="439" type="line"/>
			<point x="264" y="725" type="line"/>
			<point x="264" y="735" type="line"/>
			<point x="97" y="735" type="line"/>
			<point x="17" y="439" type="line"/>
		</contour>
	</outline>
</glyph>
<glyph name="quotesinglbase" format="2">
	<advance width="266"/>
	<unicode hex="201A"/>
	<note>
		quotesinglbase
	</note>
	<outline>
		<contour>
			<point x="112" y="-124" type="line"/>
			<point x="221" y="162" type="line"/>
			<point x="221" y="172" type="line"/>
			<point x="54" y="172" type="line"/>
			<point x="-26" y="-124" type="line"/>
		</contour>
	</outline>
</glyph>
<glyph name="quotedblleft" format="2">
	<advance width="562"/>
	<unicode hex="201C"/>
	<note>
		quotedblleft
	</note>
	<outline>
		<contour>
			<point x="167" y="735" type="line"/>
			<point x="58" y="449" type="line"/>
			<point x="58" y="439" type="line"/>
			<point x="225" y="439" type="line"/>
			<point x="305" y="735" type="line"/>
		</contour>
		<contour>
			<point x="407" y="735" type="line"/>
			<point x="298" y="449" type="line"/>
			<point x="298" y="439" type="line"/>
			<point x="465" y="439" type="line"/>
			<point x="545" y="735" type="line"/>
		</contour>
	</outline>
</glyph>
<glyph name="daggerdbl" format="2">
	<advance width="570"/>
	<unicode hex="2021"/>
	<note>
		daggerdbl
	</note>
	<outline>
		<contour>
			<point x="354" y="188" type="line"/>
			<point x="354" y="342" type="line"/>
			<point x="534" y="338" type="line"/>
			<point x="534" y="488" type="line"/>
			<point x="356" y="484" type="line"/>
			<point x="366" y="690" type="line"/>
			<point x="204" y="690" type="line"/>
			<point x="214" y="484" type="line"/>
			<point x="36" y="488" type="line"/>
			<point x="36" y="338" type="line"/>
			<point x="216" y="342" type="line"/>
			<point x="216" y="188" type="line"/>
			<point x="36" y="192" type="line"/>
			<point x="36" y="42" type="line"/>
			<point x="214" y="46" type="line"/>
			<point x="204" y="-160" type="line"/>
			<point x="366" y="-160" type="line"/>
			<point x="356" y="46" type="line"/>
			<point x="534" y="42" type="line"/>
			<point x="534" y="192" type="line"/>
		</contour>
	</outline>
</glyph>
<glyph name="perthousand" format="2">
	<advance width="1132"/>
	<unicode hex="2030"/>
	<note>
		perthousand
	</note>
	<outline>
		<contour>
			<point x="351" y="535" type="curve" smooth="yes"/>
			<point x="351" y="643"/>
			<point x="291" y="704"/>
			<point x="191" y="704" type="curve" smooth="yes"/>
			<point x="91" y="704"/>
			<point x="31" y="643"/>
			<point x="31" y="535" type="curve" smooth="yes"/>
			<point x="31" y="428"/>
			<point x="91" y="366"/>
			<point x="191" y="366" type="curve" smooth="yes"/>
			<point x="291" y="366"/>
			<point x="351" y="428"/>
		</contour>
		<contour>
			<point x="234" y="0" type="line"/>
			<point x="681" y="690" type="line"/>
			<point x="558" y="690" type="line"/>
			<point x="111" y="0" type="line"/>
		</contour>
		<contour>
			<point x="139" y="535" type="curve" smooth="yes"/>
			<point x="139" y="590"/>
			<point x="155" y="620"/>
			<point x="191" y="620" type="curve" smooth="yes"/>
			<point x="227" y="620"/>
			<point x="243" y="590"/>
			<point x="243" y="535" type="curve" smooth="yes"/>
			<point x="243" y="481"/>
			<point x="227" y="450"/>
			<point x="191" y="450" type="curve" smooth="yes"/>
			<point x="155" y="450"/>
			<point x="139" y="481"/>
		</contour>
		<contour>
			<point x="591" y="324" type="curve" smooth="yes"/>
			<point x="491" y="324"/>
			<point x="431" y="263"/>
			<point x="431" y="155" type="curve" smooth="yes"/>
			<point x="431" y="48"/>
			<point x="491" y="-14"/>
			<point x="591" y="-14" type="curve" smooth="yes"/>
			<point x="691" y="-14"/>
			<point x="751" y="48"/>
			<point x="751" y="155" type="curve" smooth="yes"/>
			<point x="751" y="263"/>
			<point x="691" y="324"/>
		</contour>
		<contour>
			<point x="941" y="324" type="curve" smooth="yes"/>
			<point x="841" y="324"/>
			<point x="781" y="263"/>
			<point x="781" y="155" type="curve" smooth="yes"/>
			<point x="781" y="48"/>
			<point x="841" y="-14"/>
			<point x="941" y="-14" type="curve" smooth="yes"/>
			<point x="1041" y="-14"/>
			<point x="1101" y="48"/>
			<point x="1101" y="155" type="curve" smooth="yes"/>
			<point x="1101" y="263"/>
			<point x="1041" y="324"/>
		</contour>
		<contour>
			<point x="591" y="70" type="curve" smooth="yes"/>
			<point x="555" y="70"/>
			<point x="539" y="101"/>
			<point x="539" y="155" type="curve" smooth="yes"/>
			<point x="539" y="210"/>
			<point x="555" y="240"/>
			<point x="591" y="240" type="curve" smooth="yes"/>
			<point x="627" y="240"/>
			<point x="643" y="210"/>
			<point x="643" y="155" type="curve" smooth="yes"/>
			<point x="643" y="101"/>
			<point x="627" y="70"/>
		</contour>
		<contour>
			<point x="941" y="70" type="curve" smooth="yes"/>
			<point x="905" y="70"/>
			<point x="889" y="101"/>
			<point x="889" y="155" type="curve" smooth="yes"/>
			<point x="889" y="210"/>
			<point x="905" y="240"/>
			<point x="941" y="240" type="curve" smooth="yes"/>
			<point x="977" y="240"/>
			<point x="993" y="210"/>
			<point x="993" y="155" type="curve" smooth="yes"/>
			<point x="993" y="101"/>
			<point x="977" y="70"/>
		</contour>
	</outline>
</glyph>
<glyph name="guilsinglleft" format="2">
	<advance width="457"/>
	<unicode hex="2039"/>
	<note>
		guilsinglleft
	</note>
	<outline>
		<contour>
			<point x="276" y="248" type="line"/>
			<point x="413" y="414" type="line"/>
			<point x="284" y="414" type="line"/>
			<point x="147" y="248" type="line"/>
			<point x="284" y="82" type="line"/>
			<point x="413" y="82" type="line"/>
		</contour>
	</outline>
</glyph>
<glyph name="fraction" format="2">
	<advance width="370"/>
	<unicode hex="2044"/>
	<note>
		fraction
	</note>
	<outline>
		<contour>
			<point x="-100" y="0" type="line"/>
			<point x="23" y="0" type="line"/>
			<point x="470" y="690" type="line"/>
			<point x="347" y="690" type="line"/>
		</contour>
	</outline>
</glyph>
<glyph name="emptyset" format="2">
	<advance width="838"/>
	<unicode hex="2205"/>
	<note>
		emptyset
	</note>
	<outline>
		<contour>
			<point x="748" y="595" type="curve"/>
			<point x="827" y="674" type="line"/>
			<point x="758" y="743" type="line"/>
			<point x="681" y="666" type="line"/>
			<point x="610" y="726"/>
			<point x="518" y="762"/>
			<point x="419" y="762" type="curve" smooth="yes"/>
			<point x="199" y="762"/>
			<point x="13" y="586"/>
			<point x="13" y="355" type="curve" smooth="yes"/>
			<point x="13" y="254"/>
			<point x="49" y="163"/>
			<point x="108" y="93" type="curve"/>
			<point x="11" y="-4" type="line"/>
			<point x="80" y="-73" type="line"/>
			<point x="179" y="26" type="line"/>
			<point x="247" y="-24"/>
			<point x="330" y="-53"/>
			<point x="419" y="-53" type="curve" smooth="yes"/>
			<point x="639" y="-53"/>
			<point x="825" y="124"/>
			<point x="825" y="355" type="curve" smooth="yes"/>
			<point x="825" y="446"/>
			<point x="796" y="528"/>
		</contour>
		<contour>
			<point x="121" y="355" type="curve" smooth="yes"/>
			<point x="121" y="534"/>
			<point x="257" y="666"/>
			<point x="419" y="666" type="curve" smooth="yes"/>
			<point x="491" y="666"/>
			<point x="558" y="640"/>
			<point x="610" y="595" type="curve"/>
			<point x="181" y="166" type="line"/>
			<point x="143" y="217"/>
			<point x="121" y="282"/>
		</contour>
		<contour>
			<point x="717" y="355" type="curve" smooth="yes"/>
			<point x="717" y="176"/>
			<point x="581" y="44"/>
			<point x="419" y="44" type="curve" smooth="yes"/>
			<point x="357" y="44"/>
			<point x="298" y="63"/>
			<point x="250" y="97" type="curve"/>
			<point x="673" y="520" type="line"/>
			<point x="700" y="473"/>
			<point x="717" y="417"/>
		</contour>
	</outline>
</glyph>
<glyph name="minus" format="2">
	<advance width="662"/>
	<unicode hex="2212"/>
	<note>
		minus
	</note>
	<outline>
		<contour>
			<point x="106" y="269" type="line"/>
			<point x="556" y="269" type="line"/>
			<point x="556" y="365" type="line"/>
			<point x="106" y="365" type="line"/>
		</contour>
	</outline>
</glyph>
<glyph name="radical" format="2">
	<advance width="662"/>
	<unicode hex="221A"/>
	<note>
		radical
	</note>
	<outline>
		<contour>
			<point x="390" y="-160" type="line"/>
			<point x="616" y="780" type="line"/>
			<point x="510" y="780" type="line"/>
			<point x="321" y="-51" type="line"/>
			<point x="210" y="310" type="line"/>
			<point x="47" y="310" type="line"/>
			<point x="47" y="222" type="line"/>
			<point x="129" y="222" type="line"/>
			<point x="256" y="-160" type="line"/>
		</contour>
	</outline>
</glyph>
<glyph name="approxequal" format="2">
	<advance width="662"/>
	<unicode hex="2248"/>
	<note>
		approxequal
	</note>
	<outline>
		<contour>
			<point x="222" y="496" type="curve" smooth="yes"/>
			<point x="169" y="496"/>
			<point x="121" y="476"/>
			<point x="80" y="408" type="curve"/>
			<point x="138" y="345" type="line"/>
			<point x="165" y="376"/>
			<point x="191" y="391"/>
			<point x="225" y="391" type="curve" smooth="yes"/>
			<point x="248" y="391"/>
			<point x="264" y="384"/>
			<point x="317" y="356" type="curve" smooth="yes"/>
			<point x="372" y="327"/>
			<point x="398" y="315"/>
			<point x="439" y="315" type="curve" smooth="yes"/>
			<point x="492" y="315"/>
			<point x="540" y="335"/>
			<point x="581" y="403" type="curve"/>
			<point x="523" y="466" type="line"/>
			<point x="496" y="435"/>
			<point x="470" y="420"/>
			<point x="436" y="420" type="curve" smooth="yes"/>
			<point x="413" y="420"/>
			<point x="397" y="427"/>
			<point x="344" y="455" type="curve" smooth="yes"/>
			<point x="289" y="484"/>
			<point x="263" y="496"/>
		</contour>
		<contour>
			<point x="222" y="296" type="curve" smooth="yes"/>
			<point x="169" y="296"/>
			<point x="121" y="276"/>
			<point x="80" y="208" type="curve"/>
			<point x="138" y="145" type="line"/>
			<point x="165" y="176"/>
			<point x="191" y="191"/>
			<point x="225" y="191" type="curve" smooth="yes"/>
			<point x="248" y="191"/>
			<point x="264" y="184"/>
			<point x="317" y="156" type="curve" smooth="yes"/>
			<point x="372" y="127"/>
			<point x="398" y="115"/>
			<point x="439" y="115" type="curve" smooth="yes"/>
			<point x="492" y="115"/>
			<point x="540" y="135"/>
			<point x="581" y="203" type="curve"/>
			<point x="523" y="266" type="line"/>
			<point x="496" y="235"/>
			<point x="470" y="220"/>
			<point x="436" y="220" type="curve" smooth="yes"/>
			<point x="413" y="220"/>
			<point x="397" y="227"/>
			<point x="344" y="255" type="curve" smooth="yes"/>
			<point x="289" y="284"/>
			<point x="263" y="296"/>
		</contour>
	</outline>
</glyph>
<glyph name="notequal" format="2">
	<advance width="662"/>
	<unicode hex="2260"/>
	<note>
		notequal
	</note>
	<outline>
		<contour>
			<point x="356" y="261" type="line"/>
			<point x="411" y="373" type="line"/>
			<point x="576" y="373" type="line"/>
			<point x="576" y="461" type="line"/>
			<point x="454" y="461" type="line"/>
			<point x="509" y="572" type="line"/>
			<point x="404" y="572" type="line"/>
			<point x="349" y="461" type="line"/>
			<point x="86" y="461" type="line"/>
			<point x="86" y="373" type="line"/>
			<point x="306" y="373" type="line"/>
			<point x="251" y="261" type="line"/>
			<point x="86" y="261" type="line"/>
			<point x="86" y="173" type="line"/>
			<point x="208" y="173" type="line"/>
			<point x="153" y="62" type="line"/>
			<point x="258" y="62" type="line"/>
			<point x="313" y="173" type="line"/>
			<point x="576" y="173" type="line"/>
			<point x="576" y="261" type="line"/>
		</contour>
	</outline>
</glyph>
<glyph name="lozenge" format="2">
	<advance width="554"/>
	<unicode hex="25CA"/>
	<note>
		lozenge
	</note>
	<outline>
		<contour>
			<point x="353" y="0" type="line"/>
			<point x="510" y="345" type="line"/>
			<point x="353" y="690" type="line"/>
			<point x="201" y="690" type="line"/>
			<point x="44" y="345" type="line"/>
			<point x="201" y="0" type="line"/>
		</contour>
		<contour>
			<point x="277" y="576" type="line"/>
			<point x="378" y="345" type="line"/>
			<point x="277" y="114" type="line"/>
			<point x="176" y="345" type="line"/>
		</contour>
	</outline>
</glyph>
<glyph name="fl" format="2">
	<advance width="677"/>
	<unicode hex="FB02"/>
	<note>
		fl
	</note>
	<outline>
		<contour>
			<point x="604" y="143" type="curve" smooth="yes"/>
			<point x="602" y="156"/>
			<point x="602" y="167"/>
			<point x="602" y="192" type="curve" smooth="yes"/>
			<point x="602" y="723" type="line"/>
			<point x="544" y="742"/>
			<point x="463" y="754"/>
			<point x="362" y="754" type="curve" smooth="yes"/>
			<point x="147" y="754"/>
			<point x="75" y="682"/>
			<point x="67" y="582" type="curve" smooth="yes"/>
			<point x="66" y="564"/>
			<point x="66" y="550"/>
			<point x="66" y="534" type="curve" smooth="yes"/>
			<point x="66" y="530" type="line"/>
			<point x="19" y="530" type="line"/>
			<point x="19" y="418" type="line"/>
			<point x="66" y="418" type="line"/>
			<point x="66" y="0" type="line"/>
			<point x="246" y="0" type="line"/>
			<point x="246" y="418" type="line"/>
			<point x="355" y="418" type="line"/>
			<point x="355" y="530" type="line"/>
			<point x="246" y="530" type="line"/>
			<point x="246" y="534" type="line" smooth="yes"/>
			<point x="246" y="547"/>
			<point x="246" y="560"/>
			<point x="247" y="574" type="curve" smooth="yes"/>
			<point x="251" y="613"/>
			<point x="286" y="632"/>
			<point x="362" y="632" type="curve" smooth="yes"/>
			<point x="387" y="632"/>
			<point x="402" y="631"/>
			<point x="422" y="625" type="curve"/>
			<point x="422" y="189" type="line" smooth="yes"/>
			<point x="422" y="149"/>
			<point x="422" y="122"/>
			<point x="424" y="94" type="curve" smooth="yes"/>
			<point x="428" y="23"/>
			<point x="475" y="-10"/>
			<point x="548" y="-10" type="curve" smooth="yes"/>
			<point x="588" y="-10"/>
			<point x="625" y="-8"/>
			<point x="663" y="-4" type="curve"/>
			<point x="663" y="107" type="line"/>
			<point x="623" y="105"/>
			<point x="608" y="112"/>
		</contour>
	</outline>
</glyph>
<glyph name="C_Q" format="2">
	<advance width="1255"/>
	<unicode hex="F1440"/>
	<outline>
		<contour>
			<point x="395" y="704" type="curve" smooth="yes"/>
			<point x="208" y="704"/>
			<point x="54" y="580"/>
			<point x="54" y="340" type="curve" smooth="yes"/>
			<point x="54" y="106"/>
			<point x="203" y="-14"/>
			<point x="388" y="-14" type="curve" smooth="yes"/>
			<point x="486" y="-14"/>
			<point x="569" y="13"/>
			<point x="626" y="67" type="curve"/>
			<point x="687" y="14"/>
			<point x="770" y="-14"/>
			<point x="871" y="-14" type="curve" smooth="yes"/>
			<point x="897" y="-14"/>
			<point x="920" y="-12"/>
			<point x="942" y="-7" type="curve" smooth="yes"/>
			<point x="970" y="-1"/>
			<point x="987" y="2"/>
			<point x="1015" y="2" type="curve" smooth="yes"/>
			<point x="1062" y="2"/>
			<point x="1093" y="-9"/>
			<point x="1157" y="-48" type="curve"/>
			<point x="1243" y="66" type="line"/>
			<point x="1206" y="97"/>
			<point x="1173" y="116"/>
			<point x="1136" y="127" type="curve"/>
			<point x="1195" y="182"/>
			<point x="1224" y="261"/>
			<point x="1224" y="345" type="curve" smooth="yes"/>
			<point x="1224" y="567"/>
			<point x="1086" y="705"/>
			<point x="871" y="705" type="curve" smooth="yes"/>
			<point x="773" y="705"/>
			<point x="691" y="677"/>
			<point x="630" y="625" type="curve"/>
			<point x="578" y="674"/>
			<point x="501" y="704"/>
		</contour>
		<contour>
			<point x="242" y="351" type="curve" smooth="yes"/>
			<point x="242" y="500"/>
			<point x="307" y="572"/>
			<point x="393" y="572" type="curve" smooth="yes"/>
			<point x="466" y="572"/>
			<point x="511" y="537"/>
			<point x="526" y="463" type="curve" smooth="yes"/>
			<point x="528" y="453" type="line"/>
			<point x="708" y="453" type="line"/>
			<point x="733" y="532"/>
			<point x="796" y="573"/>
			<point x="871" y="573" type="curve" smooth="yes"/>
			<point x="975" y="573"/>
			<point x="1040" y="492"/>
			<point x="1040" y="345" type="curve" smooth="yes"/>
			<point x="1040" y="199"/>
			<point x="975" y="118"/>
			<point x="871" y="118" type="curve" smooth="yes"/>
			<point x="791" y="118"/>
			<point x="728" y="159"/>
			<point x="706" y="247" type="curve"/>
			<point x="526" y="247" type="line"/>
			<point x="524" y="237" type="line" smooth="yes"/>
			<point x="509" y="161"/>
			<point x="464" y="118"/>
			<point x="394" y="118" type="curve" smooth="yes"/>
			<point x="314" y="118"/>
			<point x="242" y="177"/>
		</contour>
	</outline>
</glyph>
<glyph name="E_A" format="2">
	<advance width="1032"/>
	<unicode hex="F1810"/>
	<outline>
		<contour>
			<point x="609" y="0" type="line"/>
			<point x="609" y="140" type="line"/>
			<point x="260" y="140" type="line"/>
			<point x="260" y="276" type="line"/>
			<point x="793" y="276" type="line"/>
			<point x="851" y="97" type="line"/>
			<point x="1047" y="97" type="line"/>
			<point x="798" y="787" type="line"/>
			<point x="578" y="787" type="line"/>
			<point x="543" y="690" type="line"/>
			<point x="80" y="690" type="line"/>
			<point x="80" y="0" type="line"/>
		</contour>
		<contour>
			<point x="260" y="416" type="line"/>
			<point x="260" y="550" type="line"/>
			<point x="493" y="550" type="line"/>
			<point x="444" y="416" type="line"/>
		</contour>
		<contour>
			<point x="622" y="416" type="line"/>
			<point x="686" y="628" type="line"/>
			<point x="750" y="416" type="line"/>
		</contour>
	</outline>
</glyph>
<glyph name="Eacute_E" format="2">
	<advance width="956"/>
	<unicode hex="F1820"/>
	<outline>
		<contour>
			<point x="286" y="735" type="line"/>
			<point x="382" y="735" type="line"/>
			<point x="537" y="860" type="line"/>
			<point x="377" y="860" type="line"/>
		</contour>
		<contour>
			<point x="80" y="0" type="line"/>
			<point x="926" y="0" type="line"/>
			<point x="926" y="140" type="line"/>
			<point x="577" y="140" type="line"/>
			<point x="577" y="276" type="line"/>
			<point x="896" y="276" type="line"/>
			<point x="896" y="416" type="line"/>
			<point x="577" y="416" type="line"/>
			<point x="577" y="550" type="line"/>
			<point x="916" y="550" type="line"/>
			<point x="916" y="690" type="line"/>
			<point x="80" y="690" type="line"/>
		</contour>
		<contour>
			<point x="260" y="140" type="line"/>
			<point x="260" y="276" type="line"/>
			<point x="397" y="276" type="line"/>
			<point x="397" y="140" type="line"/>
		</contour>
		<contour>
			<point x="260" y="416" type="line"/>
			<point x="260" y="550" type="line"/>
			<point x="397" y="550" type="line"/>
			<point x="397" y="416" type="line"/>
		</contour>
	</outline>
</glyph>
<glyph name="E_U" format="2">
	<advance width="1049"/>
	<unicode hex="F18A0"/>
	<outline>
		<contour>
			<point x="1011" y="303" type="curve" smooth="yes"/>
			<point x="1011" y="690" type="line"/>
			<point x="831" y="690" type="line"/>
			<point x="831" y="270" type="line" smooth="yes"/>
			<point x="831" y="251"/>
			<point x="831" y="241"/>
			<point x="830" y="229" type="curve" smooth="yes"/>
			<point x="825" y="157"/>
			<point x="784" y="118"/>
			<point x="705" y="118" type="curve" smooth="yes"/>
			<point x="626" y="118"/>
			<point x="585" y="157"/>
			<point x="580" y="229" type="curve" smooth="yes"/>
			<point x="579" y="241"/>
			<point x="579" y="251"/>
			<point x="579" y="270" type="curve" smooth="yes"/>
			<point x="579" y="416" type="line"/>
			<point x="260" y="416" type="line"/>
			<point x="260" y="550" type="line"/>
			<point x="599" y="550" type="line"/>
			<point x="599" y="690" type="line"/>
			<point x="80" y="690" type="line"/>
			<point x="80" y="0" type="line"/>
			<point x="583" y="0" type="line"/>
			<point x="618" y="-9"/>
			<point x="658" y="-14"/>
			<point x="705" y="-14" type="curve" smooth="yes"/>
			<point x="918" y="-14"/>
			<point x="1000" y="90"/>
			<point x="1008" y="206" type="curve" smooth="yes"/>
			<point x="1011" y="247"/>
			<point x="1011" y="268"/>
		</contour>
		<contour>
			<point x="260" y="140" type="line"/>
			<point x="260" y="276" type="line"/>
			<point x="399" y="276" type="line"/>
			<point x="399" y="255"/>
			<point x="400" y="235"/>
			<point x="402" y="206" type="curve" smooth="yes"/>
			<point x="404" y="183"/>
			<point x="408" y="161"/>
			<point x="416" y="140" type="curve"/>
		</contour>
	</outline>
</glyph>
<glyph name="e_a" format="2">
	<advance width="960"/>
	<unicode hex="F1910"/>
	<outline>
		<contour>
			<point x="300" y="426" type="curve" smooth="yes"/>
			<point x="348" y="426"/>
			<point x="379" y="395"/>
			<point x="389" y="332" type="curve"/>
			<point x="208" y="332" type="line"/>
			<point x="220" y="398"/>
			<point x="253" y="426"/>
		</contour>
		<contour>
			<point x="24" y="265" type="curve" smooth="yes"/>
			<point x="24" y="77"/>
			<point x="146" y="-14"/>
			<point x="299" y="-14" type="curve" smooth="yes"/>
			<point x="436" y="-14"/>
			<point x="536" y="54"/>
			<point x="567" y="175" type="curve"/>
			<point x="390" y="175" type="line"/>
			<point x="383" y="134"/>
			<point x="352" y="108"/>
			<point x="301" y="108" type="curve" smooth="yes"/>
			<point x="250" y="108"/>
			<point x="211" y="133"/>
			<point x="202" y="222" type="curve"/>
			<point x="574" y="222" type="line" smooth="yes"/>
			<point x="623" y="222"/>
			<point x="668" y="234"/>
			<point x="706" y="258" type="curve"/>
			<point x="728" y="314" type="line"/>
			<point x="740" y="236" type="line"/>
			<point x="916" y="236" type="line"/>
			<point x="908" y="295"/>
			<point x="906" y="331"/>
			<point x="906" y="371" type="curve" smooth="yes"/>
			<point x="906" y="521" type="line" smooth="yes"/>
			<point x="906" y="554"/>
			<point x="905" y="585"/>
			<point x="903" y="612" type="curve" smooth="yes"/>
			<point x="895" y="709"/>
			<point x="837" y="784"/>
			<point x="668" y="784" type="curve" smooth="yes"/>
			<point x="533" y="784"/>
			<point x="422" y="713"/>
			<point x="421" y="588" type="curve"/>
			<point x="591" y="589" type="line"/>
			<point x="594" y="635"/>
			<point x="618" y="662"/>
			<point x="660" y="662" type="curve" smooth="yes"/>
			<point x="699" y="662"/>
			<point x="721" y="638"/>
			<point x="724" y="611" type="curve" smooth="yes"/>
			<point x="726" y="594"/>
			<point x="726" y="583"/>
			<point x="726" y="572" type="curve" smooth="yes"/>
			<point x="726" y="564" type="line"/>
			<point x="692" y="564" type="line" smooth="yes"/>
			<point x="591" y="564"/>
			<point x="513" y="542"/>
			<point x="464" y="504" type="curve"/>
			<point x="423" y="531"/>
			<point x="371" y="548"/>
			<point x="309" y="548" type="curve" smooth="yes"/>
			<point x="131" y="548"/>
			<point x="24" y="421"/>
		</contour>
		<contour>
			<point x="587" y="394" type="curve" smooth="yes"/>
			<point x="587" y="447"/>
			<point x="645" y="468"/>
			<point x="726" y="462" type="curve"/>
			<point x="726" y="427" type="line" smooth="yes"/>
			<point x="726" y="371"/>
			<point x="684" y="344"/>
			<point x="648" y="344" type="curve" smooth="yes"/>
			<point x="612" y="344"/>
			<point x="587" y="362"/>
		</contour>
	</outline>
</glyph>
<glyph name="e_t_e" format="2">
	<advance width="1531"/>
	<unicode hex="F1B00"/>
	<outline>
		<contour>
			<point x="577" y="274" type="curve" smooth="yes"/>
			<point x="577" y="412"/>
			<point x="487" y="548"/>
			<point x="309" y="548" type="curve" smooth="yes"/>
			<point x="131" y="548"/>
			<point x="24" y="421"/>
			<point x="24" y="265" type="curve" smooth="yes"/>
			<point x="24" y="77"/>
			<point x="146" y="-14"/>
			<point x="299" y="-14" type="curve" smooth="yes"/>
			<point x="436" y="-14"/>
			<point x="536" y="54"/>
			<point x="567" y="175" type="curve"/>
			<point x="390" y="175" type="line"/>
			<point x="383" y="134"/>
			<point x="352" y="108"/>
			<point x="301" y="108" type="curve" smooth="yes"/>
			<point x="250" y="108"/>
			<point x="211" y="133"/>
			<point x="202" y="222" type="curve"/>
			<point x="574" y="222" type="line"/>
			<point x="576" y="240"/>
			<point x="577" y="258"/>
		</contour>
		<contour>
			<point x="152" y="586" type="line"/>
			<point x="452" y="586" type="line"/>
			<point x="452" y="682" type="line"/>
			<point x="152" y="682" type="line"/>
		</contour>
		<contour>
			<point x="208" y="332" type="line"/>
			<point x="220" y="398"/>
			<point x="253" y="426"/>
			<point x="300" y="426" type="curve" smooth="yes"/>
			<point x="348" y="426"/>
			<point x="379" y="395"/>
			<point x="389" y="332" type="curve"/>
		</contour>
		<contour>
			<point x="606" y="418" type="line"/>
			<point x="691" y="418" type="line"/>
			<point x="691" y="195" type="line" smooth="yes"/>
			<point x="691" y="165"/>
			<point x="691" y="140"/>
			<point x="693" y="109" type="curve" smooth="yes"/>
			<point x="699" y="27"/>
			<point x="739" y="-14"/>
			<point x="872" y="-14" type="curve" smooth="yes"/>
			<point x="910" y="-14"/>
			<point x="943" y="-11"/>
			<point x="978" y="-5" type="curve"/>
			<point x="978" y="107" type="line"/>
			<point x="893" y="103"/>
			<point x="876" y="115"/>
			<point x="872" y="169" type="curve" smooth="yes"/>
			<point x="871" y="183"/>
			<point x="871" y="203"/>
			<point x="871" y="221" type="curve" smooth="yes"/>
			<point x="871" y="418" type="line"/>
			<point x="1504" y="418" type="line"/>
			<point x="1506" y="436"/>
			<point x="1507" y="454"/>
			<point x="1507" y="470" type="curve" smooth="yes"/>
			<point x="1507" y="608"/>
			<point x="1417" y="744"/>
			<point x="1239" y="744" type="curve" smooth="yes"/>
			<point x="1088" y="744"/>
			<point x="988" y="653"/>
			<point x="961" y="530" type="curve"/>
			<point x="871" y="530" type="line"/>
			<point x="871" y="668" type="line"/>
			<point x="691" y="668" type="line"/>
			<point x="691" y="530" type="line"/>
			<point x="606" y="530" type="line"/>
		</contour>
		<contour>
			<point x="1138" y="528" type="line"/>
			<point x="1150" y="594"/>
			<point x="1183" y="622"/>
			<point x="1230" y="622" type="curve" smooth="yes"/>
			<point x="1278" y="622"/>
			<point x="1309" y="591"/>
			<point x="1319" y="528" type="curve"/>
		</contour>
	</outline>
</glyph>
<glyph name="F_F_E" format="2">
	<advance width="1499"/>
	<unicode hex="F2030"/>
	<outline>
		<contour>
			<point x="260" y="416" type="line"/>
			<point x="260" y="550" type="line"/>
			<point x="599" y="550" type="line"/>
			<point x="599" y="0" type="line"/>
			<point x="779" y="0" type="line"/>
			<point x="779" y="276" type="line"/>
			<point x="940" y="276" type="line"/>
			<point x="940" y="0" type="line"/>
			<point x="1469" y="0" type="line"/>
			<point x="1469" y="140" type="line"/>
			<point x="1120" y="140" type="line"/>
			<point x="1120" y="276" type="line"/>
			<point x="1439" y="276" type="line"/>
			<point x="1439" y="416" type="line"/>
			<point x="1120" y="416" type="line"/>
			<point x="1120" y="550" type="line"/>
			<point x="1459" y="550" type="line"/>
			<point x="1459" y="690" type="line"/>
			<point x="80" y="690" type="line"/>
			<point x="80" y="0" type="line"/>
			<point x="260" y="0" type="line"/>
			<point x="260" y="276" type="line"/>
			<point x="569" y="276" type="line"/>
			<point x="569" y="416" type="line"/>
		</contour>
		<contour>
			<point x="779" y="416" type="line"/>
			<point x="779" y="550" type="line"/>
			<point x="940" y="550" type="line"/>
			<point x="940" y="416" type="line"/>
		</contour>
	</outline>
</glyph>
<glyph name="F_V" format="2">
	<advance width="1257"/>
	<unicode hex="F2050"/>
	<outline>
		<contour>
			<point x="260" y="416" type="line"/>
			<point x="260" y="550" type="line"/>
			<point x="598" y="550" type="line"/>
			<point x="796" y="0" type="line"/>
			<point x="1016" y="0" type="line"/>
			<point x="1265" y="690" type="line"/>
			<point x="1074" y="690" type="line"/>
			<point x="908" y="139" type="line"/>
			<point x="743" y="690" type="line"/>
			<point x="80" y="690" type="line"/>
			<point x="80" y="0" type="line"/>
			<point x="260" y="0" type="line"/>
			<point x="260" y="276" type="line"/>
			<point x="569" y="276" type="line"/>
			<point x="569" y="416" type="line"/>
		</contour>
	</outline>
</glyph>
<glyph name="f_f_e" format="2">
	<advance width="1110"/>
	<unicode hex="F2130"/>
	<outline>
		<contour>
			<point x="257" y="574" type="curve" smooth="yes"/>
			<point x="262" y="621"/>
			<point x="309" y="640"/>
			<point x="374" y="629" type="curve"/>
			<point x="374" y="746" type="line"/>
			<point x="356" y="751"/>
			<point x="335" y="754"/>
			<point x="314" y="754" type="curve" smooth="yes"/>
			<point x="149" y="754"/>
			<point x="85" y="692"/>
			<point x="77" y="592" type="curve" smooth="yes"/>
			<point x="76" y="574"/>
			<point x="76" y="550"/>
			<point x="76" y="534" type="curve" smooth="yes"/>
			<point x="76" y="530" type="line"/>
			<point x="19" y="530" type="line"/>
			<point x="19" y="418" type="line"/>
			<point x="76" y="418" type="line"/>
			<point x="76" y="0" type="line"/>
			<point x="256" y="0" type="line"/>
			<point x="256" y="418" type="line"/>
			<point x="421" y="418" type="line"/>
			<point x="421" y="0" type="line"/>
			<point x="601" y="0" type="line"/>
			<point x="601" y="203" type="line"/>
			<point x="1083" y="203" type="line"/>
			<point x="1085" y="221"/>
			<point x="1086" y="239"/>
			<point x="1086" y="255" type="curve" smooth="yes"/>
			<point x="1086" y="393"/>
			<point x="996" y="529"/>
			<point x="818" y="529" type="curve" smooth="yes"/>
			<point x="601" y="530" type="line"/>
			<point x="601" y="534" type="line" smooth="yes"/>
			<point x="601" y="547"/>
			<point x="601" y="560"/>
			<point x="602" y="574" type="curve" smooth="yes"/>
			<point x="607" y="621"/>
			<point x="654" y="640"/>
			<point x="719" y="629" type="curve"/>
			<point x="719" y="746" type="line"/>
			<point x="701" y="751"/>
			<point x="680" y="754"/>
			<point x="659" y="754" type="curve" smooth="yes"/>
			<point x="494" y="754"/>
			<point x="430" y="692"/>
			<point x="422" y="592" type="curve" smooth="yes"/>
			<point x="421" y="574"/>
			<point x="421" y="550"/>
			<point x="421" y="534" type="curve" smooth="yes"/>
			<point x="421" y="530" type="line"/>
			<point x="256" y="530" type="line"/>
			<point x="256" y="534" type="line" smooth="yes"/>
			<point x="256" y="547"/>
			<point x="256" y="560"/>
		</contour>
		<contour>
			<point x="717" y="313" type="line"/>
			<point x="729" y="379"/>
			<point x="762" y="407"/>
			<point x="809" y="407" type="curve" smooth="yes"/>
			<point x="857" y="407"/>
			<point x="888" y="376"/>
			<point x="898" y="313" type="curve"/>
		</contour>
	</outline>
</glyph>
<glyph name="f_v" format="2">
	<advance width="631"/>
	<unicode hex="F2150"/>
	<outline>
		<contour>
			<point x="257" y="574" type="curve" smooth="yes"/>
			<point x="262" y="621"/>
			<point x="309" y="640"/>
			<point x="374" y="629" type="curve"/>
			<point x="374" y="746" type="line"/>
			<point x="356" y="751"/>
			<point x="335" y="754"/>
			<point x="314" y="754" type="curve" smooth="yes"/>
			<point x="149" y="754"/>
			<point x="85" y="692"/>
			<point x="77" y="592" type="curve" smooth="yes"/>
			<point x="76" y="574"/>
			<point x="76" y="550"/>
			<point x="76" y="534" type="curve" smooth="yes"/>
			<point x="76" y="530" type="line"/>
			<point x="19" y="530" type="line"/>
			<point x="19" y="418" type="line"/>
			<point x="72" y="418" type="line"/>
			<point x="234" y="0" type="line"/>
			<point x="428" y="0" type="line"/>
			<point x="639" y="534" type="line"/>
			<point x="442" y="534" type="line"/>
			<point x="333" y="143" type="line"/>
			<point x="260" y="418" type="line"/>
			<point x="365" y="418" type="line"/>
			<point x="365" y="530" type="line"/>
			<point x="256" y="530" type="line"/>
			<point x="256" y="534" type="line" smooth="yes"/>
			<point x="256" y="547"/>
			<point x="256" y="560"/>
		</contour>
	</outline>
</glyph>
<glyph name="I_E" format="2">
	<advance width="956"/>
	<unicode hex="F2610"/>
	<outline>
		<contour>
			<point x="926" y="0" type="line"/>
			<point x="926" y="140" type="line"/>
			<point x="577" y="140" type="line"/>
			<point x="577" y="276" type="line"/>
			<point x="896" y="276" type="line"/>
			<point x="896" y="416" type="line"/>
			<point x="577" y="416" type="line"/>
			<point x="577" y="550" type="line"/>
			<point x="916" y="550" type="line"/>
			<point x="916" y="690" type="line"/>
			<point x="397" y="690" type="line"/>
			<point x="397" y="0" type="line"/>
		</contour>
		<contour>
			<point x="80" y="729" type="line"/>
			<point x="263" y="729" type="line"/>
			<point x="263" y="905" type="line"/>
			<point x="80" y="905" type="line"/>
		</contour>
		<contour>
			<point x="81" y="157" type="line"/>
			<point x="261" y="157" type="line"/>
			<point x="261" y="691" type="line"/>
			<point x="81" y="691" type="line"/>
		</contour>
	</outline>
</glyph>
<glyph name="L_E" format="2">
	<advance width="988"/>
	<unicode hex="F3210"/>
	<outline>
		<contour>
			<point x="80" y="0" type="line"/>
			<point x="958" y="0" type="line"/>
			<point x="958" y="140" type="line"/>
			<point x="609" y="140" type="line"/>
			<point x="609" y="276" type="line"/>
			<point x="928" y="276" type="line"/>
			<point x="928" y="416" type="line"/>
			<point x="609" y="416" type="line"/>
			<point x="609" y="550" type="line"/>
			<point x="948" y="550" type="line"/>
			<point x="948" y="690" type="line"/>
			<point x="429" y="690" type="line"/>
			<point x="429" y="140" type="line"/>
			<point x="260" y="140" type="line"/>
			<point x="260" y="690" type="line"/>
			<point x="80" y="690" type="line"/>
		</contour>
	</outline>
</glyph>
<glyph name="l_u" format="2">
	<advance width="646"/>
	<unicode hex="F3350"/>
	<outline>
		<contour>
			<point x="592" y="0" type="line"/>
			<point x="592" y="534" type="line"/>
			<point x="412" y="534" type="line"/>
			<point x="412" y="232" type="line" smooth="yes"/>
			<point x="412" y="161"/>
			<point x="378" y="108"/>
			<point x="321" y="108" type="curve" smooth="yes"/>
			<point x="264" y="108"/>
			<point x="240" y="138"/>
			<point x="234" y="189" type="curve" smooth="yes"/>
			<point x="231" y="216"/>
			<point x="230" y="245"/>
			<point x="230" y="262" type="curve" smooth="yes"/>
			<point x="230" y="735" type="line"/>
			<point x="50" y="735" type="line"/>
			<point x="50" y="189" type="line"/>
			<point x="50" y="186" type="line" smooth="yes"/>
			<point x="51" y="161"/>
			<point x="52" y="140"/>
			<point x="55" y="121" type="curve" smooth="yes"/>
			<point x="67" y="48"/>
			<point x="134" y="-14"/>
			<point x="244" y="-14" type="curve" smooth="yes"/>
			<point x="293" y="-14"/>
			<point x="331" y="-3"/>
			<point x="364" y="17" type="curve"/>
			<point x="412" y="90" type="line"/>
			<point x="412" y="0" type="line"/>
		</contour>
	</outline>
</glyph>
<glyph name="M_P" format="2">
	<advance width="1253"/>
	<unicode hex="F3410"/>
	<outline>
		<contour>
			<point x="869" y="0" type="line"/>
			<point x="869" y="242" type="line"/>
			<point x="949" y="242" type="line" smooth="yes"/>
			<point x="992" y="242"/>
			<point x="1020" y="243"/>
			<point x="1057" y="247" type="curve" smooth="yes"/>
			<point x="1157" y="259"/>
			<point x="1248" y="330"/>
			<point x="1248" y="466" type="curve" smooth="yes"/>
			<point x="1248" y="602"/>
			<point x="1157" y="673"/>
			<point x="1057" y="685" type="curve" smooth="yes"/>
			<point x="1020" y="689"/>
			<point x="992" y="690"/>
			<point x="949" y="690" type="curve" smooth="yes"/>
			<point x="595" y="690" type="line"/>
			<point x="478" y="175" type="line"/>
			<point x="361" y="690" type="line"/>
			<point x="80" y="690" type="line"/>
			<point x="80" y="0" type="line"/>
			<point x="260" y="0" type="line"/>
			<point x="260" y="290" type="line" smooth="yes"/>
			<point x="260" y="350"/>
			<point x="260" y="439"/>
			<point x="258" y="509" type="curve"/>
			<point x="269" y="439"/>
			<point x="289" y="350"/>
			<point x="305" y="290" type="curve" smooth="yes"/>
			<point x="382" y="0" type="line"/>
			<point x="567" y="0" type="line"/>
			<point x="643" y="290" type="line" smooth="yes"/>
			<point x="658" y="348"/>
			<point x="677" y="430"/>
			<point x="689" y="498" type="curve"/>
			<point x="689" y="0" type="line"/>
		</contour>
		<contour>
			<point x="869" y="382" type="line"/>
			<point x="869" y="550" type="line"/>
			<point x="939" y="550" type="line" smooth="yes"/>
			<point x="958" y="550"/>
			<point x="974" y="550"/>
			<point x="987" y="549" type="curve" smooth="yes"/>
			<point x="1033" y="545"/>
			<point x="1060" y="518"/>
			<point x="1060" y="466" type="curve" smooth="yes"/>
			<point x="1060" y="414"/>
			<point x="1033" y="387"/>
			<point x="987" y="383" type="curve" smooth="yes"/>
			<point x="974" y="382"/>
			<point x="958" y="382"/>
			<point x="939" y="382" type="curve" smooth="yes"/>
		</contour>
	</outline>
</glyph>
<glyph name="n_a" format="2">
	<advance width="964"/>
	<unicode hex="F3710"/>
	<outline>
		<contour>
			<point x="732" y="78" type="line"/>
			<point x="744" y="0" type="line"/>
			<point x="920" y="0" type="line"/>
			<point x="912" y="59"/>
			<point x="910" y="95"/>
			<point x="910" y="135" type="curve" smooth="yes"/>
			<point x="910" y="285" type="line" smooth="yes"/>
			<point x="910" y="318"/>
			<point x="909" y="349"/>
			<point x="907" y="376" type="curve" smooth="yes"/>
			<point x="899" y="473"/>
			<point x="841" y="548"/>
			<point x="672" y="548" type="curve" smooth="yes"/>
			<point x="618" y="548"/>
			<point x="568" y="537"/>
			<point x="528" y="515" type="curve"/>
			<point x="496" y="537"/>
			<point x="453" y="548"/>
			<point x="402" y="548" type="curve" smooth="yes"/>
			<point x="353" y="548"/>
			<point x="315" y="537"/>
			<point x="282" y="517" type="curve"/>
			<point x="234" y="451" type="line"/>
			<point x="234" y="534" type="line"/>
			<point x="54" y="534" type="line"/>
			<point x="54" y="0" type="line"/>
			<point x="234" y="0" type="line"/>
			<point x="234" y="252" type="line" smooth="yes"/>
			<point x="234" y="373"/>
			<point x="273" y="426"/>
			<point x="328" y="426" type="curve" smooth="yes"/>
			<point x="382" y="426"/>
			<point x="410" y="396"/>
			<point x="414" y="345" type="curve" smooth="yes"/>
			<point x="416" y="318"/>
			<point x="416" y="288"/>
			<point x="416" y="272" type="curve" smooth="yes"/>
			<point x="415" y="195" type="line"/>
			<point x="410" y="179"/>
			<point x="407" y="162"/>
			<point x="407" y="144" type="curve" smooth="yes"/>
			<point x="407" y="41"/>
			<point x="490" y="-14"/>
			<point x="578" y="-14" type="curve" smooth="yes"/>
			<point x="627" y="-14"/>
			<point x="672" y="-2"/>
			<point x="710" y="22" type="curve"/>
		</contour>
		<contour>
			<point x="591" y="158" type="curve" smooth="yes"/>
			<point x="591" y="211"/>
			<point x="649" y="232"/>
			<point x="730" y="226" type="curve"/>
			<point x="730" y="191" type="line" smooth="yes"/>
			<point x="730" y="135"/>
			<point x="688" y="108"/>
			<point x="652" y="108" type="curve" smooth="yes"/>
			<point x="616" y="108"/>
			<point x="591" y="126"/>
		</contour>
		<contour>
			<point x="595" y="320" type="curve"/>
			<point x="595" y="353" type="line" smooth="yes"/>
			<point x="598" y="399"/>
			<point x="622" y="426"/>
			<point x="664" y="426" type="curve" smooth="yes"/>
			<point x="703" y="426"/>
			<point x="725" y="402"/>
			<point x="728" y="375" type="curve" smooth="yes"/>
			<point x="730" y="358"/>
			<point x="730" y="347"/>
			<point x="730" y="336" type="curve" smooth="yes"/>
			<point x="730" y="328" type="line"/>
			<point x="696" y="328" type="line" smooth="yes"/>
			<point x="659" y="328"/>
			<point x="625" y="325"/>
		</contour>
	</outline>
</glyph>
<glyph name="n_n_e" format="2">
	<advance width="1357"/>
	<unicode hex="F3750"/>
	<outline>
		<contour>
			<point x="1333" y="496" type="curve" smooth="yes"/>
			<point x="1333" y="634"/>
			<point x="1243" y="770"/>
			<point x="1065" y="770" type="curve" smooth="yes"/>
			<point x="1001" y="770"/>
			<point x="947" y="754"/>
			<point x="903" y="726" type="curve"/>
			<point x="870" y="755"/>
			<point x="824" y="770"/>
			<point x="764" y="770" type="curve" smooth="yes"/>
			<point x="715" y="770"/>
			<point x="677" y="759"/>
			<point x="644" y="739" type="curve"/>
			<point x="596" y="673" type="line"/>
			<point x="596" y="756" type="line"/>
			<point x="416" y="756" type="line"/>
			<point x="416" y="548" type="line"/>
			<point x="402" y="548" type="line" smooth="yes"/>
			<point x="353" y="548"/>
			<point x="315" y="537"/>
			<point x="282" y="517" type="curve"/>
			<point x="234" y="451" type="line"/>
			<point x="234" y="534" type="line"/>
			<point x="54" y="534" type="line"/>
			<point x="54" y="0" type="line"/>
			<point x="234" y="0" type="line"/>
			<point x="234" y="252" type="line" smooth="yes"/>
			<point x="234" y="373"/>
			<point x="273" y="426"/>
			<point x="328" y="426" type="curve" smooth="yes"/>
			<point x="382" y="426"/>
			<point x="410" y="396"/>
			<point x="414" y="345" type="curve" smooth="yes"/>
			<point x="416" y="318"/>
			<point x="416" y="289"/>
			<point x="416" y="272" type="curve" smooth="yes"/>
			<point x="416" y="0" type="line"/>
			<point x="596" y="0" type="line"/>
			<point x="596" y="474" type="line" smooth="yes"/>
			<point x="596" y="595"/>
			<point x="635" y="648"/>
			<point x="690" y="648" type="curve" smooth="yes"/>
			<point x="744" y="648"/>
			<point x="772" y="618"/>
			<point x="776" y="567" type="curve" smooth="yes"/>
			<point x="778" y="540"/>
			<point x="776" y="512"/>
			<point x="778" y="494" type="curve" smooth="yes"/>
			<point x="780" y="468" type="line" smooth="yes"/>
			<point x="788" y="293"/>
			<point x="907" y="208"/>
			<point x="1055" y="208" type="curve"/>
			<point x="1057" y="330" type="line"/>
			<point x="1006" y="330"/>
			<point x="967" y="355"/>
			<point x="958" y="444" type="curve"/>
			<point x="1330" y="444" type="line"/>
			<point x="1332" y="462"/>
			<point x="1333" y="480"/>
		</contour>
		<contour>
			<point x="964" y="554" type="line"/>
			<point x="976" y="620"/>
			<point x="1009" y="648"/>
			<point x="1056" y="648" type="curve" smooth="yes"/>
			<point x="1104" y="648"/>
			<point x="1135" y="617"/>
			<point x="1145" y="554" type="curve"/>
		</contour>
	</outline>
</glyph>
<glyph name="O_F" format="2">
	<advance width="1115"/>
	<unicode hex="F3810"/>
	<outline>
		<contour>
			<point x="407" y="704" type="curve" smooth="yes"/>
			<point x="192" y="704"/>
			<point x="54" y="567"/>
			<point x="54" y="345" type="curve" smooth="yes"/>
			<point x="54" y="124"/>
			<point x="192" y="-14"/>
			<point x="407" y="-14" type="curve" smooth="yes"/>
			<point x="599" y="-14"/>
			<point x="729" y="96"/>
			<point x="755" y="276" type="curve"/>
			<point x="1069" y="276" type="line"/>
			<point x="1069" y="416" type="line"/>
			<point x="760" y="416" type="line"/>
			<point x="760" y="550" type="line"/>
			<point x="1099" y="550" type="line"/>
			<point x="1099" y="690" type="line"/>
			<point x="580" y="690" type="line"/>
			<point x="580" y="667" type="line"/>
			<point x="531" y="691"/>
			<point x="472" y="704"/>
		</contour>
		<contour>
			<point x="238" y="345" type="curve" smooth="yes"/>
			<point x="238" y="492"/>
			<point x="303" y="572"/>
			<point x="407" y="572" type="curve" smooth="yes"/>
			<point x="511" y="572"/>
			<point x="576" y="492"/>
			<point x="576" y="345" type="curve" smooth="yes"/>
			<point x="576" y="199"/>
			<point x="511" y="118"/>
			<point x="407" y="118" type="curve" smooth="yes"/>
			<point x="303" y="118"/>
			<point x="238" y="199"/>
		</contour>
	</outline>
</glyph>
<glyph name="o_t_e" format="2">
	<advance width="1230"/>
	<unicode hex="F3950"/>
	<outline>
		<contour>
			<point x="311" y="548" type="curve" smooth="yes"/>
			<point x="136" y="548"/>
			<point x="24" y="439"/>
			<point x="24" y="267" type="curve" smooth="yes"/>
			<point x="24" y="96"/>
			<point x="136" y="-14"/>
			<point x="311" y="-14" type="curve" smooth="yes"/>
			<point x="368" y="-14"/>
			<point x="418" y="-2"/>
			<point x="460" y="19" type="curve"/>
			<point x="487" y="-3"/>
			<point x="531" y="-14"/>
			<point x="600" y="-14" type="curve" smooth="yes"/>
			<point x="638" y="-14"/>
			<point x="671" y="-11"/>
			<point x="706" y="-5" type="curve"/>
			<point x="706" y="107" type="line"/>
			<point x="621" y="103"/>
			<point x="604" y="115"/>
			<point x="600" y="169" type="curve" smooth="yes"/>
			<point x="599" y="183"/>
			<point x="599" y="203"/>
			<point x="599" y="221" type="curve" smooth="yes"/>
			<point x="599" y="418" type="line"/>
			<point x="1203" y="418" type="line"/>
			<point x="1205" y="436"/>
			<point x="1206" y="456"/>
			<point x="1206" y="472" type="curve" smooth="yes"/>
			<point x="1206" y="610"/>
			<point x="1116" y="746"/>
			<point x="938" y="746" type="curve" smooth="yes"/>
			<point x="786" y="746"/>
			<point x="686" y="654"/>
			<point x="660" y="530" type="curve"/>
			<point x="599" y="530" type="line"/>
			<point x="599" y="668" type="line"/>
			<point x="419" y="668" type="line"/>
			<point x="419" y="532" type="line"/>
			<point x="387" y="542"/>
			<point x="350" y="548"/>
		</contour>
		<contour>
			<point x="208" y="267" type="curve" smooth="yes"/>
			<point x="208" y="374"/>
			<point x="247" y="426"/>
			<point x="311" y="426" type="curve" smooth="yes"/>
			<point x="375" y="426"/>
			<point x="414" y="374"/>
			<point x="414" y="267" type="curve" smooth="yes"/>
			<point x="414" y="161"/>
			<point x="375" y="108"/>
			<point x="311" y="108" type="curve" smooth="yes"/>
			<point x="247" y="108"/>
			<point x="208" y="161"/>
		</contour>
		<contour>
			<point x="837" y="530" type="line"/>
			<point x="849" y="596"/>
			<point x="882" y="624"/>
			<point x="929" y="624" type="curve" smooth="yes"/>
			<point x="977" y="624"/>
			<point x="1008" y="593"/>
			<point x="1018" y="530" type="curve"/>
		</contour>
	</outline>
</glyph>
<glyph name="R_E" format="2">
	<advance width="1008"/>
	<unicode hex="F4410"/>
	<outline>
		<contour>
			<point x="618" y="168" type="curve" smooth="yes"/>
			<point x="613" y="212"/>
			<point x="603" y="248"/>
			<point x="584" y="276" type="curve"/>
			<point x="948" y="276" type="line"/>
			<point x="948" y="416" type="line"/>
			<point x="629" y="416" type="line"/>
			<point x="642" y="440"/>
			<point x="649" y="469"/>
			<point x="649" y="502" type="curve" smooth="yes"/>
			<point x="649" y="519"/>
			<point x="647" y="535"/>
			<point x="644" y="550" type="curve"/>
			<point x="968" y="550" type="line"/>
			<point x="968" y="690" type="line"/>
			<point x="80" y="690" type="line"/>
			<point x="80" y="0" type="line"/>
			<point x="260" y="0" type="line"/>
			<point x="260" y="262" type="line"/>
			<point x="300" y="262" type="line" smooth="yes"/>
			<point x="320" y="262"/>
			<point x="337" y="262"/>
			<point x="357" y="261" type="curve" smooth="yes"/>
			<point x="403" y="258"/>
			<point x="433" y="214"/>
			<point x="442" y="138" type="curve" smooth="yes"/>
			<point x="448" y="89"/>
			<point x="458" y="49"/>
			<point x="474" y="0" type="curve"/>
			<point x="978" y="0" type="line"/>
			<point x="978" y="140" type="line"/>
			<point x="622" y="140" type="line"/>
			<point x="620" y="149"/>
			<point x="619" y="158"/>
		</contour>
		<contour>
			<point x="260" y="392" type="line"/>
			<point x="260" y="550" type="line"/>
			<point x="330" y="550" type="line" smooth="yes"/>
			<point x="349" y="550"/>
			<point x="365" y="550"/>
			<point x="378" y="549" type="curve" smooth="yes"/>
			<point x="424" y="545"/>
			<point x="461" y="529"/>
			<point x="461" y="471" type="curve" smooth="yes"/>
			<point x="461" y="413"/>
			<point x="419" y="397"/>
			<point x="373" y="393" type="curve" smooth="yes"/>
			<point x="360" y="392"/>
			<point x="344" y="392"/>
			<point x="325" y="392" type="curve" smooth="yes"/>
		</contour>
	</outline>
</glyph>
<glyph name="S_E" format="2">
	<advance width="974"/>
	<unicode hex="F4640"/>
	<outline>
		<contour>
			<point x="322" y="704" type="curve" smooth="yes"/>
			<point x="185" y="704"/>
			<point x="61" y="629"/>
			<point x="61" y="496" type="curve" smooth="yes"/>
			<point x="61" y="358"/>
			<point x="153" y="309"/>
			<point x="310" y="270" type="curve" smooth="yes"/>
			<point x="395" y="249"/>
			<point x="414" y="218"/>
			<point x="414" y="182" type="curve" smooth="yes"/>
			<point x="414" y="144"/>
			<point x="383" y="118"/>
			<point x="333" y="118" type="curve" smooth="yes"/>
			<point x="279" y="118"/>
			<point x="226" y="146"/>
			<point x="214" y="211" type="curve"/>
			<point x="34" y="211" type="line"/>
			<point x="45" y="56"/>
			<point x="163" y="-14"/>
			<point x="338" y="-14" type="curve" smooth="yes"/>
			<point x="365" y="-14"/>
			<point x="391" y="-11"/>
			<point x="415" y="-6" type="curve"/>
			<point x="415" y="-212" type="line"/>
			<point x="944" y="-212" type="line"/>
			<point x="944" y="-72" type="line"/>
			<point x="595" y="-72" type="line"/>
			<point x="595" y="64" type="line"/>
			<point x="914" y="64" type="line"/>
			<point x="914" y="204" type="line"/>
			<point x="595" y="204" type="line"/>
			<point x="595" y="338" type="line"/>
			<point x="934" y="338" type="line"/>
			<point x="934" y="478" type="line"/>
			<point x="595" y="478" type="line"/>
			<point x="580" y="606"/>
			<point x="504" y="704"/>
		</contour>
		<contour>
			<point x="249" y="510" type="curve" smooth="yes"/>
			<point x="249" y="552"/>
			<point x="277" y="572"/>
			<point x="318" y="572" type="curve" smooth="yes"/>
			<point x="377" y="572"/>
			<point x="407" y="534"/>
			<point x="415" y="477" type="curve"/>
			<point x="415" y="407" type="line"/>
			<point x="409" y="409"/>
			<point x="402" y="410"/>
			<point x="395" y="412" type="curve" smooth="yes"/>
			<point x="281" y="439"/>
			<point x="249" y="466"/>
		</contour>
	</outline>
</glyph>
<glyph name="S_S_E" format="2">
	<advance width="1355"/>
	<unicode hex="F46A0"/>
	<outline>
		<contour>
			<point x="322" y="704" type="curve" smooth="yes"/>
			<point x="185" y="704"/>
			<point x="61" y="629"/>
			<point x="61" y="496" type="curve" smooth="yes"/>
			<point x="61" y="358"/>
			<point x="153" y="309"/>
			<point x="310" y="270" type="curve" smooth="yes"/>
			<point x="395" y="249"/>
			<point x="421" y="218"/>
			<point x="421" y="182" type="curve" smooth="yes"/>
			<point x="421" y="144"/>
			<point x="383" y="118"/>
			<point x="333" y="118" type="curve" smooth="yes"/>
			<point x="279" y="118"/>
			<point x="226" y="146"/>
			<point x="214" y="211" type="curve"/>
			<point x="34" y="211" type="line"/>
			<point x="45" y="56"/>
			<point x="163" y="-14"/>
			<point x="338" y="-14" type="curve" smooth="yes"/>
			<point x="477" y="-14"/>
			<point x="609" y="56"/>
			<point x="609" y="194" type="curve" smooth="yes"/>
			<point x="609" y="220"/>
			<point x="605" y="244"/>
			<point x="598" y="266" type="curve"/>
			<point x="634" y="257"/>
			<point x="675" y="252"/>
			<point x="719" y="252" type="curve" smooth="yes"/>
			<point x="746" y="252"/>
			<point x="772" y="255"/>
			<point x="796" y="260" type="curve"/>
			<point x="796" y="54" type="line"/>
			<point x="1325" y="54" type="line"/>
			<point x="1325" y="194" type="line"/>
			<point x="976" y="194" type="line"/>
			<point x="976" y="330" type="line"/>
			<point x="1295" y="330" type="line"/>
			<point x="1295" y="470" type="line"/>
			<point x="976" y="470" type="line"/>
			<point x="976" y="604" type="line"/>
			<point x="1315" y="604" type="line"/>
			<point x="1315" y="744" type="line"/>
			<point x="976" y="744" type="line"/>
			<point x="961" y="872"/>
			<point x="885" y="970"/>
			<point x="703" y="970" type="curve" smooth="yes"/>
			<point x="566" y="970"/>
			<point x="442" y="895"/>
			<point x="442" y="762" type="curve" smooth="yes"/>
			<point x="442" y="730"/>
			<point x="447" y="703"/>
			<point x="456" y="680" type="curve"/>
			<point x="420" y="695"/>
			<point x="376" y="704"/>
		</contour>
		<contour>
			<point x="249" y="510" type="curve" smooth="yes"/>
			<point x="249" y="552"/>
			<point x="277" y="572"/>
			<point x="318" y="572" type="curve" smooth="yes"/>
			<point x="377" y="572"/>
			<point x="407" y="534"/>
			<point x="415" y="477" type="curve" smooth="yes"/>
			<point x="417" y="449"/>
			<point x="422" y="425"/>
			<point x="431" y="402" type="curve"/>
			<point x="419" y="406"/>
			<point x="408" y="409"/>
			<point x="395" y="412" type="curve" smooth="yes"/>
			<point x="281" y="439"/>
			<point x="249" y="466"/>
		</contour>
		<contour>
			<point x="567" y="576" type="curve"/>
			<point x="602" y="561"/>
			<point x="643" y="548"/>
			<point x="691" y="536" type="curve" smooth="yes"/>
			<point x="776" y="515"/>
			<point x="795" y="484"/>
			<point x="795" y="448" type="curve" smooth="yes"/>
			<point x="795" y="410"/>
			<point x="764" y="384"/>
			<point x="714" y="384" type="curve" smooth="yes"/>
			<point x="660" y="384"/>
			<point x="607" y="412"/>
			<point x="595" y="477" type="curve"/>
			<point x="591" y="513"/>
			<point x="582" y="547"/>
		</contour>
		<contour>
			<point x="630" y="776" type="curve" smooth="yes"/>
			<point x="630" y="818"/>
			<point x="658" y="838"/>
			<point x="699" y="838" type="curve" smooth="yes"/>
			<point x="758" y="838"/>
			<point x="788" y="800"/>
			<point x="796" y="743" type="curve"/>
			<point x="796" y="673" type="line"/>
			<point x="790" y="675"/>
			<point x="783" y="676"/>
			<point x="776" y="678" type="curve" smooth="yes"/>
			<point x="662" y="705"/>
			<point x="630" y="732"/>
		</contour>
	</outline>
</glyph>
<glyph name="S_T_E_S" format="2">
	<advance width="1784"/>
	<unicode hex="F46E0"/>
	<outline>
		<contour>
			<point x="322" y="704" type="curve" smooth="yes"/>
			<point x="185" y="704"/>
			<point x="61" y="629"/>
			<point x="61" y="496" type="curve" smooth="yes"/>
			<point x="61" y="358"/>
			<point x="153" y="309"/>
			<point x="310" y="270" type="curve" smooth="yes"/>
			<point x="395" y="249"/>
			<point x="421" y="218"/>
			<point x="421" y="182" type="curve" smooth="yes"/>
			<point x="421" y="144"/>
			<point x="383" y="118"/>
			<point x="333" y="118" type="curve" smooth="yes"/>
			<point x="279" y="118"/>
			<point x="226" y="146"/>
			<point x="214" y="211" type="curve"/>
			<point x="34" y="211" type="line"/>
			<point x="45" y="56"/>
			<point x="163" y="-14"/>
			<point x="338" y="-14" type="curve" smooth="yes"/>
			<point x="477" y="-14"/>
			<point x="609" y="56"/>
			<point x="609" y="194" type="curve" smooth="yes"/>
			<point x="609" y="300"/>
			<point x="547" y="376"/>
			<point x="395" y="412" type="curve" smooth="yes"/>
			<point x="281" y="439"/>
			<point x="249" y="466"/>
			<point x="249" y="510" type="curve" smooth="yes"/>
			<point x="249" y="552"/>
			<point x="277" y="572"/>
			<point x="318" y="572" type="curve" smooth="yes"/>
			<point x="377" y="572"/>
			<point x="407" y="534"/>
			<point x="415" y="477" type="curve"/>
			<point x="595" y="477" type="line"/>
			<point x="580" y="605"/>
			<point x="504" y="704"/>
		</contour>
		<contour>
			<point x="640" y="550" type="line"/>
			<point x="864" y="550" type="line"/>
			<point x="864" y="-271" type="line"/>
			<point x="1393" y="-271" type="line"/>
			<point x="1393" y="-131" type="line"/>
			<point x="1044" y="-131" type="line"/>
			<point x="1044" y="5" type="line"/>
			<point x="1248" y="5" type="line"/>
			<point x="1300" y="-53"/>
			<point x="1387" y="-80"/>
			<point x="1496" y="-80" type="curve" smooth="yes"/>
			<point x="1635" y="-80"/>
			<point x="1767" y="-10"/>
			<point x="1767" y="128" type="curve" smooth="yes"/>
			<point x="1767" y="234"/>
			<point x="1705" y="310"/>
			<point x="1553" y="346" type="curve" smooth="yes"/>
			<point x="1439" y="373"/>
			<point x="1407" y="400"/>
			<point x="1407" y="444" type="curve" smooth="yes"/>
			<point x="1407" y="486"/>
			<point x="1435" y="506"/>
			<point x="1476" y="506" type="curve" smooth="yes"/>
			<point x="1535" y="506"/>
			<point x="1565" y="468"/>
			<point x="1573" y="411" type="curve"/>
			<point x="1753" y="411" type="line"/>
			<point x="1738" y="539"/>
			<point x="1662" y="638"/>
			<point x="1480" y="638" type="curve" smooth="yes"/>
			<point x="1396" y="638"/>
			<point x="1317" y="610"/>
			<point x="1268" y="557" type="curve"/>
			<point x="1268" y="690" type="line"/>
			<point x="640" y="690" type="line"/>
		</contour>
		<contour>
			<point x="1044" y="145" type="line"/>
			<point x="1044" y="279" type="line"/>
			<point x="1286" y="279" type="line"/>
			<point x="1328" y="245"/>
			<point x="1390" y="223"/>
			<point x="1468" y="204" type="curve" smooth="yes"/>
			<point x="1553" y="183"/>
			<point x="1579" y="152"/>
			<point x="1579" y="116" type="curve" smooth="yes"/>
			<point x="1579" y="78"/>
			<point x="1541" y="52"/>
			<point x="1491" y="52" type="curve" smooth="yes"/>
			<point x="1437" y="52"/>
			<point x="1384" y="80"/>
			<point x="1372" y="145" type="curve"/>
		</contour>
		<contour>
			<point x="1044" y="419" type="line"/>
			<point x="1044" y="550" type="line"/>
			<point x="1262" y="550" type="line"/>
			<point x="1235" y="518"/>
			<point x="1219" y="478"/>
			<point x="1219" y="430" type="curve" smooth="yes"/>
			<point x="1219" y="419" type="line"/>
		</contour>
	</outline>
</glyph>
<glyph name="s_e" format="2">
	<advance width="897"/>
	<unicode hex="F4740"/>
	<outline>
		<contour>
			<point x="274" y="548" type="curve" smooth="yes"/>
			<point x="132" y="548"/>
			<point x="40" y="482"/>
			<point x="40" y="376" type="curve" smooth="yes"/>
			<point x="40" y="285"/>
			<point x="101" y="238"/>
			<point x="203" y="214" type="curve" smooth="yes"/>
			<point x="298" y="192"/>
			<point x="332" y="173"/>
			<point x="332" y="139" type="curve" smooth="yes"/>
			<point x="332" y="111"/>
			<point x="307" y="98"/>
			<point x="275" y="98" type="curve" smooth="yes"/>
			<point x="237" y="98"/>
			<point x="205" y="125"/>
			<point x="195" y="166" type="curve"/>
			<point x="18" y="166" type="line"/>
			<point x="32" y="46"/>
			<point x="131" y="-14"/>
			<point x="276" y="-14" type="curve" smooth="yes"/>
			<point x="405" y="-14"/>
			<point x="512" y="39"/>
			<point x="512" y="153" type="curve" smooth="yes"/>
			<point x="512" y="256"/>
			<point x="443" y="298"/>
			<point x="346" y="322" type="curve" smooth="yes"/>
			<point x="244" y="347"/>
			<point x="220" y="367"/>
			<point x="220" y="397" type="curve" smooth="yes"/>
			<point x="220" y="420"/>
			<point x="238" y="436"/>
			<point x="263" y="436" type="curve" smooth="yes"/>
			<point x="295" y="436"/>
			<point x="313" y="415"/>
			<point x="321" y="378" type="curve"/>
			<point x="870" y="378" type="line"/>
			<point x="872" y="396"/>
			<point x="873" y="414"/>
			<point x="873" y="430" type="curve" smooth="yes"/>
			<point x="873" y="568"/>
			<point x="783" y="704"/>
			<point x="605" y="704" type="curve" smooth="yes"/>
			<point x="476" y="704"/>
			<point x="384" y="637"/>
			<point x="343" y="541" type="curve"/>
			<point x="322" y="545"/>
			<point x="299" y="548"/>
		</contour>
		<contour>
			<point x="504" y="488" type="line"/>
			<point x="516" y="554"/>
			<point x="549" y="582"/>
			<point x="596" y="582" type="curve" smooth="yes"/>
			<point x="644" y="582"/>
			<point x="675" y="551"/>
			<point x="685" y="488" type="curve"/>
		</contour>
	</outline>
</glyph>
<glyph name="s_t_e_s" format="2">
	<advance width="1683"/>
	<unicode hex="F47E0"/>
	<outline>
		<contour>
			<point x="274" y="548" type="curve" smooth="yes"/>
			<point x="132" y="548"/>
			<point x="40" y="482"/>
			<point x="40" y="376" type="curve" smooth="yes"/>
			<point x="40" y="285"/>
			<point x="101" y="238"/>
			<point x="203" y="214" type="curve" smooth="yes"/>
			<point x="298" y="192"/>
			<point x="332" y="173"/>
			<point x="332" y="139" type="curve" smooth="yes"/>
			<point x="332" y="111"/>
			<point x="307" y="98"/>
			<point x="275" y="98" type="curve" smooth="yes"/>
			<point x="237" y="98"/>
			<point x="205" y="125"/>
			<point x="195" y="166" type="curve"/>
			<point x="18" y="166" type="line"/>
			<point x="32" y="46"/>
			<point x="131" y="-14"/>
			<point x="276" y="-14" type="curve" smooth="yes"/>
			<point x="405" y="-14"/>
			<point x="512" y="39"/>
			<point x="512" y="153" type="curve" smooth="yes"/>
			<point x="512" y="256"/>
			<point x="443" y="298"/>
			<point x="346" y="322" type="curve" smooth="yes"/>
			<point x="244" y="347"/>
			<point x="220" y="367"/>
			<point x="220" y="397" type="curve" smooth="yes"/>
			<point x="220" y="420"/>
			<point x="238" y="436"/>
			<point x="263" y="436" type="curve" smooth="yes"/>
			<point x="295" y="436"/>
			<point x="313" y="415"/>
			<point x="321" y="378" type="curve"/>
			<point x="554" y="378" type="line"/>
			<point x="554" y="155" type="line" smooth="yes"/>
			<point x="554" y="125"/>
			<point x="554" y="100"/>
			<point x="556" y="69" type="curve" smooth="yes"/>
			<point x="562" y="-13"/>
			<point x="602" y="-54"/>
			<point x="735" y="-54" type="curve" smooth="yes"/>
			<point x="773" y="-54"/>
			<point x="806" y="-51"/>
			<point x="841" y="-45" type="curve"/>
			<point x="841" y="67" type="line"/>
			<point x="756" y="63"/>
			<point x="739" y="75"/>
			<point x="735" y="129" type="curve" smooth="yes"/>
			<point x="734" y="143"/>
			<point x="734" y="163"/>
			<point x="734" y="181" type="curve" smooth="yes"/>
			<point x="734" y="378" type="line"/>
			<point x="1173" y="378" type="line"/>
			<point x="1187" y="258"/>
			<point x="1286" y="198"/>
			<point x="1431" y="198" type="curve" smooth="yes"/>
			<point x="1560" y="198"/>
			<point x="1667" y="251"/>
			<point x="1667" y="365" type="curve" smooth="yes"/>
			<point x="1667" y="468"/>
			<point x="1598" y="510"/>
			<point x="1501" y="534" type="curve" smooth="yes"/>
			<point x="1399" y="559"/>
			<point x="1375" y="579"/>
			<point x="1375" y="609" type="curve" smooth="yes"/>
			<point x="1375" y="632"/>
			<point x="1393" y="648"/>
			<point x="1418" y="648" type="curve" smooth="yes"/>
			<point x="1450" y="648"/>
			<point x="1468" y="627"/>
			<point x="1476" y="590" type="curve"/>
			<point x="1653" y="590" type="line"/>
			<point x="1639" y="687"/>
			<point x="1562" y="760"/>
			<point x="1429" y="760" type="curve" smooth="yes"/>
			<point x="1330" y="760"/>
			<point x="1256" y="728"/>
			<point x="1219" y="673" type="curve"/>
			<point x="1182" y="693"/>
			<point x="1137" y="705"/>
			<point x="1085" y="705" type="curve" smooth="yes"/>
			<point x="934" y="705"/>
			<point x="834" y="613"/>
			<point x="807" y="490" type="curve"/>
			<point x="734" y="490" type="line"/>
			<point x="734" y="628" type="line"/>
			<point x="554" y="628" type="line"/>
			<point x="554" y="490" type="line"/>
			<point x="441" y="490" type="line"/>
			<point x="403" y="526"/>
			<point x="347" y="548"/>
		</contour>
		<contour>
			<point x="984" y="489" type="line"/>
			<point x="996" y="555"/>
			<point x="1029" y="583"/>
			<point x="1076" y="583" type="curve" smooth="yes"/>
			<point x="1124" y="583"/>
			<point x="1155" y="552"/>
			<point x="1165" y="489" type="curve"/>
		</contour>
		<contour>
			<point x="1352" y="396" type="curve" smooth="yes"/>
			<point x="1352" y="407"/>
			<point x="1353" y="417"/>
			<point x="1353" y="427" type="curve"/>
			<point x="1355" y="427"/>
			<point x="1356" y="426"/>
			<point x="1358" y="426" type="curve"/>
			<point x="1453" y="404"/>
			<point x="1487" y="385"/>
			<point x="1487" y="351" type="curve" smooth="yes"/>
			<point x="1487" y="323"/>
			<point x="1462" y="310"/>
			<point x="1430" y="310" type="curve" smooth="yes"/>
			<point x="1392" y="310"/>
			<point x="1352" y="342"/>
		</contour>
	</outline>
</glyph>
<glyph name="T_E" format="2">
	<advance width="796"/>
	<unicode hex="F4810"/>
	<outline>
		<contour>
			<point x="418" y="550" type="line"/>
			<point x="642" y="550" type="line"/>
			<point x="642" y="690" type="line"/>
			<point x="14" y="690" type="line"/>
			<point x="14" y="550" type="line"/>
			<point x="238" y="550" type="line"/>
			<point x="238" y="0" type="line"/>
			<point x="418" y="0" type="line"/>
		</contour>
		<contour>
			<point x="766" y="-276" type="line"/>
			<point x="766" y="-136" type="line"/>
			<point x="417" y="-136" type="line"/>
			<point x="417" y="0" type="line"/>
			<point x="736" y="0" type="line"/>
			<point x="736" y="140" type="line"/>
			<point x="417" y="140" type="line"/>
			<point x="417" y="274" type="line"/>
			<point x="756" y="274" type="line"/>
			<point x="756" y="414" type="line"/>
			<point x="237" y="414" type="line"/>
			<point x="237" y="-276" type="line"/>
		</contour>
	</outline>
</glyph>
<glyph name="T_T_E" format="2">
	<advance width="1203"/>
	<unicode hex="F4880"/>
	<outline>
		<contour>
			<point x="418" y="550" type="line"/>
			<point x="644" y="550" type="line"/>
			<point x="644" y="-276" type="line"/>
			<point x="1173" y="-276" type="line"/>
			<point x="1173" y="-136" type="line"/>
			<point x="824" y="-136" type="line"/>
			<point x="824" y="0" type="line"/>
			<point x="1143" y="0" type="line"/>
			<point x="1143" y="140" type="line"/>
			<point x="824" y="140" type="line"/>
			<point x="824" y="274" type="line"/>
			<point x="1163" y="274" type="line"/>
			<point x="1163" y="414" type="line"/>
			<point x="824" y="414" type="line"/>
			<point x="824" y="550" type="line"/>
			<point x="1048" y="550" type="line"/>
			<point x="1048" y="690" type="line"/>
			<point x="14" y="690" type="line"/>
			<point x="14" y="550" type="line"/>
			<point x="238" y="550" type="line"/>
			<point x="238" y="0" type="line"/>
			<point x="418" y="0" type="line"/>
		</contour>
	</outline>
</glyph>
<glyph name="t_t_e" format="2">
	<advance width="1311"/>
	<unicode hex="F4980"/>
	<outline>
		<contour>
			<point x="270" y="221" type="curve" smooth="yes"/>
			<point x="270" y="418" type="line"/>
			<point x="472" y="418" type="line"/>
			<point x="472" y="195" type="line" smooth="yes"/>
			<point x="472" y="165"/>
			<point x="472" y="140"/>
			<point x="474" y="109" type="curve" smooth="yes"/>
			<point x="480" y="27"/>
			<point x="520" y="-14"/>
			<point x="653" y="-14" type="curve" smooth="yes"/>
			<point x="691" y="-14"/>
			<point x="724" y="-11"/>
			<point x="759" y="-5" type="curve"/>
			<point x="759" y="107" type="line"/>
			<point x="674" y="103"/>
			<point x="657" y="115"/>
			<point x="653" y="169" type="curve" smooth="yes"/>
			<point x="652" y="183"/>
			<point x="652" y="203"/>
			<point x="652" y="221" type="curve" smooth="yes"/>
			<point x="652" y="418" type="line"/>
			<point x="1284" y="419" type="line"/>
			<point x="1286" y="437"/>
			<point x="1287" y="455"/>
			<point x="1287" y="471" type="curve" smooth="yes"/>
			<point x="1287" y="609"/>
			<point x="1197" y="745"/>
			<point x="1019" y="745" type="curve" smooth="yes"/>
			<point x="868" y="745"/>
			<point x="768" y="653"/>
			<point x="741" y="530" type="curve"/>
			<point x="652" y="530" type="line"/>
			<point x="652" y="668" type="line"/>
			<point x="472" y="668" type="line"/>
			<point x="472" y="530" type="line"/>
			<point x="270" y="530" type="line"/>
			<point x="270" y="668" type="line"/>
			<point x="90" y="668" type="line"/>
			<point x="90" y="530" type="line"/>
			<point x="5" y="530" type="line"/>
			<point x="5" y="418" type="line"/>
			<point x="90" y="418" type="line"/>
			<point x="90" y="195" type="line" smooth="yes"/>
			<point x="90" y="165"/>
			<point x="90" y="140"/>
			<point x="92" y="109" type="curve" smooth="yes"/>
			<point x="98" y="27"/>
			<point x="138" y="-14"/>
			<point x="271" y="-14" type="curve" smooth="yes"/>
			<point x="309" y="-14"/>
			<point x="342" y="-11"/>
			<point x="377" y="-5" type="curve"/>
			<point x="377" y="107" type="line"/>
			<point x="292" y="103"/>
			<point x="275" y="115"/>
			<point x="271" y="169" type="curve" smooth="yes"/>
			<point x="270" y="183"/>
			<point x="270" y="203"/>
		</contour>
		<contour>
			<point x="918" y="529" type="line"/>
			<point x="930" y="595"/>
			<point x="963" y="623"/>
			<point x="1010" y="623" type="curve" smooth="yes"/>
			<point x="1058" y="623"/>
			<point x="1089" y="592"/>
			<point x="1099" y="529" type="curve"/>
		</contour>
	</outline>
</glyph>
<glyph name="U_L_L_E" format="2">
	<advance width="1756"/>
	<unicode hex="F5070"/>
	<outline>
		<contour>
			<point x="1029" y="280" type="line"/>
			<point x="1029" y="420" type="line"/>
			<point x="1028" y="420" type="line"/>
			<point x="1028" y="690" type="line"/>
			<point x="848" y="690" type="line"/>
			<point x="848" y="420" type="line"/>
			<point x="680" y="420" type="line"/>
			<point x="680" y="958" type="line"/>
			<point x="500" y="958" type="line"/>
			<point x="500" y="270" type="line" smooth="yes"/>
			<point x="500" y="251"/>
			<point x="500" y="241"/>
			<point x="499" y="229" type="curve" smooth="yes"/>
			<point x="494" y="157"/>
			<point x="453" y="118"/>
			<point x="374" y="118" type="curve" smooth="yes"/>
			<point x="295" y="118"/>
			<point x="254" y="157"/>
			<point x="249" y="229" type="curve" smooth="yes"/>
			<point x="248" y="241"/>
			<point x="248" y="251"/>
			<point x="248" y="270" type="curve" smooth="yes"/>
			<point x="248" y="690" type="line"/>
			<point x="68" y="690" type="line"/>
			<point x="68" y="303" type="line" smooth="yes"/>
			<point x="68" y="268"/>
			<point x="68" y="247"/>
			<point x="71" y="206" type="curve" smooth="yes"/>
			<point x="79" y="90"/>
			<point x="161" y="-14"/>
			<point x="374" y="-14" type="curve" smooth="yes"/>
			<point x="587" y="-14"/>
			<point x="669" y="90"/>
			<point x="677" y="206" type="curve" smooth="yes"/>
			<point x="679" y="237"/>
			<point x="680" y="257"/>
			<point x="680" y="280" type="curve"/>
			<point x="848" y="280" type="line"/>
			<point x="848" y="0" type="line"/>
			<point x="1726" y="0" type="line"/>
			<point x="1726" y="140" type="line"/>
			<point x="1377" y="140" type="line"/>
			<point x="1377" y="276" type="line"/>
			<point x="1696" y="276" type="line"/>
			<point x="1696" y="416" type="line"/>
			<point x="1377" y="416" type="line"/>
			<point x="1377" y="550" type="line"/>
			<point x="1716" y="550" type="line"/>
			<point x="1716" y="690" type="line"/>
			<point x="1197" y="690" type="line"/>
			<point x="1197" y="140" type="line"/>
			<point x="1028" y="140" type="line"/>
			<point x="1028" y="280" type="line"/>
		</contour>
	</outline>
</glyph>
<glyph name="X_L" format="2">
	<advance width="911"/>
	<unicode hex="F5640"/>
	<outline>
		<contour>
			<point x="892" y="0" type="line"/>
			<point x="892" y="152" type="line"/>
			<point x="543" y="152" type="line"/>
			<point x="543" y="690" type="line"/>
			<point x="363" y="690" type="line"/>
			<point x="363" y="474" type="line"/>
			<point x="241" y="690" type="line"/>
			<point x="31" y="690" type="line"/>
			<point x="261" y="348" type="line"/>
			<point x="14" y="0" type="line"/>
			<point x="231" y="0" type="line"/>
			<point x="363" y="230" type="line"/>
			<point x="363" y="0" type="line"/>
		</contour>
	</outline>
</glyph>
<glyph name="x_s_e" format="2">
	<advance width="1191"/>
	<unicode hex="F57B0"/>
	<outline>
		<contour>
			<point x="487" y="154" type="curve" smooth="yes"/>
			<point x="442" y="219" type="line"/>
			<point x="459" y="212"/>
			<point x="477" y="207"/>
			<point x="497" y="202" type="curve" smooth="yes"/>
			<point x="592" y="180"/>
			<point x="626" y="161"/>
			<point x="626" y="127" type="curve" smooth="yes"/>
			<point x="626" y="99"/>
			<point x="601" y="92"/>
			<point x="569" y="92" type="curve" smooth="yes"/>
			<point x="531" y="92"/>
			<point x="508" y="122"/>
		</contour>
		<contour>
			<point x="-1" y="0" type="line"/>
			<point x="206" y="0" type="line"/>
			<point x="296" y="161" type="line"/>
			<point x="300" y="154" type="line" smooth="yes"/>
			<point x="353" y="55"/>
			<point x="425" y="-26"/>
			<point x="570" y="-26" type="curve" smooth="yes"/>
			<point x="699" y="-26"/>
			<point x="806" y="27"/>
			<point x="806" y="141" type="curve" smooth="yes"/>
			<point x="806" y="244"/>
			<point x="737" y="286"/>
			<point x="640" y="310" type="curve" smooth="yes"/>
			<point x="538" y="335"/>
			<point x="514" y="355"/>
			<point x="514" y="385" type="curve" smooth="yes"/>
			<point x="514" y="408"/>
			<point x="532" y="424"/>
			<point x="557" y="424" type="curve" smooth="yes"/>
			<point x="589" y="424"/>
			<point x="607" y="403"/>
			<point x="615" y="366" type="curve"/>
			<point x="1164" y="366" type="line"/>
			<point x="1166" y="384"/>
			<point x="1167" y="402"/>
			<point x="1167" y="418" type="curve" smooth="yes"/>
			<point x="1167" y="556"/>
			<point x="1077" y="692"/>
			<point x="899" y="692" type="curve" smooth="yes"/>
			<point x="770" y="692"/>
			<point x="678" y="625"/>
			<point x="637" y="529" type="curve"/>
			<point x="616" y="533"/>
			<point x="593" y="536"/>
			<point x="568" y="536" type="curve" smooth="yes"/>
			<point x="554" y="536"/>
			<point x="540" y="535"/>
			<point x="526" y="534" type="curve" smooth="yes"/>
			<point x="382" y="534" type="line"/>
			<point x="300" y="380" type="line"/>
			<point x="216" y="534" type="line"/>
			<point x="6" y="534" type="line"/>
			<point x="185" y="271" type="line"/>
		</contour>
		<contour>
			<point x="798" y="476" type="line"/>
			<point x="810" y="542"/>
			<point x="843" y="570"/>
			<point x="890" y="570" type="curve" smooth="yes"/>
			<point x="938" y="570"/>
			<point x="969" y="539"/>
			<point x="979" y="476" type="curve"/>
		</contour>
	</outline>
</glyph>
